<svg xmlns="http://www.w3.org/2000/svg" width="86.633" height="78.07" viewBox="0 0 86.633 78.07">
  <g id="Group_256" data-name="Group 256" transform="translate(13065 -1835)">
    <g id="Rectangle_178" data-name="Rectangle 178" transform="translate(-14009.795 93.035)">
      <rect id="Rectangle_198" data-name="Rectangle 198" width="86.633" height="78.07" transform="translate(944.795 1741.965)"/>
      <rect id="Rectangle_199" data-name="Rectangle 199" width="85.905" height="77.34" transform="translate(945.159 1742.329)"/>
    </g>
    <path id="Path_69" data-name="Path 69" d="M1106.108,1783.818l16.008-16.008a2.215,2.215,0,0,0-3.133-3.133l-16.009,16.008-16.007-16.008a2.216,2.216,0,0,0-3.134,3.133l16.008,16.008-16.008,16.008a2.216,2.216,0,0,0,3.134,3.134l16.007-16.009,16.009,16.009a2.216,2.216,0,0,0,3.133-3.134Z" transform="translate(-14125.185 89.972)" fill="#d48832"/>
  </g>
</svg>
