<svg xmlns="http://www.w3.org/2000/svg" width="86.633" height="78.07" viewBox="0 0 86.633 78.07">
  <g id="Group_257" data-name="Group 257" transform="translate(12963 -1835)">
    <g id="Rectangle_178" data-name="Rectangle 178" transform="translate(-13907.795 93.035)">
      <rect id="Rectangle_198" data-name="Rectangle 198" width="86.633" height="78.07" transform="translate(944.795 1741.965)"/>
      <rect id="Rectangle_199" data-name="Rectangle 199" width="85.905" height="77.34" transform="translate(945.159 1742.329)"/>
    </g>
    <g id="Icon_feather-instagram" data-name="Icon feather-instagram" transform="translate(-14022.658 160.193)">
      <path id="Path_72" data-name="Path 72" d="M1090.442,1688.777h25.065a12.533,12.533,0,0,1,12.533,12.533v25.065a12.533,12.533,0,0,1-12.533,12.533h-25.065a12.533,12.533,0,0,1-12.533-12.533V1701.31A12.533,12.533,0,0,1,1090.442,1688.777Z" fill="none" stroke="#d48832" stroke-linecap="round" stroke-linejoin="round" stroke-width="5.013"/>
      <path id="Path_73" data-name="Path 73" d="M1113,1712.263a10.026,10.026,0,1,1-8.447-8.447A10.027,10.027,0,0,1,1113,1712.263Z" fill="none" stroke="#d48832" stroke-linecap="round" stroke-linejoin="round" stroke-width="5.013"/>
      <path id="Path_74" data-name="Path 74" d="M1116.761,1700.056h0" fill="none" stroke="#d48832" stroke-linecap="round" stroke-linejoin="round" stroke-width="5.013"/>
    </g>
  </g>
</svg>
