<svg xmlns="http://www.w3.org/2000/svg" width="1122.375" height="37.5" viewBox="0 0 1122.375 37.5">
  <g id="Line_Breaker" data-name="Line Breaker" transform="translate(1.5 0.5)">
    <g id="Group_137" data-name="Group 137" transform="translate(-498.5 -1098)">
      <line id="Line_13" data-name="Line 13" x2="501.878" transform="translate(498.5 1116.25)" fill="none" stroke="#1d1d1b" stroke-linecap="round" stroke-width="3"/>
      <line id="Line_14" data-name="Line 14" x2="501.878" transform="translate(1115.997 1116.25)" fill="none" stroke="#1d1d1b" stroke-linecap="round" stroke-width="3"/>
    </g>
    <path id="Path_48" data-name="Path 48" d="M-936.211,732.745H-944.1a16.407,16.407,0,0,1,4.59-8.82,1.49,1.49,0,0,0,0-2.1,1.479,1.479,0,0,0-1.052-.436h0a1.479,1.479,0,0,0-1.052.436,19.356,19.356,0,0,0-5.5,10.924h-4.333V717.5a1.506,1.506,0,0,0-1.5-1.5,1.506,1.506,0,0,0-1.5,1.5v15.241h-4.189a19.36,19.36,0,0,0-5.5-10.924,1.48,1.48,0,0,0-1.052-.436h0a1.479,1.479,0,0,0-1.052.436,1.479,1.479,0,0,0-.436,1.052,1.478,1.478,0,0,0,.436,1.052,16.408,16.408,0,0,1,4.59,8.82H-969.7a1.506,1.506,0,0,0-1.5,1.5,1.506,1.506,0,0,0,1.5,1.5h8.281a16.353,16.353,0,0,1-3.529,10.072,1.491,1.491,0,0,0,.249,2.09,1.5,1.5,0,0,0,.92.318,1.481,1.481,0,0,0,1.17-.568,19.3,19.3,0,0,0,4.166-11.913h3.983V751a1.506,1.506,0,0,0,1.5,1.5,1.506,1.506,0,0,0,1.5-1.5v-15.24h4.127a19.3,19.3,0,0,0,4.166,11.913,1.481,1.481,0,0,0,1.17.568,1.5,1.5,0,0,0,.92-.319,1.49,1.49,0,0,0,.249-2.09,16.354,16.354,0,0,1-3.529-10.072h8.137a1.506,1.506,0,0,0,1.5-1.5A1.507,1.507,0,0,0-936.211,732.745Z" transform="translate(1513.205 -716)" fill="#1d1d1b" stroke="rgba(0,0,0,0)" stroke-width="1"/>
  </g>
</svg>
