<svg xmlns="http://www.w3.org/2000/svg" width="86.633" height="78.07" viewBox="0 0 86.633 78.07">
  <g id="Group_254" data-name="Group 254" transform="translate(13065 -1747)">
    <g id="Rectangle_178" data-name="Rectangle 178" transform="translate(-14009.795 5.035)">
      <rect id="Rectangle_198" data-name="Rectangle 198" width="86.633" height="78.07" transform="translate(944.795 1741.965)"/>
      <rect id="Rectangle_199" data-name="Rectangle 199" width="85.905" height="77.34" transform="translate(945.159 1742.329)"/>
    </g>
    <path id="Icon_awesome-twitter" data-name="Icon awesome-twitter" d="M1118.905,1555.585c.026.356.026.713.026,1.068,0,10.866-8.271,23.385-23.386,23.385a23.226,23.226,0,0,1-12.623-3.689,17.088,17.088,0,0,0,1.985.1,16.458,16.458,0,0,0,10.205-3.511,8.234,8.234,0,0,1-7.687-5.7,10.208,10.208,0,0,0,1.552.127,8.716,8.716,0,0,0,2.163-.279,8.221,8.221,0,0,1-6.59-8.067v-.1a8.286,8.286,0,0,0,3.719,1.047,8.231,8.231,0,0,1-2.547-11,23.362,23.362,0,0,0,16.947,8.6,9.316,9.316,0,0,1-.2-1.883,8.227,8.227,0,0,1,14.225-5.624,16.167,16.167,0,0,0,5.217-1.985,8.2,8.2,0,0,1-3.614,4.53,16.512,16.512,0,0,0,4.734-1.272A17.68,17.68,0,0,1,1118.905,1555.585Z" transform="translate(-14124.658 222.283)" fill="#d48832"/>
  </g>
</svg>
