<svg xmlns="http://www.w3.org/2000/svg" width="86.633" height="78.07" viewBox="0 0 86.633 78.07">
  <g id="Group_258" data-name="Group 258" transform="translate(12963 -1835)">
    <g id="Group_257" data-name="Group 257">
      <g id="Rectangle_178" data-name="Rectangle 178" transform="translate(-13907.795 93.035)">
        <rect id="Rectangle_198" data-name="Rectangle 198" width="86.633" height="78.07" transform="translate(944.795 1741.965)"/>
        <rect id="Rectangle_199" data-name="Rectangle 199" width="85.905" height="77.34" transform="translate(945.159 1742.329)"/>
      </g>
    </g>
    <path id="Icon_awesome-whatsapp" data-name="Icon awesome-whatsapp" d="M48.464,10.533A28.255,28.255,0,0,0,4.008,44.619L0,59.251l14.975-3.932a28.16,28.16,0,0,0,13.5,3.435h.013A28.518,28.518,0,0,0,57,30.509a28.357,28.357,0,0,0-8.537-19.976ZM28.488,54a23.435,23.435,0,0,1-11.96-3.27l-.852-.509L6.794,52.546l2.367-8.665L8.6,42.99A23.523,23.523,0,1,1,52.23,30.509,23.739,23.739,0,0,1,28.488,54ZM41.364,36.412c-.7-.356-4.173-2.061-4.822-2.29s-1.12-.356-1.59.356-1.819,2.29-2.239,2.774-.827.534-1.527.178c-4.148-2.074-6.871-3.7-9.606-8.4-.725-1.247.725-1.158,2.074-3.855a1.308,1.308,0,0,0-.064-1.234c-.178-.356-1.59-3.83-2.176-5.242-.573-1.374-1.158-1.183-1.59-1.209-.407-.025-.878-.025-1.349-.025a2.614,2.614,0,0,0-1.883.878,7.931,7.931,0,0,0-2.468,5.891c0,3.473,2.532,6.832,2.875,7.3s4.975,7.6,12.062,10.662c4.479,1.934,6.234,2.1,8.474,1.769,1.361-.2,4.173-1.7,4.759-3.359a5.9,5.9,0,0,0,.407-3.359C42.534,36.934,42.064,36.756,41.364,36.412Z" transform="translate(-12948 1843.75)" fill="#d48832"/>
  </g>
</svg>
