<svg id="Logo_Hoopers" data-name="Logo Hoopers" xmlns="http://www.w3.org/2000/svg" width="208" height="66.82" viewBox="0 0 208 66.82">
  <g id="Group_193" data-name="Group 193">
    <g id="Group_192" data-name="Group 192" transform="translate(55.365)">
      <path id="Path_81" data-name="Path 81" d="M2070.93,680.475a2.976,2.976,0,0,1,.357,1.578,4.412,4.412,0,0,1-.906,2.966,25.16,25.16,0,0,1-4.5,4.161,8.925,8.925,0,0,1-5.266,1.626,4.621,4.621,0,0,1-3.669-1.411,6.01,6.01,0,0,1-1.24-4.089,29.913,29.913,0,0,1,.667-4.783,24.948,24.948,0,0,0,.62-4.162q0-.764-.524-.765-.62,0-1.763,1.6a23.527,23.527,0,0,0-2.288,4.233,34.481,34.481,0,0,0-1.858,5.548q-.906,3.827-4.479,3.826a1.838,1.838,0,0,1-1.882-1.028,10.329,10.329,0,0,1-.453-3.707q0-1.53.047-2.44l.048-3.827a83.16,83.16,0,0,1,1.5-15.354,46.266,46.266,0,0,1,4.432-13.417q2.931-5.428,7.029-5.429a4.184,4.184,0,0,1,3.55,1.889,8.205,8.205,0,0,1,1.358,4.9,21.016,21.016,0,0,1-2.812,10.021,64.787,64.787,0,0,1-9.149,12.125q-.143,2.487-.143,5.118a27.478,27.478,0,0,1,3.5-6.625,13.692,13.692,0,0,1,3.812-3.659,6.96,6.96,0,0,1,3.455-1.1q3.1,0,3.1,3.109a38.6,38.6,0,0,1-1.048,6.744,33.315,33.315,0,0,0-.905,5.5q0,1.914,1.382,1.913a3.718,3.718,0,0,0,2.264-1.172,38.366,38.366,0,0,0,3.5-3.8,1.672,1.672,0,0,1,1.287-.67A1.1,1.1,0,0,1,2070.93,680.475Zm-17.036-27.67a41.812,41.812,0,0,0-2.025,6.649,88.929,88.929,0,0,0-1.6,9.112,34.266,34.266,0,0,0,4.885-7.605,17.817,17.817,0,0,0,1.93-7.462,6.432,6.432,0,0,0-.334-2.344q-.334-.813-.953-.813Q2054.942,650.342,2053.894,652.8Z" transform="translate(-2043.743 -645.606)" fill="#fff"/>
      <path id="Path_82" data-name="Path 82" d="M2160.074,739.021a3.325,3.325,0,0,1,.333,1.578q0,2.3-1.382,2.726a21.613,21.613,0,0,1-6.291,1.148,11.952,11.952,0,0,1-3.574,6.433,8.774,8.774,0,0,1-6.052,2.416,8.427,8.427,0,0,1-4.885-1.387,8.789,8.789,0,0,1-3.074-3.683,11.822,11.822,0,0,1-1.048-4.974,14.644,14.644,0,0,1,1.382-6.481,10.889,10.889,0,0,1,3.812-4.448,9.578,9.578,0,0,1,5.385-1.6,7.409,7.409,0,0,1,5.838,2.511,10.779,10.779,0,0,1,2.6,6.194,28.785,28.785,0,0,0,5.338-.957,2.8,2.8,0,0,1,.667-.1A1.041,1.041,0,0,1,2160.074,739.021Zm-13.939,7.988a6.922,6.922,0,0,0,1.5-3.587,6.6,6.6,0,0,1-2.264-2.63,7.813,7.813,0,0,1-.786-3.444,8.311,8.311,0,0,1,.143-1.531h-.239a3.738,3.738,0,0,0-3.168,1.842,9.1,9.1,0,0,0-1.263,5.189,6.69,6.69,0,0,0,1.024,4.018,2.955,2.955,0,0,0,2.407,1.387A3.449,3.449,0,0,0,2146.135,747.009Z" transform="translate(-2110.18 -708.122)" fill="#fff"/>
      <path id="Path_83" data-name="Path 83" d="M2244.852,739.021a3.325,3.325,0,0,1,.334,1.578q0,2.3-1.382,2.726a21.613,21.613,0,0,1-6.29,1.148,11.951,11.951,0,0,1-3.574,6.433,8.774,8.774,0,0,1-6.052,2.416,8.428,8.428,0,0,1-4.885-1.387,8.789,8.789,0,0,1-3.073-3.683,11.826,11.826,0,0,1-1.049-4.974,14.648,14.648,0,0,1,1.382-6.481,10.893,10.893,0,0,1,3.812-4.448,9.579,9.579,0,0,1,5.385-1.6,7.409,7.409,0,0,1,5.838,2.511,10.779,10.779,0,0,1,2.6,6.194,28.781,28.781,0,0,0,5.337-.957,2.8,2.8,0,0,1,.667-.1A1.041,1.041,0,0,1,2244.852,739.021Zm-13.939,7.988a6.924,6.924,0,0,0,1.5-3.587,6.591,6.591,0,0,1-2.263-2.63,7.806,7.806,0,0,1-.786-3.444,8.332,8.332,0,0,1,.143-1.531h-.238a3.738,3.738,0,0,0-3.169,1.842,9.1,9.1,0,0,0-1.263,5.189,6.688,6.688,0,0,0,1.025,4.018,2.954,2.954,0,0,0,2.406,1.387A3.45,3.45,0,0,0,2230.913,747.009Z" transform="translate(-2172.513 -708.122)" fill="#fff"/>
      <path id="Path_84" data-name="Path 84" d="M2310.68,742.33a2.978,2.978,0,0,1,.357,1.578,4.411,4.411,0,0,1-.906,2.966,21.1,21.1,0,0,1-4.408,4.161,9.218,9.218,0,0,1-5.361,1.626,5.16,5.16,0,0,1-4.1-1.818,10.56,10.56,0,0,1-5.671,1.818,58.622,58.622,0,0,1-2.812,15.426q-2.192,6.194-6.433,6.194a4.259,4.259,0,0,1-3.812-1.865,9.266,9.266,0,0,1-1.239-5.166,34.335,34.335,0,0,1,2.145-10.929,74.785,74.785,0,0,1,6.624-13.752q0-6.983-.1-9.71a2.451,2.451,0,0,1,1.1-2.2,4.813,4.813,0,0,1,2.859-.813,2.144,2.144,0,0,1,1.453.407,2.271,2.271,0,0,1,.5,1.6q0,1.2.048,1.77a10.894,10.894,0,0,1,3-2.75,6.282,6.282,0,0,1,3.145-.837,5.3,5.3,0,0,1,4.361,2.152,8.877,8.877,0,0,1,1.691,5.644,15.251,15.251,0,0,1-.81,4.927,16.121,16.121,0,0,1-2.24,4.353,6.266,6.266,0,0,0,1.668.287,4.729,4.729,0,0,0,3-1.148,28.965,28.965,0,0,0,3.669-3.826,1.672,1.672,0,0,1,1.287-.67A1.1,1.1,0,0,1,2310.68,742.33Zm-26.806,21.644a117.312,117.312,0,0,0,1.1-13.991,70.608,70.608,0,0,0-3.24,9.136,28.661,28.661,0,0,0-1.191,7.318,6.028,6.028,0,0,0,.358,2.344c.238.542.517.813.833.813Q2283.017,769.594,2283.875,763.974ZM2294,746.18a10.992,10.992,0,0,0,2.311-3.731,12.845,12.845,0,0,0,.858-4.664,3.515,3.515,0,0,0-.572-2.176,1.83,1.83,0,0,0-1.525-.741q-1.715,0-4.146,3.635-.048,2.1-.048,6.17,0,2.2-.047,3.4A6.316,6.316,0,0,0,2294,746.18Z" transform="translate(-2214.729 -707.461)" fill="#fff"/>
      <path id="Path_85" data-name="Path 85" d="M2416.782,743.124a2.978,2.978,0,0,1,.357,1.578,4.412,4.412,0,0,1-.906,2.966,17.426,17.426,0,0,1-4.98,3.97,13.769,13.769,0,0,1-6.886,1.818q-5,0-7.768-2.726a10,10,0,0,1-2.764-7.462,13.88,13.88,0,0,1,1.382-6.146,11.35,11.35,0,0,1,3.836-4.52,9.623,9.623,0,0,1,5.552-1.674,5.715,5.715,0,0,1,6.1,6.122,7.748,7.748,0,0,1-2.359,5.668q-2.359,2.367-7.982,3.755,1.191,2.2,4.527,2.2a10.4,10.4,0,0,0,4.885-1.507,16.145,16.145,0,0,0,4.742-3.946,1.672,1.672,0,0,1,1.287-.67A1.1,1.1,0,0,1,2416.782,743.124Zm-15.965-5.453a9.62,9.62,0,0,0-1.215,4.974v.1a10.811,10.811,0,0,0,4.432-2.009,3.952,3.952,0,0,0,1.62-3.109,2.085,2.085,0,0,0-.5-1.459,1.746,1.746,0,0,0-1.358-.55A3.493,3.493,0,0,0,2400.817,737.671Z" transform="translate(-2301.15 -708.255)" fill="#fff"/>
      <path id="Path_86" data-name="Path 86" d="M2492.178,738.221a2.507,2.507,0,0,1,.739,1.842,3.625,3.625,0,0,1-.286,1.339,8.09,8.09,0,0,1-2.144,2.966,4.556,4.556,0,0,1-3.05,1.2,3.034,3.034,0,0,1-2.264-.957,3.547,3.547,0,0,1-.929-2.583q0-.908.1-1.961a10.291,10.291,0,0,0,.1-1.052.857.857,0,0,0-.167-.574.521.521,0,0,0-.405-.191q-.668,0-1.811,1.6a23.562,23.562,0,0,0-2.288,4.233,34.439,34.439,0,0,0-1.858,5.548,7.593,7.593,0,0,1-1.191,3.061,2.772,2.772,0,0,1-2.192.765,2.6,2.6,0,0,1-2.549-1.913,18.376,18.376,0,0,1-.739-6.122A39.077,39.077,0,0,1,2473,733.606a3.6,3.6,0,0,1,1.406-2.033,4.941,4.941,0,0,1,2.74-.645,2.684,2.684,0,0,1,1.334.239.991.991,0,0,1,.381.909,18.263,18.263,0,0,1-.715,3.444q-.476,1.914-.762,3.348a34.331,34.331,0,0,0-.476,3.539,27.2,27.2,0,0,1,3.527-6.7,14.024,14.024,0,0,1,3.812-3.683,6.775,6.775,0,0,1,3.384-1.1,2.764,2.764,0,0,1,2.121.789,3.28,3.28,0,0,1,.739,2.32,20.953,20.953,0,0,1-.524,3.444h.429A2.433,2.433,0,0,1,2492.178,738.221Z" transform="translate(-2358.057 -708.255)" fill="#fff"/>
      <path id="Path_87" data-name="Path 87" d="M2556.341,751.9a3.38,3.38,0,0,1-1.311-2.583,2.948,2.948,0,0,1,.906-2.152,3.612,3.612,0,0,1,2.669-.909,10.5,10.5,0,0,1,1.453.12c.555.08.977.136,1.263.167a6.18,6.18,0,0,0-.548-2.344,11.752,11.752,0,0,0-1.263-2.129q-.762-1.028-1.43-1.794a31.275,31.275,0,0,1-2.93,4.687,34.947,34.947,0,0,1-3.169,3.54,2.547,2.547,0,0,1-1.811.861,1.561,1.561,0,0,1-1.239-.55,2.01,2.01,0,0,1-.476-1.363,2.734,2.734,0,0,1,.667-1.77l.62-.765a61.737,61.737,0,0,0,3.955-5.357,30.861,30.861,0,0,0,1.739-3.3q.882-1.913,2.312-5.214.9-2.1,3.764-2.1a5,5,0,0,1,1.859.239.8.8,0,0,1,.524.765,3.548,3.548,0,0,1-.191.909,6.943,6.943,0,0,1-.524,1.244,6.845,6.845,0,0,0-.858,2.918,3.191,3.191,0,0,0,.5,1.578,17.849,17.849,0,0,0,1.549,2.152,30.43,30.43,0,0,1,2.311,3.42,6.232,6.232,0,0,1,.786,3.085,8.154,8.154,0,0,1-.929,3.8,7.59,7.59,0,0,1-2.6,2.894,6.77,6.77,0,0,1-3.812,1.1A5.582,5.582,0,0,1,2556.341,751.9Z" transform="translate(-2414.833 -706.8)" fill="#fff"/>
    </g>
    <path id="Path_88" data-name="Path 88" d="M1873.188,698.946h-8.695a18.171,18.171,0,0,1,5.059-9.758,1.653,1.653,0,0,0,0-2.329,1.627,1.627,0,0,0-1.16-.482h0a1.626,1.626,0,0,0-1.159.483,21.443,21.443,0,0,0-6.067,12.086h-4.776v-16.86a1.658,1.658,0,1,0-3.317,0v16.86h-4.617a21.449,21.449,0,0,0-6.067-12.086,1.629,1.629,0,0,0-1.16-.483h0a1.648,1.648,0,0,0-1.159,2.811,18.174,18.174,0,0,1,5.059,9.758h-8.853a1.665,1.665,0,0,0,0,3.329h9.127a18.135,18.135,0,0,1-3.89,11.142,1.646,1.646,0,0,0,1.288,2.665,1.63,1.63,0,0,0,1.29-.628,21.405,21.405,0,0,0,4.592-13.179h4.39v16.86a1.658,1.658,0,1,0,3.317,0v-16.86h4.549a21.4,21.4,0,0,0,4.592,13.179,1.636,1.636,0,0,0,2.3.276,1.652,1.652,0,0,0,.274-2.312,18.136,18.136,0,0,1-3.889-11.142h8.969a1.665,1.665,0,0,0,0-3.329Z" transform="translate(-1834.617 -671.17)" fill="#fff"/>
  </g>
</svg>
