<svg xmlns="http://www.w3.org/2000/svg" viewBox="0 0 169.442 55.128"><defs><style>.cls-1{fill:#fff;}</style></defs><g id="Layer_2" data-name="Layer 2"><g id="Layer_1-2" data-name="Layer 1"><path class="cls-1" d="M77.709,25.079A9.747,9.747,0,0,1,78,27.587v6.137a1.042,1.042,0,0,1-.426.865,1.794,1.794,0,0,1-2.071,0,1.042,1.042,0,0,1-.426-.865V27.587a6.245,6.245,0,0,0-.182-1.8,1.777,1.777,0,0,0-.5-.8,3.128,3.128,0,0,0-2.143-.633,9.82,9.82,0,0,0-1.437.109,8.107,8.107,0,0,0-1.437.354v8.816a1.064,1.064,0,0,1-.426.889,1.8,1.8,0,0,1-2.07,0,1.064,1.064,0,0,1-.426-.889V17.991a1.039,1.039,0,0,1,.426-.864,1.793,1.793,0,0,1,2.07,0,1.039,1.039,0,0,1,.426.864v4.336a9.57,9.57,0,0,1,1.486-.414,7.755,7.755,0,0,1,1.486-.147,6.54,6.54,0,0,1,2.618.439,5.723,5.723,0,0,1,1.522.925A4.034,4.034,0,0,1,77.709,25.079Z"/><path class="cls-1" d="M84.405,33.651a4.8,4.8,0,0,1-1.108-1.29,4.373,4.373,0,0,1-.548-1.632q-.072-.535-.1-1.109t-.024-1.278q0-.706.024-1.279t.1-1.108a4.367,4.367,0,0,1,.548-1.632,4.78,4.78,0,0,1,1.108-1.29,7.2,7.2,0,0,1,8.159,0,4.763,4.763,0,0,1,1.108,1.29,4.367,4.367,0,0,1,.548,1.632,8.3,8.3,0,0,1,.11,1.206q.012.621.012,1.181t-.012,1.181a8.3,8.3,0,0,1-.11,1.206,4.373,4.373,0,0,1-.548,1.632,4.778,4.778,0,0,1-1.108,1.29,7.2,7.2,0,0,1-8.159,0ZM85.647,26.3a7.7,7.7,0,0,0-.085,1.011q-.012.548-.012,1.035t.012,1.035a7.7,7.7,0,0,0,.085,1.011q.292,1.948,2.85,1.948,2.532,0,2.825-1.948c.032-.276.057-.581.073-.914s.024-.71.024-1.132-.008-.8-.024-1.133-.041-.637-.073-.913q-.293-1.948-2.825-1.948Q85.94,24.348,85.647,26.3Z"/><path class="cls-1" d="M100.5,33.651a4.778,4.778,0,0,1-1.108-1.29,4.373,4.373,0,0,1-.548-1.632q-.074-.535-.1-1.109t-.024-1.278q0-.706.024-1.279t.1-1.108a4.367,4.367,0,0,1,.548-1.632,4.763,4.763,0,0,1,1.108-1.29,7.2,7.2,0,0,1,8.158,0,4.767,4.767,0,0,1,1.109,1.29,4.384,4.384,0,0,1,.548,1.632,8.3,8.3,0,0,1,.109,1.206q.012.621.012,1.181t-.012,1.181a8.3,8.3,0,0,1-.109,1.206,4.39,4.39,0,0,1-.548,1.632,4.782,4.782,0,0,1-1.109,1.29,7.2,7.2,0,0,1-8.158,0Zm1.242-7.355a7.691,7.691,0,0,0-.086,1.011q-.011.548-.011,1.035t.011,1.035a7.691,7.691,0,0,0,.086,1.011q.292,1.948,2.849,1.948,2.533,0,2.826-1.948.048-.414.073-.914t.024-1.132q0-.633-.024-1.133c-.017-.332-.041-.637-.073-.913q-.292-1.948-2.826-1.948Q102.037,24.348,101.744,26.3Z"/><path class="cls-1" d="M126.754,27.063q.024.573.024,1.279t-.024,1.278q-.024.573-.1,1.109a4.641,4.641,0,0,1-3.178,3.86,6.806,6.806,0,0,1-2.2.329,8.054,8.054,0,0,1-1.632-.171,12.536,12.536,0,0,1-1.656-.463v3.7a1.031,1.031,0,0,1-.426.877,1.848,1.848,0,0,1-2.07,0,1.031,1.031,0,0,1-.426-.877V28.342q0-.559.012-1.181a8.3,8.3,0,0,1,.11-1.206,4.349,4.349,0,0,1,.548-1.632,4.763,4.763,0,0,1,1.108-1.29,7.2,7.2,0,0,1,8.158,0,4.763,4.763,0,0,1,1.108,1.29,4.349,4.349,0,0,1,.548,1.632Q126.73,26.492,126.754,27.063Zm-2.911,2.314q.014-.547.013-1.035t-.013-1.035a7.53,7.53,0,0,0-.085-1.011q-.292-1.948-2.825-1.948-2.558,0-2.849,1.948c-.033.276-.057.581-.073.913s-.025.711-.025,1.133v3.507a14.281,14.281,0,0,0,1.62.353,9.229,9.229,0,0,0,1.4.134,3.049,3.049,0,0,0,2.009-.536,2.189,2.189,0,0,0,.743-1.412A7.53,7.53,0,0,0,123.843,29.377Z"/><path class="cls-1" d="M141.072,31.313a1.275,1.275,0,0,1,.67.183,1.2,1.2,0,0,1,.475.572,1.625,1.625,0,0,1,.146.633,1.218,1.218,0,0,1-.828,1.169,11.346,11.346,0,0,1-4.5,1.048,6.322,6.322,0,0,1-4.116-1.267,4.981,4.981,0,0,1-1.084-1.29,4.373,4.373,0,0,1-.548-1.632,10.873,10.873,0,0,1-.1-1.1q-.025-.585-.025-1.291t.025-1.291a10.873,10.873,0,0,1,.1-1.1,4.367,4.367,0,0,1,.548-1.632,4.965,4.965,0,0,1,1.084-1.29,7.279,7.279,0,0,1,8.207,0,4.965,4.965,0,0,1,1.084,1.29,4.367,4.367,0,0,1,.548,1.632q.024.2.036.366c.008.113.012.227.012.341a2.481,2.481,0,0,1-.888,2.082,3.971,3.971,0,0,1-2.5.694h-5.309a6.324,6.324,0,0,0,.073.974,1.987,1.987,0,0,0,.84,1.474,3.708,3.708,0,0,0,2.01.45,5.876,5.876,0,0,0,1.51-.207,11.389,11.389,0,0,0,1.7-.621A2.171,2.171,0,0,1,141.072,31.313Zm-6.892-5.041c-.032.227-.057.471-.073.731h5.5a.255.255,0,0,0,.219-.1.731.731,0,0,0,.049-.134,1.011,1.011,0,0,0,.024-.255.567.567,0,0,0-.012-.11.7.7,0,0,1-.012-.134,2.1,2.1,0,0,0-.865-1.461,3.37,3.37,0,0,0-1.984-.512Q134.472,24.3,134.18,26.272Z"/><path class="cls-1" d="M147.853,34.516a1.064,1.064,0,0,1-.426-.889V28.391q0-.706.024-1.3t.1-1.133a4.532,4.532,0,0,1,1.753-3.081,6.3,6.3,0,0,1,3.9-1.108,9.882,9.882,0,0,1,1.376.1,5.918,5.918,0,0,1,1.327.341,1.148,1.148,0,0,1,.828,1.144,1.578,1.578,0,0,1-.122.561,1.2,1.2,0,0,1-1.168.876,1.591,1.591,0,0,1-.658-.121l-.743-.2a3.958,3.958,0,0,0-.986-.122,3.052,3.052,0,0,0-1.839.463,2.126,2.126,0,0,0-.767,1.485,6.92,6.92,0,0,0-.085.987c-.008.365-.013.734-.013,1.108v5.236a1.064,1.064,0,0,1-.426.889,1.8,1.8,0,0,1-2.07,0Z"/><path class="cls-1" d="M162.343,34.723q-1.059-.195-2.082-.487a1.673,1.673,0,0,1-.768-.451,1.127,1.127,0,0,1-.28-.792v-.157a.723.723,0,0,1,.025-.183,1.2,1.2,0,0,1,1.266-1.047,2.82,2.82,0,0,1,.56.072l1.51.439a6.041,6.041,0,0,0,1.754.244q2.215,0,2.216-1.218a.929.929,0,0,0-.5-.768,5.952,5.952,0,0,0-1.961-.6,12.643,12.643,0,0,1-1.96-.5,4.824,4.824,0,0,1-1.474-.8,3.27,3.27,0,0,1-.925-1.206,4.078,4.078,0,0,1-.317-1.68,3.813,3.813,0,0,1,.268-1.376,3.085,3.085,0,0,1,.889-1.23,4.887,4.887,0,0,1,1.595-.876,7.347,7.347,0,0,1,2.411-.342,12.922,12.922,0,0,1,1.669.1,14.769,14.769,0,0,1,1.473.268,1.349,1.349,0,0,1,.828.475,1.308,1.308,0,0,1,.268.815,1.6,1.6,0,0,1-.012.2c-.008.065-.02.138-.037.219a1.3,1.3,0,0,1-.45.731,1.24,1.24,0,0,1-.743.219,2.214,2.214,0,0,1-.536-.073q-.731-.169-1.388-.28a7.465,7.465,0,0,0-1.218-.11q-2.094,0-2.094,1.169a.871.871,0,0,0,.5.816,3.841,3.841,0,0,0,.755.3,9.768,9.768,0,0,0,1.181.268,12.631,12.631,0,0,1,2.216.633,4.823,4.823,0,0,1,1.449.865,2.816,2.816,0,0,1,.78,1.144,4.277,4.277,0,0,1,.231,1.449A3.44,3.44,0,0,1,168.1,33.8a5.721,5.721,0,0,1-3.775,1.121A11,11,0,0,1,162.343,34.723Z"/><path class="cls-1" d="M52.855,25.291H40.941A24.776,24.776,0,0,1,47.873,11.97a2.248,2.248,0,0,0-1.589-3.838h0a2.237,2.237,0,0,0-1.589.659,29.242,29.242,0,0,0-8.315,16.5H29.837V2.273a2.273,2.273,0,0,0-4.546,0V25.291H18.965a29.247,29.247,0,0,0-8.314-16.5,2.241,2.241,0,0,0-1.59-.659h0A2.248,2.248,0,0,0,7.472,11.97,24.776,24.776,0,0,1,14.4,25.291H2.273a2.273,2.273,0,0,0,0,4.546H14.78A24.7,24.7,0,0,1,9.45,45.049a2.248,2.248,0,0,0,3.533,2.781,29.158,29.158,0,0,0,6.292-17.993h6.016V52.855a2.273,2.273,0,1,0,4.546,0V29.837H36.07A29.16,29.16,0,0,0,42.362,47.83a2.237,2.237,0,0,0,1.768.857A2.247,2.247,0,0,0,45.9,45.049a24.7,24.7,0,0,1-5.33-15.212h12.29a2.273,2.273,0,1,0,0-4.546Z"/></g></g></svg>