<svg xmlns="http://www.w3.org/2000/svg" viewBox="0 0 135 40"><defs><style>.cls-1{fill:#b6b6b6;}.cls-2{fill:#fff;}</style></defs><g id="Layer_2" data-name="Layer 2"><g id="artwork"><path class="cls-1" d="M124.25,0H8.48A17.21,17.21,0,0,0,6.22.19,8.36,8.36,0,0,0,4.08.82,7,7,0,0,0,2.25,2,6.43,6.43,0,0,0,.92,3.62a6.06,6.06,0,0,0-.7,1.9,11.21,11.21,0,0,0-.2,2c0,.31,0,.62,0,.92V31.56c0,.31,0,.61,0,.92a11.21,11.21,0,0,0,.2,2,6.11,6.11,0,0,0,.7,1.91A6.56,6.56,0,0,0,2.25,38a7,7,0,0,0,1.83,1.18,8.36,8.36,0,0,0,2.14.63A17.21,17.21,0,0,0,8.48,40h118a16.94,16.94,0,0,0,2.26-.18,8.44,8.44,0,0,0,2.15-.63A7,7,0,0,0,132.75,38a6.79,6.79,0,0,0,1.33-1.61,6.37,6.37,0,0,0,.7-1.91,12.23,12.23,0,0,0,.21-2v-.92c0-.36,0-.73,0-1.1V9.54c0-.37,0-.73,0-1.1V7.52a12.23,12.23,0,0,0-.21-2,6.32,6.32,0,0,0-.7-1.9A6.65,6.65,0,0,0,132.75,2,7,7,0,0,0,130.92.82a8.44,8.44,0,0,0-2.15-.63A16.94,16.94,0,0,0,126.51,0h-2.26Z"/><path d="M9.53,39.12h-1A14.61,14.61,0,0,1,6.4,39a7.15,7.15,0,0,1-1.87-.55,6,6,0,0,1-1.58-1A5.69,5.69,0,0,1,1.8,36a5.31,5.31,0,0,1-.61-1.66A11.27,11.27,0,0,1,1,32.46c0-.21,0-.92,0-.92V8.44s0-.69,0-.89a11.17,11.17,0,0,1,.19-1.87A5.22,5.22,0,0,1,1.8,4,5.35,5.35,0,0,1,3,2.62a5.79,5.79,0,0,1,1.58-1,7,7,0,0,1,1.86-.55A15.51,15.51,0,0,1,8.51.89h118a15,15,0,0,1,2.09.16,7.26,7.26,0,0,1,1.89.55,6.12,6.12,0,0,1,1.57,1A5.56,5.56,0,0,1,133.2,4a5.45,5.45,0,0,1,.61,1.65A11.2,11.2,0,0,1,134,7.55c0,.29,0,.59,0,.89s0,.74,0,1.1V30.46c0,.37,0,.72,0,1.08s0,.62,0,.93a10.75,10.75,0,0,1-.19,1.85A5.37,5.37,0,0,1,133.2,36a5.47,5.47,0,0,1-1.15,1.39,5.89,5.89,0,0,1-1.57,1,7,7,0,0,1-1.89.55,14.41,14.41,0,0,1-2.11.16H9.53Z"/><path class="cls-2" d="M32.44,20.3a4.94,4.94,0,0,1,2.35-4.15,5.07,5.07,0,0,0-4-2.16c-1.68-.18-3.3,1-4.16,1S24.45,14,23,14a5.3,5.3,0,0,0-4.47,2.73c-1.94,3.34-.49,8.26,1.36,11,.93,1.33,2,2.81,3.43,2.75s1.9-.88,3.58-.88,2.14.88,3.59.85,2.42-1.33,3.32-2.67a11.09,11.09,0,0,0,1.52-3.09A4.77,4.77,0,0,1,32.44,20.3Z"/><path class="cls-2" d="M29.71,12.21a4.89,4.89,0,0,0,1.11-3.49,5,5,0,0,0-3.21,1.66,4.61,4.61,0,0,0-1.14,3.36A4.11,4.11,0,0,0,29.71,12.21Z"/><path class="cls-2" d="M50,27.14H45.24L44.1,30.5h-2l4.48-12.42h2.08L53.15,30.5h-2Zm-4.24-1.55h3.75l-1.85-5.45h-.05Z"/><path class="cls-2" d="M62.83,26c0,2.81-1.51,4.62-3.78,4.62A3.08,3.08,0,0,1,56.2,29h0v4.48H54.3v-12h1.8V23h0A3.22,3.22,0,0,1,59,21.35C61.31,21.35,62.83,23.16,62.83,26Zm-1.91,0c0-1.83-1-3-2.4-3s-2.37,1.23-2.37,3S57.1,29,58.52,29,60.92,27.82,60.92,26Z"/><path class="cls-2" d="M72.79,26c0,2.81-1.5,4.62-3.78,4.62A3.06,3.06,0,0,1,66.17,29h0v4.48H64.26v-12h1.8V23h0A3.21,3.21,0,0,1,69,21.35C71.28,21.35,72.79,23.16,72.79,26Zm-1.91,0c0-1.83-.94-3-2.39-3s-2.38,1.23-2.38,3,1,3.05,2.38,3.05S70.88,27.82,70.88,26Z"/><path class="cls-2" d="M79.38,27c.14,1.23,1.33,2,3,2S85,28.27,85,27.16s-.68-1.54-2.29-1.94l-1.61-.39c-2.28-.55-3.34-1.61-3.34-3.34,0-2.15,1.87-3.62,4.52-3.62s4.42,1.47,4.49,3.62H84.93c-.11-1.24-1.14-2-2.63-2s-2.53.75-2.53,1.86c0,.87.66,1.39,2.26,1.79l1.37.33c2.54.6,3.6,1.63,3.6,3.44,0,2.33-1.85,3.78-4.79,3.78-2.75,0-4.61-1.42-4.73-3.66Z"/><path class="cls-2" d="M91,19.3v2.14h1.73v1.47H91v5c0,.77.35,1.13,1.11,1.13a5,5,0,0,0,.61,0v1.46a5.25,5.25,0,0,1-1,.09c-1.83,0-2.54-.69-2.54-2.45V22.91H87.83V21.44h1.32V19.3Z"/><path class="cls-2" d="M93.73,26c0-2.85,1.68-4.64,4.3-4.64s4.29,1.79,4.29,4.64-1.66,4.64-4.29,4.64S93.73,28.83,93.73,26Zm6.7,0c0-1.95-.9-3.11-2.4-3.11S95.63,24,95.63,26s.89,3.11,2.4,3.11S100.43,27.93,100.43,26Z"/><path class="cls-2" d="M103.85,21.44h1.78V23h0a2.16,2.16,0,0,1,2.18-1.63,2.49,2.49,0,0,1,.63.07v1.74a2.27,2.27,0,0,0-.83-.12,1.88,1.88,0,0,0-1.94,2.09V30.5h-1.86Z"/><path class="cls-2" d="M117.05,27.84c-.25,1.64-1.85,2.77-3.9,2.77-2.63,0-4.26-1.77-4.26-4.6s1.64-4.68,4.19-4.68,4.08,1.72,4.08,4.47v.63h-6.4v.12a2.36,2.36,0,0,0,2.44,2.56,2.05,2.05,0,0,0,2.09-1.27Zm-6.28-2.71h4.53a2.18,2.18,0,0,0-2.22-2.29A2.29,2.29,0,0,0,110.77,25.13Z"/><path class="cls-2" d="M45.49,8.73a2.64,2.64,0,0,1,2.81,3c0,1.9-1,3-2.81,3H43.34v-6Zm-1.22,5.12h1.12a1.87,1.87,0,0,0,2-2.14,1.88,1.88,0,0,0-2-2.14H44.27Z"/><path class="cls-2" d="M49.35,12.44a2.13,2.13,0,1,1,4.25,0,2.13,2.13,0,1,1-4.25,0Zm3.33,0c0-1-.44-1.54-1.21-1.54s-1.2.57-1.2,1.54S50.7,14,51.47,14,52.68,13.42,52.68,12.44Z"/><path class="cls-2" d="M59.24,14.7h-.92l-.93-3.32h-.07l-.93,3.32h-.91l-1.24-4.51h.9L56,13.63H56l.93-3.44h.85l.93,3.44h.07l.8-3.44h.89Z"/><path class="cls-2" d="M61.52,10.19h.86v.72h.06a1.36,1.36,0,0,1,1.35-.8,1.46,1.46,0,0,1,1.56,1.67V14.7h-.89V12c0-.73-.32-1.09-1-1.09a1,1,0,0,0-1.08,1.14V14.7h-.89Z"/><path class="cls-2" d="M66.76,8.44h.89V14.7h-.89Z"/><path class="cls-2" d="M68.89,12.44a2.13,2.13,0,1,1,4.24,0,2.13,2.13,0,1,1-4.24,0Zm3.33,0c0-1-.44-1.54-1.21-1.54s-1.21.57-1.21,1.54S70.24,14,71,14,72.22,13.42,72.22,12.44Z"/><path class="cls-2" d="M74.07,13.42c0-.81.6-1.27,1.67-1.34L77,12v-.39c0-.47-.31-.74-.92-.74s-.84.18-.94.5h-.86c.09-.78.82-1.27,1.84-1.27s1.77.56,1.77,1.51V14.7H77v-.64h-.07a1.5,1.5,0,0,1-1.35.71A1.36,1.36,0,0,1,74.07,13.42ZM77,13v-.38l-1.1.07c-.62,0-.9.26-.9.65s.35.64.84.64A1.05,1.05,0,0,0,77,13Z"/><path class="cls-2" d="M79,12.44c0-1.42.73-2.32,1.87-2.32a1.49,1.49,0,0,1,1.38.79h.06V8.44h.89V14.7h-.85V14H82.3a1.56,1.56,0,0,1-1.41.78C79.74,14.77,79,13.87,79,12.44Zm.91,0c0,1,.45,1.53,1.21,1.53s1.21-.58,1.21-1.52-.47-1.53-1.21-1.53S79.93,11.5,79.93,12.44Z"/><path class="cls-2" d="M86.9,12.44a2.13,2.13,0,1,1,4.25,0,2.13,2.13,0,1,1-4.25,0Zm3.33,0c0-1-.44-1.54-1.21-1.54s-1.2.57-1.2,1.54S88.25,14,89,14,90.23,13.42,90.23,12.44Z"/><path class="cls-2" d="M92.34,10.19h.85v.72h.07a1.35,1.35,0,0,1,1.34-.8,1.46,1.46,0,0,1,1.56,1.67V14.7h-.89V12c0-.73-.31-1.09-1-1.09a1,1,0,0,0-1.07,1.14V14.7h-.89Z"/><path class="cls-2" d="M101.18,9.07v1.15h1V11h-1v2.32c0,.47.2.68.64.68l.34,0v.74a3.58,3.58,0,0,1-.48,0c-1,0-1.39-.34-1.39-1.21V11h-.71v-.74h.71V9.07Z"/><path class="cls-2" d="M103.37,8.44h.88v2.48h.07a1.39,1.39,0,0,1,1.38-.81,1.48,1.48,0,0,1,1.55,1.68V14.7h-.89V12c0-.72-.34-1.08-1-1.08a1.06,1.06,0,0,0-1.14,1.14V14.7h-.89Z"/><path class="cls-2" d="M112.43,13.48a1.82,1.82,0,0,1-2,1.3,2,2,0,0,1-2.08-2.32,2.07,2.07,0,0,1,2.07-2.35c1.26,0,2,.85,2,2.27v.31H109.3v.05A1.19,1.19,0,0,0,110.5,14a1.08,1.08,0,0,0,1.07-.55ZM109.3,12h2.28a1.09,1.09,0,0,0-1.11-1.17A1.16,1.16,0,0,0,109.3,12Z"/></g></g></svg>