<svg id="Layer_1" data-name="Layer 1" xmlns="http://www.w3.org/2000/svg" viewBox="0 0 200 200"><defs><style>.cls-1{fill:#1d1e1d;}.cls-2{fill:#fff;}</style></defs><rect class="cls-1" width="200" height="200"/><path class="cls-2" d="M165.579,94.005H134.685a65.752,65.752,0,0,1,17.976-35.14,6.011,6.011,0,0,0,0-8.386,5.746,5.746,0,0,0-4.121-1.735h0a5.739,5.739,0,0,0-4.12,1.738A77.614,77.614,0,0,0,122.86,94.005H105.893V33.287a5.894,5.894,0,1,0-11.786,0V94.005H77.7A77.619,77.619,0,0,0,56.145,50.482a5.741,5.741,0,0,0-4.121-1.738h0A5.743,5.743,0,0,0,47.9,50.48a6,6,0,0,0,0,8.385,65.752,65.752,0,0,1,17.976,35.14H34.421a6,6,0,0,0,0,11.99h32.43a65.86,65.86,0,0,1-13.82,40.127,6.008,6.008,0,0,0,.976,8.329,5.762,5.762,0,0,0,8.184-1A77.74,77.74,0,0,0,78.508,106h15.6v60.718a5.894,5.894,0,1,0,11.786,0V106h16.162a77.742,77.742,0,0,0,16.316,47.461,5.76,5.76,0,0,0,8.185.993,6.005,6.005,0,0,0,.975-8.327A65.866,65.866,0,0,1,133.712,106h31.867a6,6,0,0,0,0-11.99Z"/></svg>