<svg xmlns="http://www.w3.org/2000/svg" viewBox="0 0 575.92 372.46"><defs><style>.cls-1{fill:#fff;}</style></defs><g id="Layer_2" data-name="Layer 2"><g id="Layer_1-2" data-name="Layer 1"><path class="cls-1" d="M100.5,94c-1.07.43-1.5,1.49-1.07,3-1.71.42-1.28-1.28-2.13-1.28C96,95.5,96.23,97,95.38,97a10.19,10.19,0,0,0-3.2,1.49,3.5,3.5,0,0,0-1.92,2.77c-2.77,0-3.2,2.14-5.76,1.92-.85,0-.21,1.28-.64,1.28-.43.43-1.49-.21-1.92,0-.43.43-.43,1.07-.85,1.5,0,.21-1.07,0-1.07,0-.21.21,0,.85,0,.85-.21,0-1.07-.43-1.28,0v.42c-.43.43-1.07,0-1.07,0-.64,1.07-.64,1.28-1.49,1.71-.21.21-1.92.43-2.13.85v.43c-.22.21-1.07,0-1.07,0a10.79,10.79,0,0,1-2.77,2.35c-.22.21.21.42-.64.42s-1.28,1.5-2.35,1.5c-1.49.21-3.2,2.13-4.48,3.41a9.31,9.31,0,0,0-2.13,1.49c-.64.22-.85,1.07-1.49,1.28,0,0-1.07-.21-1.07,0-.21.43-.43,1.5-.85,1.71-.22.21-1.07.21-1.5.43-.42.42-.64,1.49-.85,1.49a9.8,9.8,0,0,0-2.56,1.28,9,9,0,0,0-.43,1.49c-.85.43-1.7.43-2.55,1.28-.86.64-1.07,1.71-1.71,2.35-.43.21-1.28,0-1.92.42-.85.86-1.28,2.56-2.35,3.84-1.06.86-2.34,1.07-3.41,1.92-2.77,2.78-5.33,6.4-8.11,9.6-.63.64-1.7.85-1.91,1.71-.64.42-.43,1.28-.86,1.92-.85,1.06-2.34,1.7-3.2,2.77-.21.21.43,1.28,0,1.28-.21.43-1.06.64-1.28.85-.21.64,0,1.5-.64,1.92-.21.64-1.28.86-2.13,1.5-.21.85-.21,1.28-.43,2.13a12,12,0,0,0-1.92,3.62c.86,2.14,3.2,1.28,5.12,2.14.86.21,3,.85,5.34,1.28a5.41,5.41,0,0,1,1.91,0c.43,0,.43.64,1.07.64a25.92,25.92,0,0,0,4,0c1.71.21,4.48.64,7.68.85,2.35,0,6.4.21,10.24.64,2.13.21,5.55.43,9,.64a65.87,65.87,0,0,1,10.24,1.49c.64,0,2.34-.64,2.77,0,.43.43.85.43,1.92.43H80c.64.85,1.92,0,2.56.85v.64c2.13.86,3.84.86,5.76,1.5.21.42-.22.64.85.85.85,0,.85,1.07,1.92,1.49.85,0,1.49,1.28,2.35,2.35A9.3,9.3,0,0,0,95,181.46c0,.21-.21,1.28,0,1.28,1.28,1.49,2.35,4.48,3.63,7.25a7.14,7.14,0,0,0,.85,2.14c0,.21,1.07,1.06,1.07,1.49a10.44,10.44,0,0,1,0,2.56c.21,2.56.42,3.41-1.07,7.25-.64.43-2.13,1.71-2.13,2.77-.22,1.07-4.27,4.91-5.76,6-1.28,1.06-3.2,3-5.12,4.48-.64.21,0,.42-.85.85-.86,0-.86,1.06-1.71,1.28-1.07,0-2.13,1.06-3.2,1.92-.21.21-.85.21-1.49.64,0,.21-.22.85-.43.85-.85.43-1.71.21-2.56.43-.21.21-1.07,1.49-1.49,1.49-.86.43-1.5.21-2.56.64-.22.43,0,.64-.64.64a3.33,3.33,0,0,1-1.28.85c-2.77,1.5-5.55,2.78-9,4.27-.43.43-.85.43-1.28.64a3.8,3.8,0,0,1-1.92.85c-.85.22-3.84,1.28-5.76,1.92-.21.22,0,.86-.43.86H51a26.51,26.51,0,0,1-2.77.42,6,6,0,0,1-2.56.86c-.43.42-1.28.42-2.35.64-2.34.85-8.1,1.7-11.09.85-2.77-.85-4.26-3.41-6.82-5.12.42-.64-.86-1.07-.86-1.28s1.07-.85.86-1.49a44.41,44.41,0,0,0-4.06-2.78c-.42,0,0-.64-.64-.64-1.28,0-.42-1.92-1.28-2.77a4.86,4.86,0,0,1-1.92-2.13c.43-1.28,1.5-1.92,1.92-3.41,2.78-.43,3.2,1.49,5.12,1.49A137.34,137.34,0,0,0,44.61,213a9.59,9.59,0,0,1,2.56-1.28c1.07-.64,1.71,0,3.2-.85a9.55,9.55,0,0,0,1.49-1.5h1.07l1.92-.42c.43-.64.43-.64,1.28-.86.64,0,1.49-.85,2.56-1.49,1.07-.43,2.77-.85,4.05-1.28a8.57,8.57,0,0,0,1.07-1.49,15.36,15.36,0,0,0,1.92-.43c1.49-.85,2.35-.85,3.41-1.49.21-.22.85-1.5,1.07-1.5.85-.63,1.28-.21,1.92-.85.64-.21,1.06-1.06,1.28-1.28a6.44,6.44,0,0,1,2.34-.64c.22-.21.64-1.06,1.07-1.49,1.07-.64,3-1.28,3.84-3.41-1.07-1.28-3-.64-4.48-.64-4.27,0-9.38.21-14.5,0-.86,0-1.92-.64-3-.86-5.76-.42-10.24.22-14.08,0a81.59,81.59,0,0,1-14.29-1.92c-1.92-.42-3-.85-4.48-1.28-.21-.64,0-.85-.42-1.06a9.11,9.11,0,0,1-3.63-1.5c-.21,0,.43-.42-.43-.42S19,183.17,18,182.31a39.47,39.47,0,0,1-5.54-6.18c-.43-.85-.86-1.49-1.28-2.35-1.07-1.06-3.2-1.7-4.7-2.77a8.75,8.75,0,0,1-1.06-1.92c-.64-.64-1.71-.85-1.92-1.49-.22-.22,0-1.28,0-1.28-.22-.22-1.5-.64-1.5-.86-.21-.42.43-1.28,0-1.92,0-.21-.42-.21-.42-.85-.22-.21,0-.85,0-1.28a12,12,0,0,1-.64-3.62c-.22-1.92-1.07-5.55-.86-9.18.43-1.49.86-3.2,1.5-4.9a20.18,20.18,0,0,1,1.06-4.91c.22-.21.86.22.86-.42,0-.43.21-1.28.64-1.5a7.36,7.36,0,0,1,1.28-1.28c.21-.85.21-1.7.64-2.13A2.71,2.71,0,0,1,7.07,132a9.69,9.69,0,0,1,1.28-2.14c1.07-1.06,2.14-3,3.63-4.69.21-.64,1.28-.85,1.7-1.49.43-.43.22-1.49.64-2.13a70.52,70.52,0,0,1,5.55-5.76,38.85,38.85,0,0,1,3-2.78,38.59,38.59,0,0,0,3-2.77c1.5-1.28,2.78-2.56,4.48-4.26,1.71-1.5,4.27-3,6.61-4.7.86-.85,1.92-1.06,3-2.34.64-.22,1.07-1.07,1.49-1.28s.86-.22,1.28-.64a10.49,10.49,0,0,1,.64-.86c.43-.21,1.28-.21,1.92-.42A11.29,11.29,0,0,0,46.32,94c.64-.21,1.71-1.28,3-1.28a4.67,4.67,0,0,1,1.06-.64c.64-.43,1.07-1.28,1.49-1.28,1.07-.85,2.56-.85,3.84-1.49.22-.22.22-1.28.43-1.28.43-.21.85,0,1.07,0,.64-.21,1.28-1.49,1.49-1.49,1.28-.64,2.56-.64,4.05-1.28.22-.22,0-.86.64-.86.22,0,.64-.42,1.28-.42a5.36,5.36,0,0,1,1.92-.86,9.78,9.78,0,0,1,1.07-1.49A17.46,17.46,0,0,1,69.57,81a47.41,47.41,0,0,1,8.1-3.63,20.23,20.23,0,0,1,3-1.49c1.28-.21,2.13-.85,3.84-1.28A20.91,20.91,0,0,0,87.06,74a51.05,51.05,0,0,1,9.6-2.77c.42-.22,1.06,0,1.28,0,.85-.22,1.49-.43,3-.86,5.34-.42,14.93-1.27,20.91-.42a26.61,26.61,0,0,1,3.83.42c2.35.64,4.7,1.5,7.26,2.35,1.28.21,2.34,1.07,3.84,1.28a12.18,12.18,0,0,1,3.41,1.49c.64,0,0,.43.85.43.64,0,1.71,1.07,2.14,1.49,4.05,2.78,7.25,8.11,10,13.44a3.59,3.59,0,0,1,1.28,1.28s-.21,1.28,0,1.28c0,.21.64,0,.64,0,.43.21-.21,1.49,0,1.49,0,.22.85,0,.85,0,.22.22,0,1.28,0,1.28.86.86,1.28,2.35,1.92,3.63.22.43,0,1.07,0,1.49h.86c0,.22-.43,1.07,0,1.28,1.28,1.5,1.49,9.39.42,12.59,0,.42-.42,0-.42.64a8.3,8.3,0,0,1-.86,2.77c-.85.85-.85,1.28-1.92,3-1.7,2.56-4.69,6-6.4,9.59-.85.86-2.34.64-3.2,1.5-1.28.85-1.92,2.13-3.19,3a10.05,10.05,0,0,0-1.5,1.28,14.08,14.08,0,0,1-3,1.92c-1.07.86-2.56.64-3.84,1.5-.43.21-1.28,1.28-1.5,1.28a13.58,13.58,0,0,1-5.12.85c-1.92.64-2.77,2.13-5.33,1.92,0-1.07-1.92-.21-2.34-1.28-.86-2.56,1.49-3.41,2.34-4.69.43-.43,0-1.28,0-1.5a81.33,81.33,0,0,0,6.61-6.18c1.07-1.28,2.56-2.56,3.42-3.63.21-.64.21-1.49.42-1.92s1.07-.64,1.5-.85c.42-.85.42-2.56,1.06-3.63a8.12,8.12,0,0,1,1.28-1.28,7.25,7.25,0,0,0,.64-1.49,55.12,55.12,0,0,0,5.34-9,26.07,26.07,0,0,0,2.55-13.22c-1.28-2.35-4.26-3-7-3.63-5.12-1.28-16.21-1.28-22.61,0-.86,0-1.28.43-2.14.64,0,0-1.06-.21-1.06,0-1.28,1.07-.86,0-1.92,0,0,0-.43.64-.64.64-.86.21-3.42,1.49-4.48.64-.21-2.35,3.62-.21,3.62-2.77.22-1.92-2.56,2.13-1.92-1.28,2.14-.64,2.56.64,3.42,1.28.64-.22,0-1.07-.64-1.28.21-.86,1.06-1.28,2.56-1.28.21-1.49,1.06.21,1.92,0,.21-.43.21-1.28,1.28-1.49-.22,0,.42.85.85.85a8.08,8.08,0,0,0,2.35-1.49c-.43-.64-3.2-.64-5.34,0-.21-3,4.7-.22,5.34-2.14-.64-2.77-3.42-3.2-6.4-2.77-1.71.21-2.78,2.56-3.42.85-.42,0-.21.64,0,.64-.21,2.35-1.92-.64-2.56,2.14-1.27-.22,0-3-1.91-2.78-1.5,0-1.28,2.14.85,1.92-.43,2.14-4,1.07-5.33,2.14.21-1.07,1.06-1.07,1.28-2.14-1.71-.21-2.35,0-3.2.86-1.92.64,1.49.85.85,2.77-2.35-.64-2.56,1.06-4.48.64-2.56.42-.21,2.34-1.49,3.41-1.92.64-3.84,1.28-6,1.92-.22,0,0,.85-.43.85-1.71.22-1.92,1.71-4.48,1.28-.21-2.34,2.56-1.06,3.84-2.13a1.55,1.55,0,0,1,.64-.64,6.33,6.33,0,0,0,2.13-2.13c-3.41,1.28-4.9,3.84-9.17,3.62-.85,0-1.07,1.28-1.28,1.28-.64.64-.43-.42-.64-.42-.85-.22-2.13,1.92-3.41,3.2,3.2.42,3.41-2.14,6.4-1.92a2.41,2.41,0,0,1-2.35,1.49c.85.85.21,1.07,0,1.92.21,1.07,1.07-.64,1.28.85.64-.42.85-.85,1.92-.85.85-.21,0-1.49,0-1.49.43-.43,1.07-.22,1.07-1.28,1.28,0,3.41.85,2.56-1.5,1.06.86,2.13,1.5,1.92,3.63.85-.85,2.13-1.07,2.77-2.13.21-1.92-1.92,1.92-1.92-.64,1.7-1.07-.22,0-1.28,0,0-1.5,2.56-1.07,2.56-3,1.06,1.07.85,3.63,2.56,3.63.21-.64,0-1.07-.64-1.5.85-1.28,2.77,1.5,3.41-2.13a18.62,18.62,0,0,0,6-1.28s.43-1.07.86-.64c1.28,1.71,2.56-1.49,5.11-1.28C106.68,93.8,102,92.52,100.5,94Z"/><path class="cls-1" d="M157.66,190.21c-.43-1.07-.64,0-1.71,0-.43,1.92-2.34,3.41-3.62,4.9s-2.35,2.35-3.2,4.27c-.22.43-.64,0-.64.64,0,1.06-3.42,3.84-4.48,5.12a9.54,9.54,0,0,1-2.14,2.77l-1.7,1.92c-.43.43-.22,1.49-.64,1.92-.43,1.07-1.92,2.13-3,3.41-2.13,2.35-4,4.05-6.18,6.4-8.11,10.45-23-2.56-22.4-13a23,23,0,0,0,.64-2.56c0-1.49-.64-2.77-.64-4.05.64-7.25,3.84-16.43,7.47-25,3.62-8.32,8.53-18.34,14.07-17.91,2.35.21,3.2,1.7,4.48,3.41s4.48,4.26,5.12,7.68l-3.2,4.69-1.92,3.2c-.21.43-1.92,3-1.92,3.84a3.12,3.12,0,0,1-.64,1.49c-1.06,2.35-2.13,4.91-3.2,7.47-11.09,29.43,0,21.75,13.87,3.2,3.62-4.48,11.52-19.2,15.57-20.91.42-.42,1.28-.21,1.7-.64,1.07-1.06,1.5-2.13,2.56-3a12.14,12.14,0,0,1,1.71-1.07c.85-.85,2.56-3,5.12-2.77.85,1.49,1.49,1.28.64,3.41,1.07-1.28,1.71-.43,2.56.43.21.21-.21,1.06,0,1.49a4.25,4.25,0,0,1,2.13,2.77c0,1.07-1.7,5.34-2.13,7-.21,1.28-.85,2.35-1.28,4.27-.21,1.28-1.07,2.13-1.28,3.84l-1.28,3.84a27.74,27.74,0,0,0-2.13,7.67h.21c-.21,1.28-2.13,8.11-2.13,9.18,1.06,0,2.34-1.07,3.41-1.71.64,0,0-.43.85-.43.64,0,3-2.13,3.84-2.77,1.07-.85,1.92-2.35,3-3,1.7-1.28,3.41-2.13,5.54-3.83,1.28-1.07,4.06-4.7,5.55-6.4l3-3c.85-1.07,1.49-3,3.62-3,1.49-.21,1.49,1.5,2.13,1.92.43.86,1.5,1.28,1.28,2.56.64,1.28-.85.86-.85,2.14-.21.85-3,2.56-3,3.62,0,.64-1.27.86-2.13,1.92-.21,0,.22.64,0,.64a14,14,0,0,0-3.41,2.35c-.43.64-.21,1.28-.64,1.49L182.19,206a86.79,86.79,0,0,1-7.68,6.4c-.22.43-.22.43-.85.85-1.71,1.07-4.91,6.19-8.75,6-1.92,0-3.63-2.13-5.12-3-.21-.43.21-1.07,0-1.28s-1.28-.21-1.92-.43c-.43-.42-1.49-3.84-2.35-3.84-.85-1.49-.42-4.69-.63-7.68A30.27,30.27,0,0,1,157.66,190.21Zm-12.37,6.4c.85.64-4.27,3-1.92,4,1.28-1.71,2.34-3.84,4.48-4.69-.22-1.28.85-1.71,0-1.92-.86,1.06-2.14,1.06-3.2,2.56Zm20.26-22.4c0-.21.85.21,1.07,0,.42-.21.42-1.49.64-1.71l.85-.85c.21-.43.21-1.07.64-1.49-1.07,0-.43-.64,0-1.07-1.07-.21-1.07-1.07-2.13-.64.21,1.07-1.28.64-1.71,1.07-.21.21,0,1.06,0,1.49-.43.85-2.35,1.28-3,1.49,0,2.14-1.92,2.14-1.92,4.48-1.49.22-1.28.86-1.7,1.71l-1.28.64c-.64.21,0,1.07,0,1.49a7.67,7.67,0,0,0-1.71.64l-.64,1.07c0,1.92-2.77,1.49-1.7,3.62,1.06.64.85-.85,1.06-1.06.86-.64,1.92-.43,3-.86.21-.21-.64-1.28,0-1.7.21-.43,1.49-.64,2.34-.64.86-.64.86-2.56,2.56-2.56v-3c1.28,1.07,2.35,0,3-.85C165.12,175.28,165.12,174.64,165.55,174.21Zm-2.56.64c1.49-1.28,1.71-4.27,4.27-4.69C166.4,172.5,165.55,174.64,163,174.85Zm4.27,2.77c0,.22.42.64.85,0-2.13-.64,3.2-2.34.64-3.41-.21,1.28-3.2,3.41-2.13,3.84C166.62,177.84,166.83,177.41,167.26,177.62Zm3.2,0c-2.14-.21-1.5,1.92-.64,1.71C170,179.33,170.24,178.05,170.46,177.62Z"/><path class="cls-1" d="M223.57,191.91c1.7-.42,1.49-2.77,3.62-2.56.64-1.49,2.35-2.34,3.63-3.62a1,1,0,0,1,1.06-.64c-.85,2.56-2.13,4.69-5.11,5.54,0,2.35-1.92,3.2-3.84,5.55a18.9,18.9,0,0,0-1.71,2.13c-.21.22.21,1.07,0,1.07a26,26,0,0,0-4.27,4.9c-.85,1.28-2.34,2.35-3.2,3.63-2.13,2.77-6.39,10.66-8.53,13l-3.84,3.63a28.19,28.19,0,0,1-3.2,3.62c-.21.22-1.06-.21-1.06,0a5,5,0,0,1-4.27,2.14c-2.56-.43-3.84-3.42-5.54-5.12L182,223.91c-.21-.43,0-1.92-.42-2.35-2.78-2.13.42-14.29,1.92-17.49a47.13,47.13,0,0,1,2.34-5.76c0-.21.64,0,.64,0a21.81,21.81,0,0,1,.64-3.84c0-.21.43-.21.64-.64l.43-2.77c.21-.21,1.49-.85,1.49-1.07.22-.64-.21-1.28,0-1.92.22-.42,1.07-.85,1.28-1.28,0-.21-.21-.85,0-1.06.43-.43,1.07-2.14,1.71-3.2a20.34,20.34,0,0,0,1.28-3.2l1.28-1.07c0-.21-.22-1.06,0-1.28h.42a17.38,17.38,0,0,0,1.28-3c.22-.43,1.07-.86,1.28-1.28,0-.22-.21-1.28,0-1.5,0,0,.43.22.64,0a11.27,11.27,0,0,1,.64-1.92l1.07-.64c.43-.42.21-1.28.64-1.7,1.28-1.28,4.27-3.42,6-4.91,1.07.22,1.28,1.07,1.07,2.35.85.21,1.07,1.28,1.92,1.28a3.1,3.1,0,0,1,1.06,1.28c.64.64.43,1.28.64,2.34.22.86,1.28,1.07,1.28,2.78.43,1.28-.85,1.28-1.28,1.92,0,.21.22,1.06,0,1.28a5.52,5.52,0,0,0-1.06.42c-.64.86-.22,1.71-.64,2.56l-1.28.64a31.22,31.22,0,0,1-1.71,4c-.21.43-2.13,3-2.13,3.84a2.43,2.43,0,0,1-.64,1.28,196.58,196.58,0,0,0-9.17,22.83c.21.85,1.06,0,1.28-.64.85-.86,1.49-2.14,2.34-3,.43-.64,1.71-.85,2.14-1.28.21-.64,0-1.28.42-1.92,1.71-2.13,6.4-8.32,8.11-10.24s3.2-4.48,4.9-6.4c.86-.85,2.35-1.49,3.2-2.34.22-.22-.21-1.28,0-1.5s1.07.22,1.28,0c.43-.42,0-1.28.43-1.7,2.13-2.13,4.91-3.41,6.19-6.19,1.06.43,0,1.07,0,1.28-.22.22,0,.86,0,1.28.42,0,1.06.22,1.28,0,.42-.64.85-2.56,2.77-1.28.21,1.5-2.13,1.71-2.77,2.35-.86.85-.86,1.71-1.92,2.56.21.85,1.49.42,2.34.64,0,1.28-1.06,1.49-1.7,2.56-.22.21.21,1.06,0,1.28s-1.07-.22-1.28,0,.21,1.06,0,1.06c-.64.64-1.28.64-1.71,1.28-.43.43-2.56,2.14-2.56,3.2,0,.86-.85.22-1.07.64-.21.22,0,1.07,0,1.28-.42.22-1.06.22-1.28.64-.42.43-.21,1.28-.64,1.71-1.06,1.28-4,3.41-5.12,5.76,2.35-.43,3.42-2.56,4.48-4.48,1.07-.21,1.07.64,1.92.85.86-.64-.21-.85,0-1.49,0,0,1.5-1.07,1.71-.64l-.64,1.28c1.92-1.07.21-1.07.64-2.56.21-.21,2.77-1.28,1.28-1.71,0-.85,1.28,0,1.28.64s-1.28.86-1.28,1.71c.85-.43,3.63-2.35,1.71-3.63C223.14,191.06,223.57,191.7,223.57,191.91Zm-1.71-4.48c.21-.42,1.07-.42,1.07-1.06-2.14-.22-3.42,1.49-2.35-1.28h-2.35c-.21,1.28.86,1.28,1.07,1.7-.64.43-.64,1.28-1.07,1.92-.42.43-1.06-.21-1.28.64,0,.43.22,1.28.64,1.28a8.61,8.61,0,0,1,3-3.2c-.64.64-.21,2.35-1.71,1.92C218.87,192.13,220.79,188.71,221.86,187.43Zm.64-6.18c1.71.64,2.13-2.13,2.77-2.77-.21,0-.85-.43-1.06-.22C223.35,179.33,222.29,180,222.5,181.25Zm8.32-11.09c1.06-.22.85,3-.64,1.92.21,1.92-.64,2.77-3,2.56C227.19,171.86,230.6,172.5,230.82,170.16Zm82.54,25.17c.86.21,0,.64,0,1.28-.42,0-.64.64-1.28.64.22.85-.64,1.7-1.06,2.34-.64.64-3.2,2.77-3.42,3.84,0,1.71-3.84,3.41-4.26,4s-.64,1.92-1.07,2.56c-1.28,1.71-3.62,3.2-5.54,5.12-2.56,2.56-4.91,5.76-7.68,6-.86.22-1.07-.42-1.71-.64-1.28-.21-.64,1.71-1.49,1.28-.43-.42-1.49-2.56-2.35-3.2-1.28-.63-2.56-.21-3.84-1.06,0-1.07-1.49-1.28-1.92-1.92,0-.21.22-1.07,0-1.28,0,0-.42.21-.42,0-.22-.21,0-1.07,0-1.07h-.64c-.64-2.56-.22-5.76,0-7.68.21-3.84,1.7-8.1,3-11.73,1.5-4.05,4.27-7.46,3.84-11.3-.21-1.07-.64,0-1.28,0,0,.64-1.28.42-1.28,1.06-1.28.43-1.7,1.92-1.92,3.2l-2.34,1.92c-.43.43-.22,1.28-.64,1.92-.86,1.07-3.2,2.56-4.27,4.27-.85,1.07-2.13,1.92-3.2,3.41-.43.43-.21,1.28-.85,1.71l-1.28.64c-.43.42-4.27,6-4.69,6.61-.22.21-2.35,1.07-2.35,2.35,0,.85-3,3.41-4.27,4.9a52.85,52.85,0,0,1-3.62,4.48c-4.27,4.27-8.11,8.75-13,5.55-2.35-1.28-3.84-3.42-6.4-4.91-.64-.85-2.35-.85-3-1.7-.43-.86-.21-2.56-.64-3,0,0-.64.21-.64,0-.85-4,4.48-13.44,5.33-16.64l.64-2.13a8.94,8.94,0,0,1,.64-1.71,10.9,10.9,0,0,1,1.07-2.56c.64-1.49.85-2.56,1.28-3.84,1.92-5.12,4.69-9.59,6.19-13.43-1.5-.43-1.92,1.92-3.2,3l-1.28.64s-2.14,2.35-1.71,0c1.71.64,1.07-1.7,1.71-2.56.21-.21,1.06.22,1.28,0,.85-.85,1.06-2.13,2.13-3,1.49-.43,1.07,1.28,2.35,1.28-.22-2.14-1.71-1.5-.64-3.84,1.06-.22,1.28.42,1.28,1.06,1.49.64-.43-2.77,1.7-1.92a4.24,4.24,0,0,1-.42-3c-1.28.42-1.71-.86-2.56-.64-.43.21-.86,1.49-1.07,1.7-1.07.64-2.77,3-3.41,1.92,0-.42-.64-.64-.64-1.28.21-.21,1.7-2.13-.43-1.7-.21-2.14,2.35-1.28,2.35-3-2.56.85-4.06,3-6,4.69-.64.64-.85,1.28-1.92,1.28-.21-1.49,1.07-1.7,1.92-2.34a61.08,61.08,0,0,1,5.34-6.19c.42-.42,1.28-.21,2.13-.64.21-.21,1.07-2.56,2.35-2.56s2.13-3,5.75-2.34c1.28.21,1.07.42,2.35,1.7a9.29,9.29,0,0,1,1.71,2.14c.42.42,1.49,1.49,1.49,2.34s.85.86,1.28,1.28c.21.22-.21,1.07,0,1.07,1.49,1.28,1.07,3.2.64,5.54-.21.64.21,2.56,0,2.78s-.64,0-.64,0c-.43,1.92-.64,3.41-1.28,5.54-3,9-13,26.66-15.36,34.34.22.86.86-.21,1.92,0,2.78-3.62,10.24-11.52,13.44-15.14l2.56-2.35c.64-.85.85-2.13,1.71-3.41,1.28-1.49,3.84-2.56,4.26-4.69.43-.64,1.28-.64,2.35-.64.85-2.78,3.41-4.06,4.48-6.4.85.21.64,1.28,1.49,1.28a9.06,9.06,0,0,1,1.28-1.71c0-.42-.21-1.06,0-1.28,0,0,2.35,0,1.71-.64-.64-.42.21-1.49,1.28-2.34.21-.22.85.21,1.06,0s-.21-1.07,0-1.28l4.48-4.06c2.35-1.92,5.76-3.41,9.17-.64,1.5,1.28,2.14,3.2,3.42,4.7.21.42,1.06.85,1.28,1.28.42.64.21,1.06.64,1.7,0,.22.42.43.42.64.22.22,0,.64.64.64.64,12.16-3.62,19.41-6.4,28.58,2.14,0,2.78-2.13,4.06-3.2,1.92-1.92,0,.86,2.13-1.7l3.2-3c4.05-4.69,7.68-9.6,11.94-13.86,2.35,1.06,3,.64,3.84,3.2-.42.85,0,2.34-.64,2.56-.42.42-1.92.85-1.92,1.92,0,.85-2.34,1.7-2.56,3.2,0,.85-1.49,1.92-2.34,3-.64.64-1.5,1.28-1.5,1.92,0,1.28-2.34,3-3,4.48C307.82,201.94,310.38,198.31,313.36,195.33Zm-85.53-14.08a2.46,2.46,0,0,1,2.35-1.28C229.75,180.82,229.32,181.25,227.83,181.25Zm9-10.45c-.43.21-.85,1.7-1.28,1.92-.21.21-.85-.22-1.07,0-.42.42-.21,1.49-.64,1.92s-1.49.21-1.92.64c-.64.21-.85,1.06-1.06,1.7-1.07-.21-1.5-1.06-1.28-2.34a9,9,0,0,0,6-3.84c0-.86-1.07-.64-1.07,0-1.7-1.5.64-2.56,1.71-.64.64-.64.64-1.71,1.92-1.5C238.28,170.16,237.22,170.16,236.79,170.8Zm-6,8.53c-2.35-1.49,2.13-2.13,1.7,0C231.88,178.9,230.39,179.12,230.82,179.33Zm2.34,3.2c.22.85.86-.43,1.71,0,0,1.06-1.49,1.06-1.71,2.56-2.13-.64-.42-2.56,0-3.84C234,181.46,233.16,181.67,233.16,182.53Zm.64-6.19c.22-2.13,3-1.7,3-4.26,1.07.21,1.28-.86,2.35-.86C237.64,173.36,236.58,175.7,233.8,176.34Zm6.62-9A4.64,4.64,0,0,0,243,165c-1.07-.22-1.5.64-1.92,1.28C240.63,166.74,239.56,167.38,240.42,167.38Zm33.7,16.85c2.13-.21,2.77-1.7,3.62-3-1.06-.21-1.28.85-1.7,1.28C275.61,182.74,273.69,183,274.12,184.23Z"/><path class="cls-1" d="M344.5,191.91c1.71-.42,1.49-2.77,3.63-2.56.64-1.49,2.34-2.34,3.62-3.62a1,1,0,0,1,1.07-.64c-.85,2.56-2.13,4.69-5.12,5.54,0,2.35-1.92,3.2-3.84,5.55a18.88,18.88,0,0,0-1.7,2.13c-.22.22.21,1.07,0,1.07a25.65,25.65,0,0,0-4.27,4.9c-.85,1.28-2.35,2.35-3.2,3.63-2.13,2.77-6.4,10.66-8.53,13l-3.84,3.63a29.81,29.81,0,0,1-3.2,3.62c-.21.22-1.07-.21-1.07,0a5,5,0,0,1-4.26,2.14c-2.56-.43-3.84-3.42-5.55-5.12l-5.33-1.28c-.21-.43,0-1.92-.43-2.35-2.77-2.13.43-14.29,1.92-17.49a47.16,47.16,0,0,1,2.35-5.76c0-.21.64,0,.64,0a20.11,20.11,0,0,1,.64-3.84c0-.21.42-.21.64-.64l.42-2.77c.22-.21,1.5-.85,1.5-1.07.21-.64-.22-1.28,0-1.92.21-.42,1.06-.85,1.28-1.28,0-.21-.22-.85,0-1.06.42-.43,1.06-2.14,1.7-3.2a19.42,19.42,0,0,0,1.28-3.2l1.28-1.07c0-.21-.21-1.06,0-1.28h.43a18.2,18.2,0,0,0,1.28-3c.21-.43,1.07-.86,1.28-1.28,0-.22-.21-1.28,0-1.5,0,0,.43.22.64,0a9.73,9.73,0,0,1,.64-1.92l1.07-.64c.42-.42.21-1.28.64-1.7,1.28-1.28,4.26-3.42,6-4.91,1.06.22,1.28,1.07,1.06,2.35.86.21,1.07,1.28,1.92,1.28.22,0,1.07,1.06,1.07,1.28.64.64.43,1.28.64,2.34.21.86,1.28,1.07,1.28,2.78.43,1.28-.85,1.28-1.28,1.92,0,.21.21,1.06,0,1.28a5.66,5.66,0,0,0-1.07.42c-.64.86-.21,1.71-.64,2.56l-1.28.64a32.59,32.59,0,0,1-1.7,4c-.22.43-2.14,3-2.14,3.84a2.42,2.42,0,0,1-.63,1.28,194.87,194.87,0,0,0-9.18,22.83c.22.85,1.07,0,1.28-.64.86-.86,1.5-2.14,2.35-3,.43-.64,1.71-.85,2.13-1.28.22-.64,0-1.28.43-1.92,1.71-2.13,6.4-8.32,8.1-10.24s3.2-4.48,4.91-6.4c.85-.85,2.35-1.49,3.2-2.34.21-.22-.21-1.28,0-1.5s1.07.22,1.28,0c.43-.42,0-1.28.43-1.7,2.13-2.13,4.9-3.41,6.18-6.19,1.07.43,0,1.07,0,1.28-.21.22,0,.86,0,1.28.43,0,1.07.22,1.28,0,.43-.64.85-2.56,2.77-1.28.22,1.5-2.13,1.71-2.77,2.35-.85.85-.85,1.71-1.92,2.56.21.85,1.49.42,2.35.64,0,1.28-1.07,1.49-1.71,2.56-.21.21.21,1.06,0,1.28s-1.07-.22-1.28,0,.21,1.06,0,1.06c-.64.64-1.28.64-1.7,1.28-.43.43-2.56,2.14-2.56,3.2,0,.86-.86.22-1.07.64-.21.22,0,1.07,0,1.28-.43.22-1.07.22-1.28.64-.43.43-.21,1.28-.64,1.71-1.07,1.28-4.05,3.41-5.12,5.76,2.35-.43,3.41-2.56,4.48-4.48,1.07-.21,1.07.64,1.92.85.85-.64-.21-.85,0-1.49,0,0,1.49-1.07,1.71-.64l-.64,1.28c1.92-1.07.21-1.07.64-2.56.21-.21,2.77-1.28,1.28-1.71,0-.85,1.28,0,1.28.64s-1.28.86-1.28,1.71c.85-.43,3.62-2.35,1.7-3.63C344.08,191.06,344.5,191.7,344.5,191.91Zm-1.7-4.48c.21-.42,1.06-.42,1.06-1.06-2.13-.22-3.41,1.49-2.34-1.28h-2.35c-.21,1.28.85,1.28,1.07,1.7-.64.43-.64,1.28-1.07,1.92-.43.43-1.07-.21-1.28.64,0,.43.21,1.28.64,1.28a8.61,8.61,0,0,1,3-3.2c-.64.64-.22,2.35-1.71,1.92C339.81,192.13,341.73,188.71,342.8,187.43Zm.64-6.18c1.7.64,2.13-2.13,2.77-2.77-.22,0-.86-.43-1.07-.22C344.29,179.33,343.22,180,343.44,181.25Zm8.31-11.09c1.07-.22.86,3-.64,1.92.22,1.92-.64,2.77-3,2.56C348.13,171.86,351.54,172.5,351.75,170.16Zm82.55,25.17c.85.21,0,.64,0,1.28-.43,0-.64.64-1.28.64.21.85-.64,1.7-1.07,2.34-.64.64-3.2,2.77-3.41,3.84,0,1.71-3.84,3.41-4.27,4s-.64,1.92-1.06,2.56c-1.28,1.71-3.63,3.2-5.55,5.12-2.56,2.56-4.9,5.76-7.68,6-.85.22-1.06-.42-1.7-.64-1.28-.21-.64,1.71-1.5,1.28-.42-.42-1.49-2.56-2.34-3.2-1.28-.63-2.56-.21-3.84-1.06,0-1.07-1.49-1.28-1.92-1.92,0-.21.21-1.07,0-1.28,0,0-.43.21-.43,0-.21-.21,0-1.07,0-1.07h-.64c-.64-2.56-.21-5.76,0-7.68.22-3.84,1.71-8.1,3-11.73,1.49-4.05,4.26-7.46,3.84-11.3-.22-1.07-.64,0-1.28,0,0,.64-1.28.42-1.28,1.06-1.28.43-1.71,1.92-1.92,3.2l-2.35,1.92c-.42.43-.21,1.28-.64,1.92-.85,1.07-3.2,2.56-4.26,4.27-.86,1.07-2.14,1.92-3.2,3.41-.43.43-.22,1.28-.86,1.71l-1.28.64c-.42.42-4.26,6-4.69,6.61-.21.21-2.34,1.07-2.34,2.35,0,.85-3,3.41-4.27,4.9a53.11,53.11,0,0,1-3.63,4.48c-4.26,4.27-8.1,8.75-13,5.55-2.34-1.28-3.84-3.42-6.4-4.91-.64-.85-2.34-.85-3-1.7-.43-.86-.22-2.56-.64-3,0,0-.64.21-.64,0-.86-4,4.48-13.44,5.33-16.64l.64-2.13a8.94,8.94,0,0,1,.64-1.71,10.9,10.9,0,0,1,1.07-2.56c.64-1.49.85-2.56,1.28-3.84,1.92-5.12,4.69-9.59,6.18-13.43-1.49-.43-1.92,1.92-3.2,3l-1.28.64s-2.13,2.35-1.7,0c1.7.64,1.06-1.7,1.7-2.56.22-.21,1.07.22,1.28,0,.86-.85,1.07-2.13,2.13-3,1.5-.43,1.07,1.28,2.35,1.28-.21-2.14-1.71-1.5-.64-3.84,1.07-.22,1.28.42,1.28,1.06,1.49.64-.43-2.77,1.71-1.92a4.23,4.23,0,0,1-.43-3c-1.28.42-1.71-.86-2.56-.64-.43.21-.85,1.49-1.07,1.7-1.06.64-2.77,3-3.41,1.92,0-.42-.64-.64-.64-1.28.22-.21,1.71-2.13-.42-1.7-.22-2.14,2.34-1.28,2.34-3-2.56.85-4.05,3-6,4.69-.64.64-.85,1.28-1.92,1.28-.21-1.49,1.07-1.7,1.92-2.34a60.85,60.85,0,0,1,5.33-6.19c.43-.42,1.28-.21,2.13-.64.22-.21,1.07-2.56,2.35-2.56s2.13-3,5.76-2.34c1.28.21,1.07.42,2.35,1.7a9.28,9.28,0,0,1,1.7,2.14c.43.42,1.5,1.49,1.5,2.34s.85.86,1.28,1.28c.21.22-.22,1.07,0,1.07,1.49,1.28,1.06,3.2.64,5.54-.22.64.21,2.56,0,2.78s-.64,0-.64,0c-.43,1.92-.64,3.41-1.28,5.54-3,9-13,26.66-15.36,34.34.21.86.85-.21,1.92,0,2.77-3.62,10.24-11.52,13.44-15.14l2.56-2.35c.64-.85.85-2.13,1.7-3.41,1.28-1.49,3.84-2.56,4.27-4.69.42-.64,1.28-.64,2.34-.64.86-2.78,3.42-4.06,4.48-6.4.86.21.64,1.28,1.5,1.28a8.65,8.65,0,0,1,1.28-1.71c0-.42-.22-1.06,0-1.28,0,0,2.34,0,1.7-.64-.64-.42.22-1.49,1.28-2.34.22-.22.86.21,1.07,0s-.21-1.07,0-1.28l4.48-4.06c2.34-1.92,5.76-3.41,9.17-.64,1.49,1.28,2.13,3.2,3.41,4.7.22.42,1.07.85,1.28,1.28.43.64.22,1.06.64,1.7,0,.22.43.43.43.64.21.22,0,.64.64.64.64,12.16-3.63,19.41-6.4,28.58,2.13,0,2.77-2.13,4.05-3.2,1.92-1.92,0,.86,2.14-1.7l3.19-3c4.06-4.69,7.68-9.6,12-13.86,2.35,1.06,3,.64,3.84,3.2-.43.85,0,2.34-.64,2.56-.43.42-1.92.85-1.92,1.92,0,.85-2.35,1.7-2.56,3.2,0,.85-1.49,1.92-2.35,3-.64.64-1.49,1.28-1.49,1.92,0,1.28-2.35,3-3,4.48C428.75,201.94,431.31,198.31,434.3,195.33Zm-85.53-14.08a2.45,2.45,0,0,1,2.34-1.28C350.69,180.82,350.26,181.25,348.77,181.25Zm9-10.45c-.43.21-.86,1.7-1.28,1.92-.22.21-.86-.22-1.07,0-.43.42-.21,1.49-.64,1.92s-1.49.21-1.92.64c-.64.21-.85,1.06-1.07,1.7-1.06-.21-1.49-1.06-1.28-2.34a9,9,0,0,0,6-3.84c0-.86-1.07-.64-1.07,0-1.71-1.5.64-2.56,1.71-.64.64-.64.64-1.71,1.92-1.5C359.22,170.16,358.15,170.16,357.73,170.8Zm-6,8.53c-2.34-1.49,2.14-2.13,1.71,0C352.82,178.9,351.33,179.12,351.75,179.33Zm2.35,3.2c.21.85.85-.43,1.71,0,0,1.06-1.5,1.06-1.71,2.56-2.13-.64-.43-2.56,0-3.84C355,181.46,354.1,181.67,354.1,182.53Zm.64-6.19c.21-2.13,3-1.7,3-4.26,1.06.21,1.28-.86,2.34-.86C358.58,173.36,357.51,175.7,354.74,176.34Zm6.61-9a4.6,4.6,0,0,0,2.56-2.34c-1.07-.22-1.49.64-1.92,1.28C361.57,166.74,360.5,167.38,361.35,167.38Zm33.7,16.85c2.14-.21,2.78-1.7,3.63-3-1.07-.21-1.28.85-1.71,1.28C396.55,182.74,394.63,183,395.05,184.23Z"/><path class="cls-1" d="M456.27,224.33c1.7-.21,18.34-10.87,20.05-11.73-.22,0,.42.64.85.22a.78.78,0,0,1-.21-.43c1.06-.64,2.13-.85,2.77-1.49.64,1.06-.86,1.49-1.49,1.92-.22.42,0,1.28-.43,1.49-.21.21-16.21,11.09-16.43,11.3l-1.7,1.28c-.21,0-1.28-.21-1.49,0-1.07,1.28-5.76.86-9.39.86-3.84-2.14-7.68-3.84-9.17-7.9a16.66,16.66,0,0,1-4.48-4c-.21-.42-1.28-1.06-1.49-1.28,0-.21.21-1.06,0-1.28,0,0-.64.22-.64,0-.22-.21,0-.85-.22-1.06,0,0-.42.21-.64,0,0-.22,0-1.07-.21-1.07-.85-.64-.21-1.71-.64-2.35-.85-.64-.85-1.28-1.28-3.62a21.41,21.41,0,0,1-.85-9,1.55,1.55,0,0,1,.64-.64c0-.43-.86-2.13-.22-2.35.64-.64.64-3.2,1.28-4.69,0-.21-.42-.85-.21-1.07,0,0,.64.22.64,0s-.21-1.06,0-1.06c0-.22.64,0,.64,0,0-.22-.43-1.07-.21-1.28.64-.43,1.28-4.05,1.7-5.33l1.28-.86a33.42,33.42,0,0,1,1.07-3.62c.43-.43,1.07-.86,1.07-1.28.21-.22.21-.64.64-1.07.21-.64,1.06-1.07,1.49-1.71.43-.42,0-1.49.43-1.92.85-.64,2.34-1.06,3.19-2.13,1.71-1.92,1.92-3.41,3.63-4.48.43-.21,1.07-1.28,1.92-1.7.21-.43,1.07-.22,1.49-.64.64-.43.64-.64,1.28-1.07,2.35-1.49,4.91-3,6.4-3.2a21.45,21.45,0,0,1,6.4,0s0,.85.64.85c1.07,0,1.92.86,2.77,1.71,2.35,1.49,3.2,2.56,4.91,5.12a21.19,21.19,0,0,1,2.13,4.48c.22.21.22,1.06.22,1.06.85.64.64,1.5.85,2.56.43.64,1.07,1.28.85,2.14,0,.64-1.28.64-1.06,1.92-.22,1.7,1.06,3.41,1.28,5.12,0,1.06-.43,1.06-.43,1.91,0,.64.43,1.71.21,2.14,0,.21-.42,0-.64.64.22,1.06-.21,1.7-.64,2.77a10,10,0,0,1-3.2,4.05c-.42.22-.85.86-1.28,1.07-.64.43-1.7,0-2.34.43-.43.21-1.07,1.28-1.28,1.49-2.14.64-4.06,1.07-6.61,1.92-.22,0,0,.43-.43.43-1.28.42-1.71.21-2.35.64a3.22,3.22,0,0,1-2.13.42c-.64.22-.21.43-.64.64-.64.43-1.28.22-2.13.64-.43.21-.86.85-1.28,1.28a3.51,3.51,0,0,0-1.5.85c-1.06.86-2.34,3-4.9,2.78,0,2.56-1.5,4.05-1.28,6.61,3.2,2.13,6.82.43,9,0l4.05-1.28c1.07-.21,1.71-.21,2.56-.43.43-.21.85-1.06,1.07-1.28.85-.21,1.49,0,2.34-.42.43-.22.85-.86,1.07-1.07.85-.64,1.49-.43,2.34-.85.43-.22.86-1.07,1.28-1.28.22,0,1.07.21,1.28,0,1.07-.86,3.42-2.14,5.34-3.42a110.37,110.37,0,0,0,11.94-8.53c2.13-1.7,4.27-3,5.76-4.69l3.2-2.13c.43-.86.43-2.35,1.92-2.35,1.92,0,3,1.92,3.41,3a3.84,3.84,0,0,1-.21,3.41,4.71,4.71,0,0,0-1.5,1.49c-.42.43-.21,1.5-.63,1.71-.43.64-1.92,1.28-3,1.92a21.56,21.56,0,0,0-2.13,2.35c-.86.85-1.5,1.7-2.14,2.34a11.31,11.31,0,0,1-2.34,2.13c-.64.43-1.28.22-1.92.64l-.86,1.28c-.42.22-.85.64-1.28.86-.21.42-1.28.42-1.92.64-.85.85-1.28,1.92-2.13,2.56a15.59,15.59,0,0,0-2.77,1.7c-.64.22-.85.64-1.28,1.07-.21.43-1.28.21-1.49.64-.43.21-.86.85-1.28,1.07s-1.28.21-1.71.42c-1.07.64-1.71,1.92-2.35,2.56l-2.13.22a15.49,15.49,0,0,1-2.77,2.13c-1.07.42-2.35,2.13-4.48,2.34,2.13,2.35-2.77-.64-.43,1.71a4.07,4.07,0,0,0-2.13-.64c-1.28.21.64.85.64.64-.21,1.49-3,1.28-4.69,2.13C453.92,225.19,455.41,224.55,456.27,224.33Zm10.66-56.52c0,.85-1.07-.21-1.92,0a6.4,6.4,0,0,0-1.71.85c-.85.43-1.7.22-2.56.64a4,4,0,0,0-.42,1.5c-.43.21-1.28.21-1.92.42-.64.64-.85,1.71-1.49,2.35-.64.85-2.14,1.07-1.71,2.35-1.92,0-2.35,2.13-3.41,3.41a12.45,12.45,0,0,0-1.5,1.71c-.42.42,0,1.27-.42,1.91-.22,0-1.07-.21-1.28,0-.22.43.42,1.28.21,1.71,0,.43-.85.64-1.07,1.07-.21.85-1.7,2.13-.42,2.13.42-2.56,3.41-2.77,3.84-5.55,1.28-.42,3-4.26,4.05-3-1.28,1.07-4.05,4-3,4.69.64-.64,2.14-3.41,3.42-1.71-.86,1.92-2.78,2.78-3,5.12,1.71.22,4.48-1.28,4.91-1.7a5.35,5.35,0,0,1,2.34-1.07c.85,0,.43-.43.43-.64a13,13,0,0,0,2.56-1.71c-.22-.21.85,0,1.06,0,.64-.42.86-1.49,1.28-1.91,1.07-1.07,1.71-1.5,2.14-2.78.21-.21.64-.85.42-1.28,0-.42.64-.42.64-.42.22-1.71-.42-3.42-.42-5.12-3.63-.22-4.48,1.49-6.83,2.13.21-1.28,1.92-1.92,3.41-3C465.65,169.3,468.64,169.3,466.93,167.81Zm-8.1,7.47c-1.5-.64,1.28-1.5,1.06-2.35C462,173.78,458.4,174,458.83,175.28Zm32.42,27.08c1.7-.42,2.34-1.7,3.84-2.77.21-.21-.22-.64.85-.64,1.71,0,3.84-4.69,5.33-5.76.21-.64.64-.42.64,0-.21.22-.64.43-.43.86-2.34,1.7-3.2,4-4.9,5.54-2.13,1.71-4.48,2.56-5.76,4.69C489.11,203.86,491.46,203.22,491.25,202.36Z"/><path class="cls-1" d="M527.93,166.74a20.58,20.58,0,0,0-2.13,2.35c-.21.85,0,1.49-.64,1.71-.21.64-.64.85-1.07,1.28a18.29,18.29,0,0,0-1.7,2.77c1.92.43,1.28-1.07,2.56-1.07h.64a11.85,11.85,0,0,1,1.7-1.7,11,11,0,0,1,2.35-1.28c.64,0,.64-.64,1.06-.86,0-.42,1.07.22,1.28,0,.43-.85,2.56-1.49,3.84-2.77.22-.21-.21-.43.64-.43h.43c.43-.21,1.07-1.06,1.28-1.06.85-.22,1.49.21,2.13,0a.63.63,0,0,1,.64-.64,6.09,6.09,0,0,1,5.55,1.7,8.21,8.21,0,0,0,1.49,1.07c0,.43-.21,1.07,0,1.28,0,0,.43-.21.64,0a15,15,0,0,0,.64,1.71c.21.42,1.07.42,1.49.64a8.47,8.47,0,0,1,.64,1.7c1.28,1.92,1.92,6.83.43,9-.21.85-.64,3.63-1.07,5.12-.21.21-.64,0-.42.85,0,.64-.43.86-.64,1.5a10.51,10.51,0,0,1-.86,3.2,24.12,24.12,0,0,1-.64,3c.22,1.07.43,0,1.07,0,9-1.92,14.5-7,21.12-11.3,3.41.64,5.12,1.7,5.33,6a2.5,2.5,0,0,1-.64,3,53.22,53.22,0,0,1-5.12,4.05c-.43.21-.85,1.07-1.28,1.28l-3,1.49a9.14,9.14,0,0,1-3,1.71,5.43,5.43,0,0,0-1.71.64c-.21,0-.85.85-1.06.85a6.58,6.58,0,0,1-1.92.64c-1.5.64-4.7,2.13-8.32,1.28,0,0,0-.64-.43-.64-1.28,0-2.56-1.49-3.84-2.13-1.7-1.5-4.26-1.92-6-3.84-.21-.43-.64-.43-.64-.64-.21-.64-1.28-1.28-1.49-2.35,0-.42-1.28-1.49-1.5-3-1.28-4.48.86-9.39,2.14-13.44-2.35.21-2.14,1.49-4.27.43-1.71.64,1.07,1.49-.43,2.34a5.89,5.89,0,0,1-1.92,0c-.64.21.43.85-.21,1.28a12.14,12.14,0,0,0-1.71,1.07,28.62,28.62,0,0,0-2.34,1.7c-1.92,1.71-4.27,3.42-6.4,5.12-2.56,2.56-5.33,5.55-8.32,8.32-1.28,1.71-2.35,1.92-3,3.84-.21.85-.85,1.28-1.06,2.56a7.8,7.8,0,0,1-.22,2.35c-.21.42-1.06.85-1.06,1.28a15.44,15.44,0,0,0-.43,1.49c-.64,2.35-2.13,5.76-2.77,9.17-.21.85-.64,1.71-.85,2.56s0,2.13-1.28,2.77c0,2.35,1.7,3.84.64,4.91-1.28,0-1.92-4.05-3.2-1.92-.86-.85-1.92-1.28-2.14-3-2.13-.42-4.9-.64-6.4-2.13a4.79,4.79,0,0,0-.21-1.71,19.92,19.92,0,0,1-.64-5.11,8.21,8.21,0,0,1,.43-3.2c-.22-.43.42-.64.42-.64,0-.64-.85-2.14-.85-3,0,.21.64,0,.43-.21,0-1.5-.22-1.92.64-3.2a10.67,10.67,0,0,1,.21-2.35,3.83,3.83,0,0,1,.43-1.49c.21-1.28,1.06-4.69,1.7-6.83a.76.76,0,0,0,.64-.42v-2.56a31,31,0,0,0,1.5-4.7c0-.21.42-.21.42-.85.22-1.49.64-2.77,1.07-4.48.21-.85,0-1.49.21-2.34.43-.43,1.28-.86,1.5-1.07a11.26,11.26,0,0,1,.85-3.41,9.26,9.26,0,0,1,1.07-1.5,15.75,15.75,0,0,0,1.49-3.62c.21,0,.43-.22.64-.22a10.7,10.7,0,0,0,.85-2.77c-.21-.21.22-.85.43-1.07s1.07-.64,1.07-1.06a12.71,12.71,0,0,0,.85-1.71c.21-.43.85-.64,1.07-1.06.21-.22-.43-.86-.22-1.07a16.63,16.63,0,0,0,3.2-3.41c.64-.86,2.56-3.2,3.41-4.06.64-.42,1.28-.21,1.92-.64a2.44,2.44,0,0,1,.86-.42c0-.22.64,0,.21-.43,1.71-.43,2.35.21,2.13,1.49H522c1.07.43.43,2.78,1.71,2.78a4.84,4.84,0,0,1,2.77,3l.85,1.71c.21.21,2.35.85,1.92,2.13C529.64,165,528.57,166.1,527.93,166.74Z"/><path class="cls-1" d="M184.73,13.92c.29.72.44,0,.44-.57.72-.15.57-1.3.86-1.59.29-.58,1-1,1.16-1.3.43-.58.58-1.44,1-2a4.11,4.11,0,0,1,1.44-1.3c0-.29-.29-1,0-1,.29-.29.29-.58.72-.87a12.25,12.25,0,0,1,1.3-1.3c.72-1,1.3-2.31,2.46-2.88,3,.29,3.32,3,5.48,4.18.43.87.43,2.17,1,3.18-.58.58-.43,1,.29,1-.43,1.73-1.88,3.17-2.89,4.91-.29.57-.72.86-.86,1.44a8,8,0,0,0-1.45,2.31c-.29.86-.43.72-.72,1.73a5.4,5.4,0,0,1-.58,1.59c-.43.58-.86,2-1.58,3.46,0,.29-.44,0-.44.43,0,0-.29,1.3-.29,1.45-.43.72-.57.58-1,1.44l-.28,1.3h-.44c0,.29.15.87,0,1h-.43c-.14.14,0,.72,0,.87-.58.43-.87,2.16-1.73,3.17-.29.29,0,.43-.43.43-.73,0,0,.73,0,1.45a1.43,1.43,0,0,1-1.3.58s.72.86.43,1.29H186a11.24,11.24,0,0,0,0,2.17h-1.3c.44,1-.72,1.88-.86,2.89,0,.57-.58.57-.72.72-.44,1.3,0,2.74-.44,3.89,0,0-.29.15-.29.29-.28.44,0,.87,0,1-.28.15-1,.73-1,.87-.57,1.73,0,3.46-1.29,4.62,0,.43,1.15.86,1.29.43.73-.72,1.88-.43,3.32-.72a4.19,4.19,0,0,1,.44-.72c1.73-.44,3.89-.72,5.91-1.3.44-.15.44-.43.58-.43a33.24,33.24,0,0,0,3.32-.58c1-.15,1.88-.72,3-.87,1.59-.43,2.89-.43,4.62-.86a20.89,20.89,0,0,0,2.45-.44c2.17-.43,4.62-.72,7.22-1.3,1.73-.43,4.48-.57,6.93-1,.87-.14,2-.14,3.75-.28,1.3-.15,3.75-.73,5.92-1a15.74,15.74,0,0,0,1.3-3.32c.14-.15.29,0,.29-.58v-.29a16.45,16.45,0,0,0,1.3-3.18,6.65,6.65,0,0,0,1.29-3,17.88,17.88,0,0,1,1.45-2.88c0-.44,1.15-2,1.15-2.89,0-.14.44-.58.44-.87a3.82,3.82,0,0,0,.86-1.87c0-.58.58-1.3.72-1.88.29-.14.58-.29.58-.58.29-.43,0-1,.43-1.58.15-.44.73-.72.73-1,.43-.58.14-1,.57-1.88,0-.14.44.29.44-.29s.72-.72.72-1.44a7.05,7.05,0,0,1,.86-1.88c1.3-1.87,3.18-5.63,4.62-8.37a9.8,9.8,0,0,0,1-1.3,1.86,1.86,0,0,1,.29-.43c.29-.29.29-.87.43-1.3.15-.14.73-.29.87-.58,0-.14-.14-.72,0-.86,0-.29.87-.29.87-.44s0-.72,0-.86c.72-1,2.16-1.73,2.16-2,.72-.29,1.88.43,2.6.72.43,1,1.73,1.44,1.73,3.17.29.73,1,.87,1.59,1.59a6.27,6.27,0,0,1,.43,1.59c.72,1.88,0,3.32-1.3,5.92-.29.57-.43,1.44-.72,2.16-.29.43-.87.72-1,1s.14.72,0,.87c-1.73,1.73-2.16,6.93-4.19,8.8.44,1.59.73-.72.87-1s1.3-1,1.3-1.87c.72-.15-.58,2.88-.72,3.75-.43.72-.58,1.15-1,1.87,0,.15.29.87,0,.87h-.44c0,.29.29.87,0,1-.86.58-1.15,2.45-1.73,4,0,.29-.43-.14-.43.43a14.15,14.15,0,0,1-1.3,3.32c-1.3,3.18-2.31,6.36-3.75,9.67,0,.15.29.73,0,.87,0,0-.29-.14-.29,0s0,.87,0,.87-.43,0-.43,0c-.58,1.3-.29,2.74-1.45,3.6.44,1.45.44,3.32,1.45,4.33-.73,1.16-2.31,1.16-3.47,1.74-.72,1.73-1.15,3.6-1.73,5.48a2.27,2.27,0,0,0-.58.58c-.14.86-.43,1.44-.72,2.6a4.73,4.73,0,0,1-.86,2.74c-.15.43-.15.58-.44,1.59a6.89,6.89,0,0,1-.29,1.3A11.81,11.81,0,0,1,235,75a35.64,35.64,0,0,0-1.3,4,14.79,14.79,0,0,0-.86,3c-.73,2.74-1.88,6.49-2.6,10-.29,1.29-1.3,4.33-1.73,6.35-.15,1.44-.44,3.17-.73,4.61v1c-.57.29-.43.87-.43,1.59a19,19,0,0,1-.58,3.32,38.92,38.92,0,0,0-.28,6.35c-1.16.29-1.16-.86-1.3-1.87-.73.57-1.74.57-1.88,1.58-1.3-1.3-2.74-2.59-4.91-1.87,0-.44-.43-.44-.86-.44a2.43,2.43,0,0,0-.44-1.44c-.14-.14-.72-.58-.86-.72,0-.43.14-.87,0-1a14.36,14.36,0,0,0-.43-2.31,19.56,19.56,0,0,1-.44-4.76c0-.58.44-.72.44-1.3a13.16,13.16,0,0,0,0-3.32,13.49,13.49,0,0,0,.43-3.18A246.73,246.73,0,0,1,223,63c-.43-1-1.59-.14-2.16,0-1.3.44-2,0-3.76.58-.43.15-1.29.15-2.74.44-5.19.86-10.68,2-16.31,3.17-6.2,1.3-12.41,3.18-18.76,3.61,0-.43.87-.29,1.44-.43-.43-1.59-2.16.14-1-1.74.29-1.15-1.87.15-1.44-1.44-1.59,0-1.88,1.44-4,.87,0-.58.72-.44,1.3-.44.57-1.58-1.16-.86-.87-2.16.87,0,.72-.72,1.3-1,.29-.15.72.58,1.3,0-.87-1-1.16-.72-2.17-.43,0,1.29-1.29,1.44-1.58.86.72-.72,1.44-1.88,2.74-1.88.58-1.44.43-3.6,1-5.05.29.44.29,1.16,1,1,0-.57.29-1,.58-1-.15-.72-1.3-.14-1.3-.86a60.23,60.23,0,0,1,1.73-7.36c1.44.72-.43,2,0,3.17,1.88-1.44,1.44-4.18,2.16-6.2,0-.15.44,0,.44-.58s1-1.3.86-2.74c-.14-.73-.57.14-1.3,0-.28-1.16.73-1.88,1-2.89,0-.72,0-.87.73-.87.14,1.45-.58,1.88-.73,2.75.87,0,.87-.29,1-1.3.28-.72,1.15-1.45,1.29-2.75-1.29-.43-.43,1.45-2,.87-.14-1,.73-.72.73-1.3-.29-.58-1-.72-1,.43-.28.58-.86.58-1,.87s.15.87,0,1c0,0-.28-.14-.28,0-.29.15,0,.72,0,.87,0,0-.44-.15-.44,0-.14,0,0,.72,0,.72-.14.29-.57,0-.57,0-.15.86,0,1.87-.44,2.31-1-.15-1-.58-.43-1.3-.72,0-2,.58-1.73-1-1.16.86-1.45,2.45-1.59,4.33,1.59.43.87-2,2.31-2,0,.86.58.86.58.58,1.3.14,0,1.44-.87,1,.15.43.29.86.87,1-.58.57-1.59.57-1.59,1.58a2.81,2.81,0,0,0-2.17.58c.58.87-.14.58,0,1.73,0,1.45,2.17-2.45,2.17,0-1.16,0-1.16.87-1.3,1.88-.58.14-.29-1-.43-1-1.3-.29,0,1.87-1.3,1.87v2.46c0,1.15-.58,1.3-1.3,1.87.87,1.88-.58,3.76-.72,5.92-.58,0-.44-.86-.44-1.44-1.29.43-1.58,1.44-1.44,3.32-.14.86,2-.43,1.44,1.3-.72-.44-1.44-.58-1.87,0,0,1.15.29.57,1,.43.14-.58.29.14.86,0v4c-1.29,0-1.44-.72-2.3,0a56.73,56.73,0,0,1,0,6.93,35.83,35.83,0,0,1-1.16,4.62c-1-.43-.43-2-.58-2.74,0-1-.43-.44,0-1.88-.57-.29-1.73.87-.72.87-.29.14.15,1.15,0,1.29,0,.15-.72,0-.72,0-.29.58.72.73.72,1.16s-.43.58-.43.87a23.93,23.93,0,0,1,0,3.17c-.15,1-.72,1.44-.29,3.18a8.77,8.77,0,0,1,0,2.74,8.43,8.43,0,0,0,.29,5c1,0,.14-1.3.43-2.17a25.08,25.08,0,0,0,.72-3.17c1.16,1,.15,4.18.58,6.35.14,1.3.72,1.59.72,2.74a11.94,11.94,0,0,1,1.88,1.88c.29-1.3-.58-1.16-1-1.88-.15-.29,0-.58-.43-.43V94.6c.72-1.15.28,2.89.86,3.18,1.44,0,.87-2.17.87-3.47.29-.57.57-.28.57,0v1.3a8.93,8.93,0,0,1,.73,4.62,1.25,1.25,0,0,0,1.3.87c-.15,2.45,1,3.17,1.29,5.05.44,1.73,2.75,1.59,2.89,3.75-.72-.29-.72.29-.72.87-2.31-.15-4.33-.87-5-2.89-1.73,1-2.74,0-4.48-.43a9.67,9.67,0,0,0-.72-1.88c-.29,0-.72-.14-.72-.29-.43-1-.58-1.3-1-2.31-.14-.28-.72-1.29,0-1.29-.14-.29-.58-.58-.72-.87s0-.87,0-1c-.58-.72-.58-3.32-1-5.49-.15-1.15-1.3-8.66,0-9.67.29-.28.57,0,.43-.43s-.72-.43-.72-.86c-.43-3.32.58-5.49.29-8.38-1.3,0-2.17.73-3,.87h-.73c-.57.72-.28-.14-.86,0s-1.3,1-2.17,1c-.14-.43-1-.43-.72-1.3-1.3.29-1.59-.58-2.6-.58.15-.57.15-1.15-.43-1.29,0-1,1.16-1.3,1.73-2,.58-.43,1-1.73,1.59-.86-.29-1.59-1.3-.29-2,0-1.15,0-.87,1.59-2.16,1.59,1.29-1.59-.73-2-1.3-3-.29-.87.72-1.3,1.3-1.74a4.65,4.65,0,0,1,.86-.86c.15-.15.72.14.87,0a5,5,0,0,1,2.16-1.3c.15-.15,0-.43.29-.58a7.18,7.18,0,0,0,1.73-.43c.44-.15.58-.72.87-.87,0-.14.58.15.86,0,1-1.59,4.33-2,6.5-3.32A143.86,143.86,0,0,1,174.2,35a170.76,170.76,0,0,1,10.53-21.93C185.31,13.2,184.73,13.35,184.73,13.92Zm-25.4,59.32c-.14,0-.72-.14-.86,0s.14.44,0,.44-.58,0-.87,0v.43c-.29.43-1.44,0-1.3.86,2.45-.43,3.9-1.73,6.5-2.3-.15-.87.57-1.3,0-1.45-.87,1.16-2.31.72-3.47,1.45C159.19,72.67,159.33,73.1,159.33,73.24ZM158,69.06c-.57,0-2.31.72-1.3.86C157.31,69.78,157.6,69.35,158,69.06Zm6.5,14.57a1.26,1.26,0,0,0-1-1.29A1.25,1.25,0,0,0,164.53,83.63Zm0,11.55c-.72,1,0,2.45.72,1.3C164.53,96.48,165.11,95.18,164.53,95.18Zm0-3.17c-.15,1.73-.58,1.44,0,2.3C165.25,95.76,165,91.43,164.53,92Zm1.15-8.66c-1.73-.44-1.15,1.58-1.15,3.17C166.26,86.67,165.68,84.79,165.68,83.35Zm.58-18.48c.14,1.3-.87,1.16-.58,2.31C167,67.9,166.69,64.87,166.26,64.87Zm.72,9.24c1.88,0,.29-2.89-.72-2.46-.87,1.74,1.3.29,1,1.59C167.13,73.24,167,73.68,167,74.11Zm1.3-5v-1h-1v1Zm0-3.61c0-.15.72,0,.72,0,.15-1-.43-1.44-.43-1.88l.87-.58c.14-.14,0-.86,0-.86.28-.15.86,0,.86-.58-1.15-1.15-.86.58-2,.58-.14,2.31-.58,2,.29,2.74-.87.43-1.88,2.45-.29,2.74C168.42,67.18,167.85,65.88,168.28,65.45Zm.29-7.07c0,.72.58,1.3.43,2.31h2.74c-.14-1.3,1.16-1,.73-2.75-.58,0-1,0-1.3-.29.29-1.44,1.3-.43,1.3-.57.28,0,.43-1.3.43-1.3.29-1.3.72-2.74-.43-2.89-.58.87-2.31.29-3,.87C169.87,55.92,168.57,57.08,168.57,58.38ZM170.3,89.7c-.86-.29-.14-2.17,0-2.31C171.6,87.82,170.16,88.69,170.3,89.7ZM172.18,64c.14,1-.58.86-1.3.86.14-.43.29-.43.29-.86Zm-1-7.8a11.08,11.08,0,0,0,1-1.73C173,54.48,172.18,56.5,171.17,56.21Zm2.31,31.61c.14,2-.73,2.74-.58,4.62-.43,1.44-.58-.72-.43-1.3-.15-.58-.73-1.3-.73-.43-1.29-.58.15-2.17.44-2.89Zm0-5.48c-.44-1.3-.73-1.88.72-2-.72,1.16,0,3.47-.72,4.33-.44,1.59-.29-2.88-1,0C171.74,84.64,172.32,82.19,173.48,82.34Zm0,16.45c-.29,1-.58-.29-.58-1S173.48,98.21,173.48,98.79Zm1.15-23v1h-.86v-1Zm.43-32.47c-.28.86-1.58,3.32,0,3.6C174.78,45.68,176.22,44.09,175.06,43.37Zm0,12.84c1.16.29-.43,1.59-.43,2.17C173.77,58.38,174.92,56.64,175.06,56.21Zm.44,5.34c-.44,0-.58-.58-.44-.86s.44-.44.44-.44a7.8,7.8,0,0,1,0-1.87s.43.14.43,0c.14-.73-.58-1.45,0-1.74C176.8,57.65,175.64,60.25,175.5,61.55Zm.43,8.37c0,.72,1.44.15,1.59.87-.58,1.59-2-1-2,.86-.87-.28-.15-2.16-.44-3,.58-.14,1,.73,1.16,0C177.23,68.48,176.22,69.92,175.93,69.92Zm.72-39.4c-.29.87-1.3,1.88,0,2.17C176.22,31.68,177.52,30.52,176.65,30.52Zm.58,22.8c-.58-.14-.43-1-.58-1.87C178.53,51.3,176.94,52.46,177.23,53.32Zm1,15.3v1.3c-.72,0-1.3-.43-1-1.3ZM178,36.44c0,.72.29,1.3.87,1.44C178.82,37,178.53,36.58,178,36.44Zm2.17,3.75c.43-1,1.29-2.6,0-2.31.14,2.17-1.45,2.31-1.3,4.48C180,42.79,180,40.91,180.12,40.19Zm-.87,21.36c-.43,0-.58,1,0,1-.43-1.15.87-1,1.44-1.44-.72-1.73.15-2.31-.57-3.18C179.39,58.81,178.53,60.83,179.25,61.55Zm1.88-28.43c.28-.15.86-2.46,0-2.6.43,1.59-1.45,1.16-1.45,2.17C180.26,32.69,180.26,33.26,181.13,33.12ZM179.68,35c0,.29.29.87.44.87C180.55,35.86,180.26,33.55,179.68,35Zm1,13.28c-1.58-.29-.43-1.3,0-2.16C181.56,46.11,180.12,47.26,180.69,48.27Zm.72,8.81c0-.87-.28-1.45-1.29-1.3v1.3Zm1,3.17c0-.14.87.15.73-.43-.58-.14-.73-.72-1.74-.43,0,1-.57,1.44-.72,2.16C182.14,62.13,182,60.83,182.42,60.25Zm7.22-34.93c-.29,1.16-2.16,2.6-1.15,3.32C189.06,27.92,190.51,26.05,189.64,25.32Zm6.5-12c2-.29,2.45-2.31,3.46-3.47-1.44-.86-1.3.87-1.59,1.3C197.29,11.9,196.28,12.48,196.14,13.35Zm12.84,46a4.09,4.09,0,0,0-2.6.86C207.68,60.4,208.55,60.11,209,59.39Zm12.27-5.63c.29-.15,1.15.14.87-.87.86,0,1-.29,1.15-.86-1.73-.58-1.44,1.15-2.45,1.73-.29-.87-2.17.14-2.46-.87.58.15,3,.15,1.74-.43-2.17.72-.73-2.6-2.6-2.31,0,.43-.44.58-.44,1,.44,0,1.16.14.44.29-1.16-.29-2.17-1.44-3.18,0,.58,0,1.45,0,1.45.58-.73,0-.87.86-1.45.86a2.73,2.73,0,0,0-2.45.87c2.31.58,3.17-.72,5.63-.44-1.3,2.6,3.32-1,3,1.45C221.25,55.2,221.11,54.34,221.25,53.76Zm3.9,53.69c0,.86,0,3.9.57,2.45C225.72,109.33,225.72,106,225.15,107.45Z"/><path class="cls-1" d="M288.07,75.26a13.19,13.19,0,0,1,4.48,7.22c-1.73-.14-2-1.73-3.75-1.88-3.9.15-7.94-.14-11.12.44-1.3,1.73-1.3,4.61-2.45,7.07,0,.14-.43,0-.43.58-.15.72-.87,1-.87,1.73s-1,1-1,1.59a11.18,11.18,0,0,1-1.15,2.3,13.63,13.63,0,0,0-1.45,1.3,6.64,6.64,0,0,1-.86,1.3,42,42,0,0,1-5.2,6.35c-.43.44-.58,1.3-.87,1.45s-.86.29-1.29.43c-.15.14-.58.87-.73,1-.72.43-1.58.43-2.31.87-.14,0-.57.72-.72.86-.86.58-1.59,0-3.17.58-.15,0,0,.58-.44.58-.28,0-.72-.58-1.15-.58-.72,0-.72-.29-1.3-.58-2-.43-3.75-2.16-5.05-4-.87-.43-1.88-.43-2.6-1a17.29,17.29,0,0,1-2.45-2.31c-.15-.43.14-1,0-1.59,0-.29-.44,0-.58-.57a24.57,24.57,0,0,1,0-12.13c.14-.43,1-2.74,1.44-3.75a5.27,5.27,0,0,1,.29-1.44,5.1,5.1,0,0,0,.87-.87c.29-.72.14-1.44.43-2s.58-.58.87-.87a13.76,13.76,0,0,1,.72-1.44,6.87,6.87,0,0,1,1-1c.14-.14-.29-.72,0-.72A15.37,15.37,0,0,0,249,72.52c.58-.58.72-1.59,1.3-2.16.29-.44,1-.44,1.59-1,.29-.58.58-1.3.86-1.45s.73.15.87,0-.14-.58,0-.58c.14-.28.72.15.72,0,.43-.72.43-.86.87-1.15a5.86,5.86,0,0,1,3.89-.43c1.3,0,1.45-.58,2.31-1.3a20.22,20.22,0,0,1,2.89-1.88c.29-.14,2.17-.72,2.74-.43.44,0,.72.29,1.3.43.29,0,1,.58,1.59.87.29.29.58.86.86,1,.73.58,1.59.86,2.17,1.3a20.1,20.1,0,0,1,2.31,2.88c.58,1.16,2.45,3.47,2.45,5.49C281.87,74.11,285.33,73.39,288.07,75.26Zm-37.81,6.21c0,.14-.43,0-.43,0-.15.14,0,.87,0,1h-.44c-.14.14.15.72,0,.87,0,0-.28-.15-.43,0s.15.86,0,1.15-.72.58-.72.87a13.29,13.29,0,0,0-1.59,4.18c-.29,1.16-.43,2.17-.86,2.46-.29.14,0,2.88.43,2.3A34.09,34.09,0,0,1,249,85.37a7.7,7.7,0,0,1,1.73-2.89c.15-.14-.14-.87,0-1h.44a1.61,1.61,0,0,1,0-.87s.28.15.28,0c.15,0,0-.86,0-1,.29-.43,1.88-1.15.44-2a5.39,5.39,0,0,1-1.59,3C250.12,80.75,250.26,81.32,250.26,81.47Zm11.55,3.9c-.15.14-.73-.15-.87,0-1.3.43-2,1.3-3,1.3a1.5,1.5,0,0,0-1-.87c-.43-.43-.58-.87-1.3-.87-1,1-1.59,3.18-2,4.62-.43.87-1,2.46-1.3,3.18a23.35,23.35,0,0,0-1.15,6.2c2.31-.29,4.18-2.31,5.19-3.32.58-.14.87-.72,1.16-.86.43-.29.86-.15,1.3-.44.28-.28.43-1.15.72-1.58a32.9,32.9,0,0,0,3.89-3.47c.29-.57.15-1.3.44-1.58s.57-.44.72-1a4.39,4.39,0,0,1,1.88-2.17c-.15-.87-.15-1.44-1-1.15-.86,1.29-2.45,1.15-3.6,1.58C261.66,84.93,261.81,85.37,261.81,85.37Zm6.06,2.31c-.29.28-.15,1-.43,1.58a11.67,11.67,0,0,0-1.59,1.88,11.8,11.8,0,0,0-1.59,2.16c-2.31,2.75-5.34,4.77-7.94,7.8,0,.58-.72,1,0,1.3a3.25,3.25,0,0,1,2-1.3c.72-.15,2-2,2.6-2.74a12,12,0,0,0,2-1.88c.15-.14-.14-.72,0-.87s.72.15.87,0,.43-1,.72-1.3.58-.72.86-1A12.53,12.53,0,0,0,267,91.14c.44-.72.58-1.16.87-1.59.14-.14.72-.43.86-.86s-.14-.73,0-1,.73-.15.73-.44a3.3,3.3,0,0,0,.43-1.44c.14-.43.72-1,0-1.3a15.83,15.83,0,0,1-1.16,2.17A3.1,3.1,0,0,1,267.87,87.68ZM262.1,102a2.71,2.71,0,0,0-2.17,1.3C261.08,103.12,261.81,102.83,262.1,102ZM267,73.39c-.72.86-1.73,1.15-2.45,1.87,1.88.15,2.6-.72,4.62-.43a12.78,12.78,0,0,0,.72-2.74c-1.3-.15-1.73.86-2.45.86C267,73,267.29,73.24,267,73.39Z"/><path class="cls-1" d="M332.38,75.26a13.25,13.25,0,0,1,4.48,7.22c-1.73-.14-2-1.73-3.76-1.88-3.89.15-7.93-.14-11.11.44-1.3,1.73-1.3,4.61-2.45,7.07,0,.14-.44,0-.44.58s-.86,1-.86,1.73-1,1-1,1.59a10.82,10.82,0,0,1-1.16,2.3,14.51,14.51,0,0,0-1.44,1.3,6.28,6.28,0,0,1-.87,1.3,41.29,41.29,0,0,1-5.19,6.35c-.43.44-.58,1.3-.87,1.45s-.86.29-1.3.43c-.14.14-.57.87-.72,1-.72.43-1.59.43-2.31.87-.14,0-.57.72-.72.86-.87.58-1.59,0-3.17.58-.15,0,0,.58-.44.58s-.72-.58-1.15-.58c-.72,0-.72-.29-1.3-.58-2-.43-3.75-2.16-5-4-.87-.43-1.88-.43-2.6-1a16.77,16.77,0,0,1-2.45-2.31c-.15-.43.14-1,0-1.59,0-.29-.44,0-.58-.57a24.57,24.57,0,0,1,0-12.13c.14-.43,1-2.74,1.44-3.75a5.27,5.27,0,0,1,.29-1.44,5.48,5.48,0,0,0,.87-.87c.29-.72.14-1.44.43-2,.14-.43.58-.58.87-.87a12.05,12.05,0,0,1,.72-1.44,6.87,6.87,0,0,1,1-1c.14-.14-.29-.72,0-.72a15.37,15.37,0,0,0,1.73-1.59c.58-.58.72-1.59,1.3-2.16.29-.44,1-.44,1.59-1,.28-.58.57-1.3.86-1.45s.72.15.87,0-.15-.58,0-.58c.14-.28.72.15.72,0,.43-.72.43-.86.87-1.15a5.86,5.86,0,0,1,3.89-.43c1.3,0,1.45-.58,2.31-1.3a19.66,19.66,0,0,1,2.89-1.88c.29-.14,2.16-.72,2.74-.43.43,0,.72.29,1.3.43.29,0,1,.58,1.59.87.29.29.57.86.86,1,.72.58,1.59.86,2.17,1.3a20.1,20.1,0,0,1,2.31,2.88c.57,1.16,2.45,3.47,2.45,5.49C326.18,74.11,329.64,73.39,332.38,75.26Zm-37.81,6.21c0,.14-.43,0-.43,0s0,.87,0,1h-.44c-.14.14.15.72,0,.87,0,0-.29-.15-.43,0s.14.86,0,1.15-.72.58-.72.87A13.29,13.29,0,0,0,291,89.55c-.29,1.16-.43,2.17-.87,2.46-.28.14,0,2.88.44,2.3a33.72,33.72,0,0,1,2.74-8.94A7.7,7.7,0,0,1,295,82.48c.15-.14-.14-.87,0-1h.43a1.72,1.72,0,0,1,0-.87s.29.15.29,0c.15,0,0-.86,0-1,.29-.43,1.88-1.15.44-2a5.39,5.39,0,0,1-1.59,3C294.42,80.75,294.57,81.32,294.57,81.47Zm11.54,3.9c-.14.14-.72-.15-.86,0-1.3.43-2,1.3-3,1.3a1.52,1.52,0,0,0-1-.87c-.44-.43-.58-.87-1.3-.87-1,1-1.59,3.18-2,4.62-.44.87-1,2.46-1.3,3.18a23.37,23.37,0,0,0-1.16,6.2c2.31-.29,4.19-2.31,5.2-3.32.58-.14.87-.72,1.15-.86.44-.29.87-.15,1.3-.44s.44-1.15.73-1.58a32.9,32.9,0,0,0,3.89-3.47c.29-.57.15-1.3.44-1.58s.57-.44.72-1a4.42,4.42,0,0,1,1.87-2.17c-.14-.87-.14-1.44-1-1.15-.86,1.29-2.45,1.15-3.61,1.58C306,84.93,306.11,85.37,306.11,85.37Zm6.07,2.31c-.29.28-.15,1-.44,1.58a11.7,11.7,0,0,0-1.58,1.88,11.8,11.8,0,0,0-1.59,2.16c-2.31,2.75-5.34,4.77-7.94,7.8,0,.58-.72,1,0,1.3a3.25,3.25,0,0,1,2-1.3c.72-.15,2-2,2.6-2.74a12,12,0,0,0,2-1.88c.14-.14-.14-.72,0-.87s.72.15.87,0,.43-1,.72-1.3.57-.72.86-1a12.53,12.53,0,0,0,1.59-2.16c.43-.72.58-1.16.87-1.59.14-.14.72-.43.86-.86s-.14-.73,0-1,.72-.15.72-.44a3.2,3.2,0,0,0,.44-1.44c.14-.43.72-1,0-1.3A15.83,15.83,0,0,1,313,86.67,3.22,3.22,0,0,1,312.18,87.68ZM306.4,102a2.71,2.71,0,0,0-2.16,1.3C305.39,103.12,306.11,102.83,306.4,102Zm4.91-28.57c-.72.86-1.73,1.15-2.45,1.87,1.87.15,2.6-.72,4.62-.43a13.39,13.39,0,0,0,.72-2.74c-1.3-.15-1.73.86-2.46.86C311.31,73,311.6,73.24,311.31,73.39Z"/><path class="cls-1" d="M358.22,100.52c-.58.29-.29.43-1.3.72-.29,0-.72.44-1.3.72-.15,0-.58-.14-.58,0-.29.44-2.88,1.3-3.75,1.59s-1.88-.14-2.6,0a29.89,29.89,0,0,1-4,.29c-.72,0-1.88-.14-3.32-.29-2.45-.29-3.61-1.44-5.2-2.6-.72.44-.57,1.59-.72,2.6-.14.15-.43-.14-.29.29a4.37,4.37,0,0,1-.72,1.44,18.9,18.9,0,0,0-.57,2.6,3.84,3.84,0,0,0-1,2.17,8.44,8.44,0,0,1-.86,2.74c-.15.29-.43,1.59-.87,2.45a13.64,13.64,0,0,1-.72,2.46c-.29.43-.43,2-.86,3,0,0-.44,0-.44.29s.15.28.15.57c-.29.87-1,2.89-1.3,4.19,0,.14-.44,0-.44.58v.28c0,.29-.28,1-.43,1.88a1.94,1.94,0,0,0-.29,1.3c-.14.29-.72.58-.86.72a5.22,5.22,0,0,0-.15,1.44c-.57,2.46-1.59,5.35-2.16,8.23a4.62,4.62,0,0,0,.29,3.61c-2.46-.58-3.61-3.9-6.79-2.6-3-5.48-.29-12.41-.29-17.89.44-.44.87-.15.44,0-.29,1.58.57.28.86,1.15.72.58.87.72,2,.14-.57.58-.14.73.15,1.16.58.14.72-.15.58-.72.43,0,.72,2,1.15.72.43.14-.14.72,0,1.15-.58.15-.58-.29-1-.29-.14,1,.87.73.72,1.88s-.29,1.88-.43,2.74c.43.15.58-.14.58-.29a2.91,2.91,0,0,0,.43-1.15c-.15-.29.14-.29.14-.29a8.07,8.07,0,0,0,.15-2.6c.14-.14.29,0,.29-.29s.57-.72.28-1.15c.87.14.44.87.15,1.44a7.42,7.42,0,0,0-.43,2.89c1.29,0,.43-1.73.57-2.17,0,.15.15-.28.15-.28l.43-.44c.14-.29-.43-.14-.43-.29s.72-.86.29-2a1,1,0,0,0,.86.44c.44-.72.15-1.16.29-2.46-.72,0-.72.87-.58,1.88-.86-.58,0-1.88-.14-2.6h1.44c-.14-2.31,1.73-4.18.44-6.35,1.29.15.72,1.3,1.73,1.44.29,0,.29-.43.29-.72s-.44-.29-.73-.43c0-.72,1.3,0,1.16-1,0,.14-.43-.14-.29-.29.29-.29.72.15.72-.43s.58-.44.58-.72c.14-.44-.14-1,0-1.45a1.9,1.9,0,0,1,.43-1.44c-.43-1-.72.87-.86,1.15-.73-.14,0-.43-.15-.86s-1.15-.43-.86,1.15c-.73-.14-.87-.72-.44-1.44.29-.43.15-3,1-3.46-.86-1.16,1-1.3-.14-2.17a6.33,6.33,0,0,0,1.44-3.32,2.22,2.22,0,0,1-.43-1c1,0,.58.29.43.72,1.45.58.15-1.59,1.45-1.15-.44-1.16.86-2.74-.73-3.18-.86.29.73,1.3.15,2.46-.43,0-.58.14-.58.43-.43.72-.86-.43-1,.29-.87-.15-.14-1.3-.14-1.73.29-.58.43-1.59,1.3-2.17-.44-1.59.43-1.73,0-3.17a2.76,2.76,0,0,1,1.29-.29,6.33,6.33,0,0,1-.43-1.45c.87.15.29-1,1.16-1.15.57,0,.14-1,.86-1,0-1.16.72-.87.15-2.17a3.47,3.47,0,0,1,.57-.72c.15-.29.58-.58.44-.86.43-.44.43-1.45.72-2.17.14,0,.58.15.72,0s-.58-1.88.87-1.44c-.29-1.16.72-1.45-.15-2.17a8,8,0,0,0-1.3,1.73,4.18,4.18,0,0,0-1.15-.28c.14.57.72.72.58,1.44-1.45-1-1,2.6-2.46,2.74a7,7,0,0,1,0,2.46c-1.3-.29-.43,1.29-1.73.72a14.61,14.61,0,0,1-1.59,3.75c0,.58,1,.29.72,1.3-.57.72-.72,2.31-1.3,3.46a2.74,2.74,0,0,0-1.15-.29c0,.29.58.29.72.29.15,1.3-2,.58-1.44,2.17-1.16-.29.14-1.16.29-1.45-.44.15-1.45.15-1.45.73s-.43.57-.57,1c-.15.14.14.57.14.72-.87.72-.14,1.59-1.15,2.16,1.3.58,1.3-.43,1.3-1,1.29.72-.44,1.73-.29,2.6-.73-.14.14-.72-.58-.72-1.16.14-1.16,2-1.44,3.17-.29.44-.73.73-1,1.16.43.86.57,1.73,1.44,1.88-.15.86.14,1.15,0,2.59.86-.57.72-2.45,1.44-3.46.87.58-.14,1.44-.29,2v.72l-.14,1.16c-.43.43-.43,2.59-1,3.46-.87,0,.14-.87.14-1.3,0-.14-.43,0-.29-.43a1.76,1.76,0,0,1,.44-1.3c-.15-.58-.29-.87-1-.87-.15-.86.57-1,.29-2.16-2,.14.57,3.32-2.31,3a11.21,11.21,0,0,1,.72,3.46c-.43-.14-.29-.57-.87-.72-.72,0-.57,1.16-.43,2.17-.43-.15-.58-.73-1.16-.73.15,1.45.15,1.88.58,2.31-.29.87-1.59,1-1.44,2.6-.72-.29,0-3.17.29-4.18a29.76,29.76,0,0,1,.86-3.9,1.73,1.73,0,0,0,1,.29c0-.29-.43-.29-.72-.29.15-2.89,1.45-4.91,1.73-7.94.87.29.73-.58,1.74-.14-.29-.58-.58-.87-1.16-.87.15-1.73,1.16-2.89,1.3-4.76a3.25,3.25,0,0,1,1.15-.29c-.14-1.3.29-1-.14-2.17.87.15.14-1,.72-1.44a2.69,2.69,0,0,0,.44-1.15,1.72,1.72,0,0,0,0-.87c.14-.14.43,0,.43,0,.29-.58.14-1.15.58-1.88.14-.14.57-.43.57-.57s-.14-.58-.14-.73c.58-.43.86-1.87,1.3-2.88,0-.15.14,0,.29-.43-.15-1,1.58-2.17,1.44-3.61.14-.29.72-.44,1.3-.44,0-.43-.15-.72-.58-.72.29-.43.58-.43.72-.72,0,0-.43-.58,0-.43-.29-.87,1-1.45,1-2.17,0,0,.15-1,.15-1.3.29-.28.86-.57,1-1a3.51,3.51,0,0,1,.58-1.3,3.1,3.1,0,0,1,.43-.72c.29-.29.29-.57.43-.86a3,3,0,0,0,.87-1s-.15-.58,0-.72a4.25,4.25,0,0,0,.86-1.45c.15-.29.29,0,.29-.43,0-.72,1.16-.87,1-1.59,0-.29.72-.86,1-1.44.29-.29,1.45-1.45,1.45-2.17-.15-.57,1.87-1.44,1.73-2.6.14-.72,2.45-2.45,3.17-2.88.15,0-.14-.29.44-.29a4.67,4.67,0,0,1,1.87-.72c.15.43.72.14,1,.43.58.15.72,1,1.16,1.3.14.29.86.43,1,1.15s1.3.58,1.3,1.45.72.86.72,1.87c-.43,1.59-1.59,2.46-2.17,3.9.72.29.72-.58,1-.72s.87,0,1.16-.29a2.52,2.52,0,0,0,.29-.72h.72a.85.85,0,0,1,.58-.72.57.57,0,0,1,.57-.29A2,2,0,0,0,355,66c.43-.29.87-.73,1.3-.73.15,0,.43-.28.58-.43a4.14,4.14,0,0,1,1.59-.58c.14,0,.43-.28.57-.57a4.44,4.44,0,0,0,1.73-.73,23.63,23.63,0,0,1,3.61-1.44c.44-.14.72-.14,1.16-.29a15.77,15.77,0,0,1,6.35,0c.29,0,.58-.14.72,0s.29.58.43.72c.58.29,1,.15,1.45.58.14.15.57.72.72.87s0,.72.14.86.44-.14.44,0-.15.58,0,.58c.72.58.43,2.45,1.15,3.61.14.14.72.58.72.72.29.29,0,.72.15,1.16a5.83,5.83,0,0,1,.43,2.31,8,8,0,0,1-.15,2.59c0,.15-.28,0-.14.29a6.81,6.81,0,0,1-.87,2.6c.29.58,1.45.14,2,.14a9.16,9.16,0,0,0,2,0c.43.15.57.44,1,.44,2.59.29,4.76.14,7.07,1.3.14,0,.72-.15.86,0,0,0-.14.28,0,.28.58.29,1.3.15,1.59.29a8.46,8.46,0,0,0,1.16,1.16c.14.29.86.43,1,.72.14.14-.15.72,0,.72.72.72,1,2,1.15,3.75-4.33-1.87-10.82-2.74-17.17-2.16a19.2,19.2,0,0,1-3.9.43,11.17,11.17,0,0,0-2.31,3.18c-.14.29-.29,0-.29.43-.14.58-2.6,3.18-3.46,3.9a14,14,0,0,1-1.45,1.44c-.43.58-.72,1.44-1.15,2a7,7,0,0,1-1.73,1c-.29.29-.15.58-.58.87s-.58.57-1.44,1c-.15.14-.44.14-.58.29s-.43.57-.58.72-.72-.15-.86,0c0,0,.14.43,0,.43-.73.29-1.16-.87-.58.43-.43-.14-.58,0-.72.29C357.78,101,358.22,101,358.22,100.52ZM318,122.17c-.15.14.72-1.59.58,0,0,.29-.44.43-.44.43,0,.15.29.44.44.29-.15.44-.29.29-.44,0C318.09,122.75,317.8,122.6,318,122.17Zm1.59-5.48v-.87h-.73v.87Zm.57,4c.15.29-.14.29-.28.29h-.73c-.14-.58.44-.58.44-1.16C319.83,120,319.83,120.73,320.11,120.73Zm0,3.75c-.14,0-.57-.58-.28-.87C320.11,122.46,320.4,124.34,320.11,124.48Zm.44,10c.29.86-1,1.73.14,2C320.4,135.88,321.12,133.43,320.55,134.44Zm.14-16.74c-.72-.29-.14-.73-.14-1C321.12,116.83,320.55,117.26,320.69,117.7Zm1.16,2.59c1.15-.14-1-1.44.43-1,.14,1,.43,2.31-.58,2.31-.14-.72-.14-1.15-.58-1.3C321.27,119.72,321.41,120.44,321.85,120.29Zm1.73-11.83c0,.14-.58-1-.87-.58-.14-.86,1-.29.72-1.15C323.87,105.43,323.72,108.46,323.58,108.46Zm1.59,7.07c-.29.15-.15.72-.58.72a3.1,3.1,0,0,1,.14-.72C324.59,114.23,325.45,114.23,325.17,115.53Zm-.58,11.11c.58.87-.15,1.3.43,1.88a39.32,39.32,0,0,0,1.59-5.92c-1.59-.29-1.16,1.3-1.16,2.46C324.73,125.2,325.31,126.64,324.59,126.64Zm1-12.55c-.87-.29.29-1.3-.15-2.46C326.9,111.92,325.31,113.08,325.6,114.09Zm1.44-.29c.43.29.29,1.44-.86,1.44,0-1,.72-1.15.72-1.87C327.19,112.79,327.47,113.8,327,113.8Zm-.86,8.37c.43.14.43-.14.57-.29.72-.86.44-1.15.72-2.16-.14-.15.44-.29.58-.44.15-.43-.58-.57-.72-.72,0,.44-.14.87-.87.72C327,120.73,326.18,121,326.18,122.17Zm.28-25.55c-.14.15.15.73.29.58C327,97.2,326.75,95.18,326.46,96.62Zm.29,27.43v1C327.91,125.63,327.76,123.61,326.75,124.05Zm1-27.86c.87.58.72-1.44.15-1.15,0,.14,0,.43-.29.28A1.9,1.9,0,0,1,327.76,96.19Zm1.16,6.93h-1.16a1.64,1.64,0,0,0,.44-1.16C328.63,102,328.92,102.4,328.92,103.12Zm1.73,6.21c0-1.16,1.3-1.45.14-2.31.73,0,1.45-1.59.58-2.17,0,1-.72,1.44-1.3,2.17,1,.72,0,0-.57,0,.43,1-.87,2.31,0,2.74C329.35,109.18,330.22,109.33,330.65,109.33Zm.14-12.71c.87.44.87-1.44.29-1.3,0,.29,0,.44-.29.44Zm3.76-8.51c.14,1.44-1.3,1.44-1,3.17-.87.87-1.3,1.45-.73,2.89-.43-.14-.57-.43-1.15,0,1,1.59-.29,2.6.58,3.46a4.21,4.21,0,0,0,.57-3.17c.58,0,.44,1.15,1.16.86.14-1-.43-.86-.29-1.87h1.16c0-1-.58-.72,0-1.3-.58-.29-.87.43-.87,0a20.88,20.88,0,0,1,.72-2.6C334.69,89.12,335.41,88.11,334.55,88.11Zm-1.74,9.52c-.28.73-1.15,2.46-.72,2.89C332.38,99.94,333.54,98.36,332.81,97.63Zm.29,4.62c.58-.29.15-1.3.44-2.16.14-.29,1.73-1,.43-1.73-.43.43-.43,1.44-.72,2.16C333,101,331.8,102,333.1,102.25Zm4.48-25c-1.16,0-1.16,2.6-.15,2.75C336.71,78.58,337.58,78.58,337.58,77.28ZM370.05,66a25.07,25.07,0,0,0-4.91,1c-.43.28-.86.14-1.29.43-.15,0-.44.58-.58.72-.43.29-1,.15-1.44.29a39.58,39.58,0,0,0-5.92,3.46l-.72.73c0,.14-.58.43-.58.43-.43,0-.15.29-.43.29s-.58.14-.87.43-.43.72-.58,1c-.57.29-.86.14-1.3.43-.14.15-.14.87-.43,1s-.72,0-1,.29a4.5,4.5,0,0,0-.58,1.16c-1,1-1.73,2.31-2.88,3.32a2,2,0,0,1-1.3.28c0,.15,0,.73-.15.87,0,.29-.14,0-.29.29-.57,1-1.29,1.88-1.87,2.74-.29.15-.29.58-.58,1-.14.29-1.3,1.16-.58,1.88a13.7,13.7,0,0,1,5.05-2.89c.44-.29.58-.43,1-.43.28,0,.28-.43.28-.43.87-.29,1.45-.29,1.74-.73.14-.14.57.15.72,0,.57-.28.72-.72,1.44-.72.43-.14.29-.43.43-.43,1-.29,2.17-.43,3.18-.72a5.67,5.67,0,0,0,1.44-.44V81h1c.29,0,.29-.29.29-.44a5.54,5.54,0,0,0,1.59,0,.28.28,0,0,0,.29-.29h1.44c.29,0,.29-.28.43-.28a32,32,0,0,1,3.61-.44,29.22,29.22,0,0,0,3-4.33,3.65,3.65,0,0,0,.72-.86c.29-.29.29-1,.73-1.3,0-.15.14,0,.29,0,0-.15-.15-.72,0-.72.14-.29.57-.44.43-1a8.74,8.74,0,0,0,1.3-3.18c-.72-.29-2.46.29-2.75-.43,1.3-.29,3.32,0,3.18-1.73-.87-.44-1.59-.44-2,0ZM355.19,89.55c-.29,0-.87-.14-1,0s-.73.58-.87.58c-.29.14-.72,0-1,0s-.43.72-.58.86c-.43.15-.72-.14-1.15,0a4.6,4.6,0,0,1-.44.73c-.72.29-1.29.14-1.73.43,0,0,.15.14,0,.14,0,.15-.43,0-.57,0s-.58.73-.87.73a8.27,8.27,0,0,0-1.59.86c-.14,0,0,.15,0,.29-.43.43-1.44-.14-1.44.87,2.88-.29,6.64-1.3,7.5-2.75.15,0,.58.15.73,0l.57-.57c.44-.44,1.16-.44,1.73-.73v-.43c0-.14.58.15.73,0a3.28,3.28,0,0,1,.72-.58c.29-.43,1.3-1,.43-1.15,0,.43-.58.29-1,.29S355,89.41,355.19,89.55Zm7.93,1.73c-.43.44-.43,1-.86,1s-.87.58-1.16.73a11,11,0,0,1-1.73,2h-.58s0,.57-.14.72c-.43.29-1,.58-1.44.86A19.52,19.52,0,0,0,355,98.07c-.29,0,0,.29-.58.29s-.43.28-.57.43a12.16,12.16,0,0,1-3.18,1.3c-.72.29-2,.29-2.31.86a15.54,15.54,0,0,0,5.34-1.15,9,9,0,0,1,2.31-1,5.42,5.42,0,0,0,1.3-1.16c0-.14.58.15.72,0,.15,0,.15-.57.15-.72.14,0,.72.15.72,0,.43-.29.58-.86,1.15-1.15A2.11,2.11,0,0,1,361,95c.58-.58,1.15-1.59,1.59-1.59.86,0,1.73-1.88,1.87-2.17.44-.29,1.16-.29,1.3-.72a12.66,12.66,0,0,0,1.88-2.45c.14,0,.72-.72.72-.72,0-.72.87-.44.72-1.16-2.31.44-3.46,3.18-4.62,4.33C364.13,91,363.56,91,363.12,91.28Zm12.13-14.72c-.29.58-1,.72-1,1.59C375.39,78.29,376,75.7,375.25,76.56Z"/><path class="cls-1" d="M408,106c1.16-.15,12.41-7.37,13.57-7.94-.15,0,.29.43.57.14a.49.49,0,0,1-.14-.29,10.69,10.69,0,0,0,1.88-1c.43.72-.58,1-1,1.3-.15.29,0,.87-.29,1s-11,7.51-11.12,7.65l-1.15.87c-.14,0-.87-.15-1,0-.72.86-3.9.57-6.35.57-2.6-1.44-5.2-2.59-6.21-5.34a11.17,11.17,0,0,1-3-2.74c-.14-.29-.86-.72-1-.86,0-.15.15-.73,0-.87,0,0-.43.14-.43,0s0-.58-.15-.72-.28.14-.43,0c0-.15,0-.72-.14-.72-.58-.44-.15-1.16-.44-1.59-.57-.43-.57-.87-.86-2.45a14.41,14.41,0,0,1-.58-6.07,1.09,1.09,0,0,1,.43-.43c0-.29-.57-1.44-.14-1.59.43-.43.43-2.16.87-3.17,0-.15-.29-.58-.15-.72s.43.14.43,0-.14-.73,0-.73.44,0,.44,0-.29-.72-.15-.86c.44-.29.87-2.74,1.16-3.61l.86-.58c.15-.57.44-1.73.72-2.45.29-.29.73-.58.73-.87.14-.14.14-.43.43-.72.14-.43.72-.72,1-1.15s0-1,.29-1.3c.58-.43,1.59-.72,2.16-1.45,1.16-1.29,1.3-2.3,2.46-3,.29-.14.72-.86,1.3-1.15.14-.29.72-.15,1-.43s.43-.44.86-.73a14.82,14.82,0,0,1,4.33-2.16,14.61,14.61,0,0,1,4.33,0s0,.58.43.58a2.92,2.92,0,0,1,1.88,1.15A9.49,9.49,0,0,1,418.69,65a14.22,14.22,0,0,1,1.44,3c.15.14.15.72.15.72.58.43.43,1,.58,1.73.28.43.72.87.57,1.44s-.86.44-.72,1.3c-.14,1.16.72,2.31.87,3.47,0,.72-.29.72-.29,1.3,0,.43.29,1.15.14,1.44,0,.14-.29,0-.43.43a3,3,0,0,1-.43,1.88,6.77,6.77,0,0,1-2.17,2.74c-.29.14-.58.58-.86.72-.44.29-1.16,0-1.59.29-.29.14-.72.87-.87,1-1.44.43-2.74.72-4.47,1.3-.15,0,0,.29-.29.29-.87.29-1.15.14-1.59.43a2.14,2.14,0,0,1-1.44.29c-.43.14-.15.29-.43.43-.44.29-.87.15-1.45.44-.29.14-.57.57-.86.86a2.28,2.28,0,0,0-1,.58c-.73.58-1.59,2-3.32,1.88,0,1.73-1,2.74-.87,4.47,2.17,1.44,4.62.29,6.06,0l2.74-.87c.73-.14,1.16-.14,1.74-.28.29-.15.57-.73.72-.87.58-.15,1,0,1.59-.29.28-.14.57-.58.72-.72.57-.43,1-.29,1.59-.58.28-.14.57-.72.86-.86s.72.14.87,0c.72-.58,2.31-1.45,3.61-2.31a76.37,76.37,0,0,0,8.08-5.78,31.76,31.76,0,0,0,3.9-3.17L434,80.31c.29-.57.29-1.58,1.3-1.58,1.3,0,2,1.3,2.31,2a2.61,2.61,0,0,1-.15,2.31,3.2,3.2,0,0,0-1,1c-.29.29-.14,1-.43,1.15a8.21,8.21,0,0,1-2,1.3,13.8,13.8,0,0,0-1.44,1.59c-.58.58-1,1.15-1.45,1.59a7.49,7.49,0,0,1-1.58,1.44c-.44.29-.87.14-1.3.43l-.58.87c-.29.14-.58.43-.87.58-.14.28-.86.28-1.3.43-.57.58-.86,1.3-1.44,1.73a10.42,10.42,0,0,0-1.88,1.16c-.43.14-.57.43-.86.72s-.87.14-1,.43-.58.58-.87.72-.86.15-1.15.29c-.72.43-1.16,1.3-1.59,1.73l-1.44.15a11.07,11.07,0,0,1-1.88,1.44c-.72.29-1.59,1.44-3,1.59,1.44,1.59-1.88-.44-.29,1.15a2.76,2.76,0,0,0-1.44-.43c-.87.14.43.58.43.43-.14,1-2,.87-3.17,1.45C406.42,106.58,407.43,106.15,408,106Zm7.22-38.25c0,.58-.72-.15-1.3,0a4,4,0,0,0-1.16.58c-.57.28-1.15.14-1.73.43a2.7,2.7,0,0,0-.29,1c-.29.14-.86.14-1.3.29-.43.43-.57,1.15-1,1.58s-1.44.73-1.15,1.59c-1.3,0-1.59,1.45-2.31,2.31a8,8,0,0,0-1,1.16c-.29.29,0,.86-.29,1.3-.14,0-.72-.15-.87,0s.29.86.15,1.15-.58.43-.72.72c-.15.58-1.16,1.44-.29,1.44.29-1.73,2.31-1.87,2.6-3.75.86-.29,2-2.88,2.74-2-.87.72-2.74,2.74-2,3.18.43-.44,1.44-2.31,2.31-1.16-.58,1.3-1.88,1.88-2,3.47a6,6,0,0,0,3.32-1.16,3.63,3.63,0,0,1,1.58-.72c.58,0,.29-.29.29-.43a8.62,8.62,0,0,0,1.73-1.16c-.14-.14.58,0,.73,0,.43-.29.57-1,.86-1.3a4.46,4.46,0,0,0,1.45-1.87c.14-.15.43-.58.28-.87s.44-.29.44-.29a28.83,28.83,0,0,0-.29-3.46c-2.46-.15-3,1-4.62,1.44.14-.86,1.3-1.3,2.31-2C414.36,68.77,416.38,68.77,415.23,67.76Zm-5.49,5c-1-.43.87-1,.72-1.59C411.91,71.8,409.45,71.94,409.74,72.81Zm21.94,18.33c1.16-.29,1.59-1.16,2.6-1.88.14-.14-.15-.43.58-.43,1.15,0,2.59-3.18,3.6-3.9.15-.43.44-.29.44,0s-.44.29-.29.58c-1.59,1.16-2.17,2.74-3.32,3.75-1.44,1.16-3,1.73-3.9,3.18C430.24,92.15,431.83,91.72,431.68,91.14Z"/><path class="cls-1" d="M456.5,67a14.73,14.73,0,0,0-1.44,1.58c-.14.58,0,1-.43,1.16-.15.43-.44.58-.72.86a13.3,13.3,0,0,0-1.16,1.88c1.3.29.87-.72,1.73-.72h.44a9,9,0,0,1,1.15-1.16,7.83,7.83,0,0,1,1.59-.86c.43,0,.43-.43.72-.58,0-.29.72.15.87,0,.29-.58,1.73-1,2.59-1.88.15-.14-.14-.28.44-.28h.29c.28-.15.72-.73.86-.73.58-.14,1,.15,1.45,0a.42.42,0,0,1,.43-.43A4.12,4.12,0,0,1,469.06,67a7,7,0,0,0,1,.72c0,.29-.14.72,0,.86s.29-.14.43,0a10.28,10.28,0,0,0,.44,1.16c.14.29.72.29,1,.43a5.5,5.5,0,0,1,.43,1.16c.87,1.3,1.3,4.61.29,6.06-.14.58-.43,2.45-.72,3.46-.15.15-.44,0-.29.58,0,.43-.29.58-.43,1a7.13,7.13,0,0,1-.58,2.16,18.45,18.45,0,0,1-.43,2c.14.72.28,0,.72,0,6.06-1.3,9.81-4.77,14.29-7.65,2.31.43,3.46,1.15,3.6,4a1.68,1.68,0,0,1-.43,2,37.68,37.68,0,0,1-3.46,2.74c-.29.14-.58.72-.87.87l-2,1a6.17,6.17,0,0,1-2,1.15,3.6,3.6,0,0,0-1.15.43c-.15,0-.58.58-.73.58a4.32,4.32,0,0,1-1.3.43,8.77,8.77,0,0,1-5.62.87s0-.43-.29-.43c-.87,0-1.73-1-2.6-1.45-1.16-1-2.89-1.3-4-2.59-.15-.29-.43-.29-.43-.44-.15-.43-.87-.86-1-1.58,0-.29-.86-1-1-2-.86-3,.58-6.35,1.45-9.09-1.59.15-1.45,1-2.89.29-1.15.43.72,1-.29,1.59a4,4,0,0,1-1.3,0c-.43.14.29.58-.14.86a8.38,8.38,0,0,0-1.16.73,19.48,19.48,0,0,0-1.58,1.15c-1.3,1.15-2.89,2.31-4.33,3.46-1.74,1.74-3.61,3.76-5.63,5.63-.87,1.16-1.59,1.3-2,2.6-.15.58-.58.87-.72,1.73a5.21,5.21,0,0,1-.15,1.59c-.14.29-.72.58-.72.87s-.14.57-.29,1c-.43,1.58-1.44,3.89-1.88,6.2-.14.58-.43,1.16-.57,1.74s0,1.44-.87,1.87c0,1.59,1.16,2.6.43,3.32-.86,0-1.29-2.74-2.16-1.3-.58-.58-1.3-.86-1.44-2-1.45-.29-3.32-.43-4.33-1.44a3.12,3.12,0,0,0-.15-1.16,13.57,13.57,0,0,1-.43-3.46,5.61,5.61,0,0,1,.29-2.17c-.15-.28.29-.43.29-.43,0-.43-.58-1.44-.58-2,0,.15.43,0,.29-.14,0-1-.15-1.3.43-2.17a6.89,6.89,0,0,1,.15-1.59,2.79,2.79,0,0,1,.28-1c.15-.86.73-3.17,1.16-4.61a.5.5,0,0,0,.43-.29V84.64a20.66,20.66,0,0,0,1-3.17c0-.15.29-.15.29-.58a29,29,0,0,1,.72-3c.15-.58,0-1,.15-1.59.29-.29.86-.57,1-.72a7.69,7.69,0,0,1,.57-2.31,6.3,6.3,0,0,1,.73-1,11,11,0,0,0,1-2.45c.14,0,.28-.15.43-.15a7.19,7.19,0,0,0,.58-1.87c-.15-.15.14-.58.28-.72s.73-.44.73-.73a7.52,7.52,0,0,0,.57-1.15c.15-.29.58-.43.73-.72s-.29-.58-.15-.72a11.65,11.65,0,0,0,2.17-2.31c.43-.58,1.73-2.17,2.31-2.75.43-.28.86-.14,1.29-.43a1.77,1.77,0,0,1,.58-.29c0-.14.43,0,.15-.29,1.15-.28,1.58.15,1.44,1h2.45c.72.29.29,1.88,1.16,1.88a3.28,3.28,0,0,1,1.87,2l.58,1.16c.15.14,1.59.57,1.3,1.44C457.66,65.88,456.94,66.6,456.5,67Zm1.74,8.08a1.62,1.62,0,0,1,.14.72c.29,0,.43.29.72.43-.14-.57.58-1-.14-1.15.14.29.14.58-.29.43A.38.38,0,0,0,458.24,75.12Z"/><path class="cls-1" d="M527.22,89.7c-.14,0-.43.14-.57.14,2.31,4.76,0,9.24-2.46,13.13l-.72,1.3c-.14.15-.43.29-.43.44s-.15.86-.43,1.15a27.68,27.68,0,0,1-2,2l-3.89,4c-.58.58-1.16,1.73-1.59,2-.14.15-.72-.14-.87,0a4.34,4.34,0,0,1-1.73,1.3c-.14,0-1.15.29-1.3.29,0,.15.15.43,0,.43-.29.15-.86-.14-.86,0-1,1.16-5.34,1.16-7.51.44,0,0,0-.44-.29-.44s-1.3.15-1.44,0c-.29-.28-1-.28-2-.72-.14-.14,0-.43-.58-.43s-1.44-.72-2-1.3l-1.73-1.59a7,7,0,0,0-2.17-1.44l-2-1.3a10.5,10.5,0,0,1-2-1.73,10.35,10.35,0,0,1-1.3-1.16c0-.14.15-.72,0-.86a3.72,3.72,0,0,1-1.15-1.59,11.49,11.49,0,0,1-.87-2.6c1.3-1.44,3-.57,4.48-.86s2.74-.87,4.33-1.16l2-.43a12.07,12.07,0,0,1,2-.43c.14,0,0-.44.43-.44.72,0,.87-.29,1.45-.43l4.61-1.59c.15,0,.73.15.73,0a16.46,16.46,0,0,1,2.16-1c.15,0,0-.29.43-.43,1,0,1.74-.87,2.75-1.3.14-.14.86.14,1,0v-.43c.14,0,.72.14.86,0,.44-.58,2.46-1,3.75-1.59.29-.15,0-.43.44-.43s.86-.87,1.73-.87a.92.92,0,0,0,.72-.72c-8.51.29-15,2.45-24.39,2a33.72,33.72,0,0,0-2.89-2,18.75,18.75,0,0,1-2.16-2.6,9.28,9.28,0,0,1-2.46-.72c-.43-.29-.86-.43-1.15-1a5.14,5.14,0,0,1-1.88-2s-.43-1.16-.43-1.3-.43.14-.43,0a14.74,14.74,0,0,1,0-5s.29,0,.43-.58c0-.87,1.16-2.6,1.88-3.61.14-.29.43,0,.43-.43s.72-.58,1.15-1.16c.15-.14-.14-.72,0-.86a18.32,18.32,0,0,0,2.17-1.73,23.92,23.92,0,0,1,3.17-3.47c.29-.29.58-.72,1-.86.14-.15.72.14.86,0s.29-.73.29-.87l1.3-.29c.14-.14.29-.86.43-.86a5.82,5.82,0,0,0,1.59-.87c.29-.14,0-.29.43-.43s1.45-.87,1.73-1.16c1,.44-.43,1-.72,1.16a12.08,12.08,0,0,1-1.44,1.3c-.29.28-.87.14-1.16.43a14.05,14.05,0,0,0-1.73,2c5.49-3.61,16.46-12.27,24.83-10.39a2.69,2.69,0,0,0,.57.43,7.08,7.08,0,0,1,1.59.43,13.94,13.94,0,0,1,1.59,2,9.08,9.08,0,0,1,1.73,2.17c.87,1.3,4,4,2.6,6.49-2.6.44-1.73-2.45-3.9-2.45-1.58.58-3.46.43-5.05.87l-.72.86a4,4,0,0,0-1.3,0c-.29.15-.58.72-.87.72-.14.15-.72,0-.72,0a7,7,0,0,1-2.16,1.45c-.43.29-.58.72-.87,1-.14,0-.72-.15-.86,0,0,0,.14.29,0,.29-.29.29-1,.29-1.3.43s-.29.72-.44.87c-.43.28-1,.14-1.29.43-.15.14-.15.72-.44.86s-.86,0-1.15.29l-.44.87c-.43.29-.86.14-1.29.43-.15.15-.15.58-.29.87-1.16.86-2.31,1.44-3.47,2.45a7.47,7.47,0,0,1-1.3,1.73c-.57.73-1.87,1.16-2.59,2,0,.15.14.73,0,.87s-1.59.87-1.16,1.73c6.21-.29,16.17-2.6,21.94-.72a.28.28,0,0,0,.29.29,8.3,8.3,0,0,1,1.87.43c1.3,1,2.17,3.61,4,4.62l1.15-.43a106.3,106.3,0,0,0,10-6.35c.29-.87,2.16.14,3,.29.43,1.73-1,2.31-1.88,3s-1.73,1.15-2.45,1.87a49.05,49.05,0,0,1-5.2,3.18l-2.16,1.44Z"/><path class="cls-1" d="M513.8,96.34a9.38,9.38,0,0,1-3.46,1.58c-.58.29-1,.15-1.73.44l-.73.86c-.57.29-1.15.15-1.73.43l-1.59.73a7.3,7.3,0,0,1-1.73.43,2.19,2.19,0,0,0-.29.43l-2.59.44c-.73.14-1.74.57-2.31.72a28,28,0,0,1-6.21,1.44,2.22,2.22,0,0,0,.72,2c.15.15.72,0,.87,0,.43.15.72.72,1,.87a6.27,6.27,0,0,0,1.59.43.54.54,0,0,1,.43.29,5.42,5.42,0,0,0,3.46,0c1.16-.15,1.59,0,2-.29a6.19,6.19,0,0,1,2.17-.87c.43,0,.14-.28.43-.43l1.59-.86c.43-.29.72-.87,1.3-1.16a8.65,8.65,0,0,0,1.59-.87,10.32,10.32,0,0,1,1.29-1.29c.44-.44.58-.87,1.3-1.3s1.59-.73,1.74-1.16c0-.58.14-.29.43-.43.58-.87,1.59-1.73,1.73-2.45Z"/><path class="cls-1" d="M167.52,320.44a12,12,0,0,0,2.4-.67,24.48,24.48,0,0,1,3.34-1.2c.13,0-.27-.4.27-.4h.4c.4-.13.53-.4,1.06-.4s2.14-.8,3.34-1.2c.53-.13,1.2-.66,1.73-.8a2.23,2.23,0,0,0,1.6-.4,11.83,11.83,0,0,1,1.34-.26c2.26-.67,5.87-2.14,8.67-2.94l5.6-1.6a43.58,43.58,0,0,1,12.41-1.87c.53.67,1.73.54,2,1.6.13.54.66.54.93.8.67.67.27,1.2.8,2.27.13.54,1.2.54,1.07,1.74.26.8,1.73.13,1.73,1.2a8,8,0,0,1,2,2.26c.94.94,1.6,1.34,1.6,2.67-.26,1.6-1.86,1.6-2.13,2.8-.67-.4-1.33-1.6-2-.66-6.14,1.6-12.41,3.2-18.54,4.93-.54-.67-.27.4-.67.4s-.93-.53-1.2-.4.13,1.07-.4.94c-.13.13-.4-.54-.4-.54-.54,0-.14.8-.67.8,0,0,0-.53-.67-.26a12.31,12.31,0,0,0-2,.66c-.53.14-.66.14-1.06.27a8.75,8.75,0,0,1-.67,1.07c-.4.13-.4-.4-.53-.54a10.37,10.37,0,0,0-1.74.8,5.36,5.36,0,0,1-2.4.8c-.27.14-.67.4-1.33.8-1.87.8-3.87,1.34-6,2.27-.66.14-.93.67-1.6.8a1.64,1.64,0,0,0-.8,0c-.53.27-1.06.94-1.6,1.07-.67.4-1.2.53-1.87.93a35.76,35.76,0,0,1-8.4,2.8c-2,.27-2.13-1.73-3.33-2.53-.94,0-1.87.27-2.41-.27-.26-.93-.8-1.46-.8-2.8-1.2,0-1.73-.67-2.66-1.07-.67.67-1.34,0-2.54,0-.13-.4-.13-.53-.53-.8a2.45,2.45,0,0,1-.4-1.2,12.58,12.58,0,0,1-2.14-2.8,6.93,6.93,0,0,1-.4-3.07,7,7,0,0,0,.4-2.4c.14,0,.4.14.4-.4v-.26c0-.27.14-.4.27-.4.13-1.2-.13-2.54,0-3.61,0-.13.4,0,.4-.53a5.63,5.63,0,0,1,.13-2.53c.54-3.47,1.07-6.27,1.74-9.47,0-.14.4,0,.4-.4,0-.14-.27-.27-.27-.27.27-.4,1.07-1.87.8-2.54a6.39,6.39,0,0,1,.54-2c0-.13,0-.93.26-1.2,0,0,.27.27.27,0a5.89,5.89,0,0,0-.13-.66,5.63,5.63,0,0,0,1.06-2.94,19.68,19.68,0,0,1,1.2-3.73,3.58,3.58,0,0,1,.14-1.21h.4a3.4,3.4,0,0,0-.27-.66c0-.27.4,0,.4,0,.13-.54,0-1.07.13-1.6s.54-.14.67-.54c0,0-.27-.66-.13-.8h.4c.13-.53,0-1.06.13-1.6,0-.13.4,0,.4-.26-.27-.27,0-1.07,0-1.21s.67-.26.8-.4c.13-.8,0-1.2.4-1.86.67-1.87,1.6-4.4,2.67-6.67.4-.94.67-2,1.07-2.8,0-.14.26,0,.13-.4s.53-.4.67-.8c.26-.67-.14-1.2.26-1.74.14-.27.67-.67.8-.93a2.2,2.2,0,0,0,.14-.94,36.83,36.83,0,0,0,1.6-3.73c.13-.27.53,0,.4-.4s.4-.53.67-.94a9.32,9.32,0,0,1,.26-2c.27-.13.4,0,.4-.26s.14-.67.14-.94a9.55,9.55,0,0,0,1.2-1.2s-.4-.53-.14-.66c0-.14.67-.14.67-.4s-.4-.67-.13-.8c.66-.54.8-1.61,1.33-2.67.13-.4.4,0,.4-.54s.4-.4.67-.8c0-.13-.4-.66-.27-.8a4.77,4.77,0,0,0,1.07-.66c0-.14-.27-.67-.14-.67,0-.27.54-.4.67-.53s-.4-.67-.13-.67c.13-.4,1.07-.53.8-1.2,0-.27.27-.8.4-.8a15.94,15.94,0,0,1,1.33-2.54c1.34-2,2.27-4,3.6-3.73,1.74.13,1.87,1.2,2.94,3.07,1.07.93,1.6,2.66,2.4,4-.53,0-.13.4-.27.8s-.4.67-.53,1.07-.27.8-.53,1.2c-.4.13-.14,0-.4.26s0,.94-.14,1.2-.66.27-.66.4.13.67.13.94a3.44,3.44,0,0,0-.67.66c-.13.94.14,1.87-.66,2.54.26.53.66,0,.66-.53.27-.14.27-.67.54-1.07s.53-.54.66-.94a6.73,6.73,0,0,0,.8-2c0-.13.4,0,.27-.26a4.45,4.45,0,0,1,.8-1.6c.53-.27.67-1.47,1.6-.8-1.47,4.4-2.8,8.93-4.53,13.34a5.06,5.06,0,0,1-.54,1.2c-.13.4,0,.93-.13,1.2a3,3,0,0,1-.67.66c0,.4-.53,1.07-.4,1.6a3.2,3.2,0,0,1-.27.94.89.89,0,0,0-.53.66c-.4.54,0,.94-.27,1.47,0,.54-.4.67-.4,1.07A27,27,0,0,0,177,277c-1.2,2.94-2.26,5.87-3.06,8.54-4.14,11.74-8.28,23.35-10.68,36.15,1.6-1.2,1.2-4,1.87-5.87,0-.4.4-.13.53,0a2,2,0,0,0-.26.8c0,1.74-.94,2.8-.8,4.67A15.1,15.1,0,0,0,167.52,320.44Z"/><path class="cls-1" d="M248.09,323.09c1.26-.16,13.5-8,14.76-8.64-.16,0,.31.47.63.16a.56.56,0,0,1-.16-.31,12.1,12.1,0,0,0,2-1.1c.47.78-.63,1.1-1.1,1.41-.16.31,0,.94-.31,1.1-.16.16-11.93,8.16-12.09,8.32l-1.26.94c-.15,0-.94-.16-1.09,0-.79.94-4.24.63-6.91.63-2.83-1.57-5.65-2.83-6.75-5.81a12.39,12.39,0,0,1-3.3-3c-.16-.32-.94-.79-1.1-.94,0-.16.16-.79,0-.95,0,0-.47.16-.47,0-.16-.15,0-.62-.16-.78,0,0-.31.16-.47,0,0-.16,0-.79-.15-.79-.63-.47-.16-1.25-.47-1.72-.63-.47-.63-.94-.95-2.67a15.72,15.72,0,0,1-.62-6.59,1.13,1.13,0,0,1,.47-.48c0-.31-.63-1.57-.16-1.72.47-.47.47-2.36.94-3.46,0-.15-.31-.62-.16-.78,0,0,.48.16.48,0s-.16-.79,0-.79c0-.15.47,0,.47,0s-.32-.78-.16-.94c.47-.31.94-3,1.26-3.92l.94-.63A23.68,23.68,0,0,1,233,287c.32-.31.79-.63.79-.94.15-.16.15-.47.47-.79.16-.47.78-.78,1.1-1.25.31-.32,0-1.1.31-1.41.63-.48,1.73-.79,2.36-1.57,1.25-1.42,1.41-2.52,2.66-3.3.32-.16.79-.94,1.42-1.26.15-.31.78-.15,1.1-.47.47-.31.47-.47.94-.78a10.84,10.84,0,0,1,9.42-2.36s0,.63.47.63a3.22,3.22,0,0,1,2,1.26,10.45,10.45,0,0,1,3.61,3.76,16.59,16.59,0,0,1,1.57,3.3c.16.16.16.79.16.79.62.47.47,1.09.62,1.88.32.47.79.94.63,1.57,0,.47-.94.47-.78,1.41-.16,1.26.78,2.51.94,3.77,0,.78-.31.78-.31,1.41,0,.47.31,1.26.15,1.57,0,.16-.31,0-.47.47a3.26,3.26,0,0,1-.47,2,7.43,7.43,0,0,1-2.35,3c-.32.15-.63.62-.95.78-.47.32-1.25,0-1.72.32-.32.15-.79.94-1,1.09-1.57.48-3,.79-4.86,1.42-.16,0,0,.31-.32.31-.94.32-1.25.16-1.72.47a2.32,2.32,0,0,1-1.57.32c-.47.15-.16.31-.47.47-.47.31-1,.15-1.57.47-.32.16-.63.63-.94.94a2.44,2.44,0,0,0-1.1.63c-.79.63-1.73,2.2-3.61,2,0,1.88-1.1,3-1,4.87,2.36,1.57,5,.31,6.6,0l3-.95c.78-.15,1.26-.15,1.88-.31.32-.16.63-.79.79-.94.63-.16,1.1,0,1.73-.32.31-.15.62-.62.78-.78.63-.47,1.1-.32,1.73-.63.31-.16.62-.78.94-.94.16,0,.78.16.94,0,.79-.63,2.51-1.57,3.93-2.51a82.91,82.91,0,0,0,8.79-6.28,32.73,32.73,0,0,0,4.23-3.46l2.36-1.57c.31-.62.31-1.72,1.41-1.72,1.42,0,2.2,1.41,2.51,2.19a2.81,2.81,0,0,1-.15,2.52,3.35,3.35,0,0,0-1.1,1.1c-.32.31-.16,1.09-.47,1.25a9.1,9.1,0,0,1-2.2,1.41,16.28,16.28,0,0,0-1.57,1.73c-.63.63-1.1,1.26-1.57,1.73a8.09,8.09,0,0,1-1.73,1.57c-.47.31-.94.15-1.41.47l-.63.94c-.31.16-.63.47-.94.63-.16.31-.94.31-1.41.47-.63.63-.94,1.41-1.57,1.88a11.35,11.35,0,0,0-2,1.26c-.47.16-.63.47-.94.78s-1,.16-1.1.48c-.32.15-.63.62-.95.78s-.94.16-1.25.31c-.79.48-1.26,1.42-1.73,1.89l-1.57.15a11.2,11.2,0,0,1-2,1.57c-.78.32-1.73,1.57-3.3,1.73,1.57,1.73-2-.47-.31,1.26a3,3,0,0,0-1.57-.47c-.94.15.47.62.47.47-.16,1.1-2.2.94-3.45,1.57C246.37,323.72,247.46,323.24,248.09,323.09Zm7.85-41.6c0,.62-.78-.16-1.41,0a4.72,4.72,0,0,0-1.26.62c-.62.32-1.25.16-1.88.48a2.81,2.81,0,0,0-.31,1.09c-.32.16-1,.16-1.42.32-.47.47-.63,1.25-1.1,1.73s-1.57.78-1.25,1.72c-1.42,0-1.73,1.57-2.51,2.51a8.78,8.78,0,0,0-1.1,1.26c-.32.31,0,.94-.32,1.41-.15,0-.78-.15-.94,0-.16.32.32.94.16,1.26,0,.31-.63.47-.79.78-.15.63-1.25,1.57-.31,1.57.31-1.88,2.51-2,2.83-4.08.94-.31,2.19-3.14,3-2.2-.94.79-3,3-2.2,3.46.47-.47,1.57-2.51,2.51-1.26-.63,1.41-2,2-2.2,3.77a6.38,6.38,0,0,0,3.61-1.26,4,4,0,0,1,1.73-.78c.63,0,.32-.32.32-.47a9.85,9.85,0,0,0,1.88-1.26c-.16-.16.63,0,.78,0,.47-.31.63-1.1.95-1.41a4.92,4.92,0,0,0,1.57-2c.15-.16.47-.63.31-.94,0-.32.47-.32.47-.32.16-1.25-.31-2.51-.31-3.77-2.67-.15-3.3,1.1-5,1.57.16-.94,1.42-1.41,2.51-2.19C255,282.59,257.2,282.59,255.94,281.49ZM250,287c-1.1-.47.94-1.1.78-1.73C252.33,285.88,249.66,286,250,287Zm23.86,19.94c1.25-.32,1.72-1.26,2.82-2,.16-.16-.15-.47.63-.47,1.26,0,2.83-3.46,3.93-4.24.15-.47.47-.32.47,0-.16.15-.47.31-.32.63-1.72,1.25-2.35,3-3.61,4.08-1.57,1.25-3.29,1.88-4.24,3.45C272.27,308,274,307.55,273.84,306.92Z"/><path class="cls-1" d="M324.07,323.72a16.45,16.45,0,0,1-4.55,4.08c-2.67,1.57-3.3,1.57-7.38.47-.16,0,0-.47-.47-.47a5.68,5.68,0,0,1-3.92-1.42c-.32-.15,0-.47-.48-.47s-.78-.63-.94-.94l-.47-.63a7,7,0,0,0-.47-1.25c0-.32-.94-.63-.94-.94-.16-.16,0-.63,0-.95A7.36,7.36,0,0,1,304,319c-.79-5.5-.16-13.5,1.88-18.21-.16-.63-.94-.16-.94.47-.63-.16-.31.62-.47.78s-.79-.16-.94,0,.15.79,0,.94a6,6,0,0,0-1.73,1.73c-.31.31-2.2,1.88-2.36,2.83,0,.94-1.88,2-2.82,2.82-.63.79-1.57,1.41-2.36,2.36-.62.62-1.09,1.72-1.72,2.19-.16.16-.79-.15-.94,0s-.32.79-.48.79c-1.09.78-3.92,2.67-6.75,2-.62-.16-1.41-1.26-2.66-1.57-.48-.63-1.73-.63-2.52-.78a9.47,9.47,0,0,1-2.19-.95,23.68,23.68,0,0,0-1.42-2.19c-.31-.48-.94-2.05-1.41-3.14a19.6,19.6,0,0,1-.47-7.54l.94-3.45c0-.47-.16-.79,0-1.1s.79-.63.94-.94c0-.16-.15-.63,0-.79,0,0,.32-1.41.47-1.41.48-.32.63-.79,1-1.41s.78-.63.94-1c.47-.78.47-1.57.94-2.19.31-.63,1.1-1.1,1.73-2,.31-.32.15-.95.62-1.26.16-.31.63-.31.79-.47.31-.32.31-.94.47-1.41a44.31,44.31,0,0,1,4.71-3.93c.31-.31.47-1.26,1.26-1.41.47,0,1.57-1.42,2.19-2,.47-.32,1.1-.16,1.42-.47l.47-.95a16.52,16.52,0,0,1,2.67-.78c.47-.16.78-.79,1.1-.94.15-.16.94.15.94,0,.31-.32.31-.32.94-.47a7,7,0,0,0,1.25-.47c1.89-.32,5.19-1.1,8.33-.32.47.16,1.88.47,2.66.79.16.15-.15.47.32.47,1.41.15,2.51,3,4.24,3.76,3-.78,4.71-6.43,8.16-5,.16,0,.78-.16.94,0,0,0-.16.32,0,.32,1.57.78,3.45,2,4.08,4.08-.15,1.88-1.41,2.82-2.19,4.39a8.64,8.64,0,0,0-.95,1.73c0,.16-.47.78-.47.94l-.94.79c-.47.94-.47,1.88-.94,2.67,0,.31-.32,0-.47.47a9.45,9.45,0,0,0-.32,1.09l-.47,1.26c-.15.31-.78.63-.94.94-.31.47-.16.94-.47,1.42l-2.2,5.65-.47.78a3.91,3.91,0,0,0-.47,1.41c0,.32-.31.32-.31.48-.32.47.15,1.25,0,1.72s-1,.79-1,.94c-.15.32.16,1.57,0,1.73a2.52,2.52,0,0,0-.62.94,72.32,72.32,0,0,0-1.73,8.79c-.31,1.89-1.88,5-1.1,7.7,1.41.94,2.2-.47,2.83-.95a14.4,14.4,0,0,0,3.61-3.29l.15.31.47-.78a10.92,10.92,0,0,1,.95-1.42c0-.31.31-.31.31-.47.31-.31.31-.94.63-1.41a2.17,2.17,0,0,1,.94-.31,7.2,7.2,0,0,1,.94-2.36c.16-.16.32.16.32-.31.15-.63.94-.79.94-1.42s1.57-2.66,2.2-3.76l.62-.79a1.22,1.22,0,0,1,.47-.47,12.4,12.4,0,0,0,1-2c0-.47.78-.63.78-1.26a12.93,12.93,0,0,1,1.41-2.19c.16-.32.16-.63.48-.95l.47-.62c.94-1.73,1.41-3.93,3-5.34a6.61,6.61,0,0,1,4.87,3.14c-1.42,4.24-4.09,8.16-6.6,12.56l-.47.78-.78,1.42c-.47.31-.47,1.25-.95,2.19l-.94.47a11.81,11.81,0,0,1-.78,2.2l-1.42,2.36-1.09,1.57c0,.15-.32,1.25-.47,1.25a9.65,9.65,0,0,0-1.26,1.89l-.79,1.1Zm-32-28.89c0,.47-.63.94-.95,1.26-.31.62-.94.78-1.25,1.41a13.69,13.69,0,0,0-1.88,3.77c1.25-1.1,1.72-2.52,2.66-3.77.47-.63,1.42-.79,1.89-1.41.31-.32.15-.95.47-1.26a1.78,1.78,0,0,1,1.25-.47,3.32,3.32,0,0,1-.78,1.25c-.31.48-1.1.95-1.41,1.42s-.47,1.41-.95,1.88c-.31.63-.94.94-1.25,1.41-.16.16,0,.63,0,.95-.16.15-.79.15-.94.31a7.22,7.22,0,0,0-.47,1.41c0,.79-.79,1.1-.79,1.73-.16.63-1.57,1.88-.47,2.2,7.38-6.91,14.29-15.07,21.35-22.76a17.63,17.63,0,0,0-7.69,4.23c-.94.63-1.57,1.42-2.2,1.73a15,15,0,0,0-2.83,2.36c-.47.15-.78,1.72-1.57.94a27.81,27.81,0,0,0,5.66-5.65,13,13,0,0,0-3.61,2.35C295.19,291.06,292.05,294.2,292.05,294.83Zm14.28,22.45c-.31.94.16,3.3.94,1.73C305.55,318.85,308.37,316.65,306.33,317.28Zm3.61,0c-.78-.63-1.1-1.41-1.88-1.88.47,1.56-1.26,2.82.47,3.13.16-.62-.16-1.72.47-1.88,1.1.94-1.25,4.08.94,4.55A8.37,8.37,0,0,1,309.94,317.28Zm0-6c-1.1-.31-1.88,1.89-.94,2.2C309,312.41,309.79,312.1,309.94,311.31Zm1.26,0c.16-.78,1.41-3.14-.47-2.82.15,2.2-.79,3.14-.79,5C311,314,311,312.26,311.2,311.31Z"/><path class="cls-1" d="M359.55,306c-1.26,1.09-2.36,2.19-3.61,3.45-.63.47-1.26,1.26-1.73,1.57s-.78.63-1.25.94c-.32.16-.63.63-.95.79a3.84,3.84,0,0,1-1.41.47,10.2,10.2,0,0,0-.63.94,14.71,14.71,0,0,1-9,2c-1.88-1.73-4.55-2.83-5-6a27.42,27.42,0,0,0-3.61-2c-.31-.31,0-1.41-.47-1.72a13.66,13.66,0,0,1-.63-2.36c-1.25-4.39,0-9.26,2-13.18a15.15,15.15,0,0,1,1.89-3c.15-.31.31,0,.31-.31a3.26,3.26,0,0,1,.47-1.1c.16-.16.79-.31.94-.47s-.15-.63,0-.79c.32-.31,1.57-.78,1.57-1.72,0-.79,2.2-2,2.83-2.83,1.57-1.57,3-3.61,4.24-4.86a24,24,0,0,1,2.19-1.26c.48-.31.63-.79,1-.94a2.64,2.64,0,0,0,.78-.32l.94-.94c.16,0,.63.16.63,0,.16,0,0-.31,0-.31a4.71,4.71,0,0,1,2.36-.79c.15-.15.62-.78.78-.94a6.78,6.78,0,0,0,1.26-.47c2.19-.94,6.12-2,9.26-1.26a15,15,0,0,0,2,.47c.31,0,0,.32.47.48.47,0,.47.62.79.78.62.31,1.09.31,1.57.94.94.47,1.25,1.89,2.19,1.57,1.57.47.79-1.57,2.2-1.25v1.25c.94-.15.94-1.41,1.57-1.57,1.26-.63,1.57.79,2.2,1.1.63.63,2.2.63,1.88,1.73.32,1.41-1.57.63-1.88,1.25-.32,2.2-.94,4.56-1.26,6.13-.15.31,0,.62,0,.94-.15.16-.94.47-.94.63a15.17,15.17,0,0,0-.31,2.51c-.16.78-.63,1.57-.79,2.35-.47,1.1-.47,2-.94,3-.16.15-.16,1.25-.31,1.41-.95.63-.63,3.29-1.42,5,.63,0,.32-.63.47-1.1s.95-.94.95-1.1c.15-.62.15-1.72.31-2.51,0-.15.31-.15.47-.31A56,56,0,0,1,376.5,284c0-.16-.15-.79,0-.94.63-.32.63-3,2.2-4.09.31-1.88-.16-5,2.51-3.61.16,1.89-.78.32-1.57.48.63,2.19-.47,2.82,0,5.18,1.42-.16,1.42-2,1.57-3.77.79.94.47,1.72.47,2.67-.15,1.25-.62,2.82-.78,4.08a61.22,61.22,0,0,1-1.89,7.85,8.19,8.19,0,0,1-.78,2.82,25.83,25.83,0,0,0-1.26,4.71,11.53,11.53,0,0,0-.47,2.2c-.15,0-.47,0-.47.31v.48a1.22,1.22,0,0,1-.47.47c-.31,1.1-.31,2.82-.78,4.08,0,.15-.32,0-.32.31a3.43,3.43,0,0,0,0,1.26c-.31.15-.63.94-.94,1.72,1.57-.31,2.51-1.57,3.61-2.51A6.81,6.81,0,0,0,379,306c.32-.32,1.1-.16,1.42-.47.31-.16.31-.79.47-1.1a62.11,62.11,0,0,0,4.39-4.56,18.15,18.15,0,0,0,3.3-3.61c.31-.31.79-.47.94-.78.47-.47.16-2,1.73-1.89,0,2.67-1.57,4.4-3,6.13a49.37,49.37,0,0,0-3.3,4.08c-.94,1.25-2.51,2.82-3.77,4.39,2.36-2.19,4.87-3.92,6.6-6.59.15-.16.47,0,.47-.31a23.13,23.13,0,0,1,2.19-3,6.36,6.36,0,0,0,1.1-1.57c.47-.47.95-1.1,1.89-.94.78,1.1-.16,1.89-.32,2.51a29.44,29.44,0,0,1-2.35,3.3c-.16.16-.32,0-.32.31,0,.63-.78,1.26-1.25,1.89-.47.47-.63,1.57-1.41,2.2-1.1,1.57-3,2.66-4.56,4.23a22.49,22.49,0,0,1-2,2.2l-2.2,2.2a31.6,31.6,0,0,0-3.76,3c-.16,0-.32.63-.47.63-.16.16-.63-.16-.79,0a14.3,14.3,0,0,1-2.2,2.2,14.81,14.81,0,0,1-2.51,1.88,201.78,201.78,0,0,1-10.2,25.59c-1.42-.47-.63-1.73-.47-2.51.15,0,.47,0,.47-.47v-.32c.15-.47.31-.78.47-1.25s.31-.16.47-.47a3.74,3.74,0,0,1,.31-1.73c.16-.47.79-.63.79-.94.63-.63.16-1.26.63-1.57.15-.32.78-.79.78-.94a7.29,7.29,0,0,0,.63-2.2s.47-.16.47-.47-.78-.79-.47-1.1a3.57,3.57,0,0,0,1.57-2.67c-1.57-.31-.31,2.83-2.67,2.2,1.1,1.41-.16,1.72-.31,3.29-.95.32-.95-.31-.95-.62-1.09.62-.47.94-.47,2.51-2.19-.32-1.1,2.51-2.35,3-.63,1.1,1.88,1.1.31,1.73-.15,1.72-.15.16-.78,0a6.8,6.8,0,0,0-.94,2.51.31.31,0,0,0-.32.31c0,.32-.31.47-.31.95-.16.47.47.78,0,1.09-.94,1.26-2.36,1.73-2.2,4.24,1.26.16,1.1-1.1,1.73-2,.78.63.31,1.57,1.1.63,1.41-.16.78-2.67,1.41-3.61.31.31.78.63.63,1.26-.95.31-.79,1.88-1.1,2.82-.16.16-.47,0-.47.47,0,.79-.47,1.1-.79,2-.78,1.73-1.72,3.46-2.82,5.65-.16,0-.47.16-.47.32-.32.31-.32.94-.48,1.25-.15.16-.78.32-.94.48-.15.31.16.62,0,.78s-.63.63-.94.94a2.49,2.49,0,0,1-.63,1.1,5.55,5.55,0,0,0-.94.94,6.06,6.06,0,0,1-1.26,2.2,29,29,0,0,1-3,2.2c-.15.16,0,.47-.31.47-.63,0-.63.63-1.1.94-.16,0-.63-.16-.79,0a.22.22,0,0,1,0,.32c-.15,0-.78-.16-.78,0-.79,1.09-6.12,1.09-8.48.31-.63-.16-1.72-.47-2.51-.63-.47-.16-.94-.78-1.57-.94-1.1-.31-2.51.16-3.45,0l-.47-.47c-.95-.16-1.42-.79-2-.79s-1.26-1.41-2.05-2.35a10.08,10.08,0,0,1-2.19-1.73c0-.16.15-.63,0-.78a3.71,3.71,0,0,1-.79-2.2c-.94-4.24,1.1-8.79,3.3-12.4.16-.32.47,0,.47-.47,0-.63.78-.79.78-1.26,0-.63,2.05-1.41,2.05-2.51,0-.47,2.19-2.36,2.66-3,.32-.32.63-.95,1.26-1.26.16-.16.78,0,.78,0a3.08,3.08,0,0,1,1.73-1.73c.16-.15.63,0,.63,0a3.55,3.55,0,0,1,.47-.78c.63-.47,1.26-.47,1.88-.94.16-.16.32-.79.63-.95.16,0,.47.16.63,0,.47-.31.94-.94,1.41-1.25a6.64,6.64,0,0,1,1.1-.94,4.73,4.73,0,0,0,1.26-1.1c.47-.32,1.25-.16,1.72-.47a2.87,2.87,0,0,1,.32-1.1c.16,0,.63.16.94,0,.16,0,.31-.63.31-.63.32-.16.63,0,.79,0,.63-.31,1.1-1.1,1.41-1.41.16-.16.79.15.79,0,.15-.16.31-.63.47-.79.15,0,.78.16.78,0,.16,0,.32-.78.47-.78.47-.32,1.42-.16,1.73-.47.47-.32.94-.95,1.41-1.26.16-.16.32-.16.63-.47a10,10,0,0,0,1.41-.79c.16-.31,1.1-.78,1.73-1.25a28.52,28.52,0,0,1,2-6.44c0-.15.32-.15.32-.47.31-.94,0-1.1.47-2,0-.16.47,0,.47-.47a15.39,15.39,0,0,1,.47-1.88c0-.16.63-.63.63-.79s0-.63,0-.94a4.12,4.12,0,0,0,.47-1.1c.31-1.26,1.57-3.45,2-5.49C360.8,303.46,360,305.51,359.55,306Zm-15.07,33.43c-.79.47-1.41.47-1.89.79a2.17,2.17,0,0,1-.31.94c-.47.31-1.1,0-1.26.47-.31.32-.47.94-.94,1.26a2.45,2.45,0,0,1-1.57.78c-.15,0-.31.79-.47.94-1.25,1.26-2.51,2.2-3.77,3.61a20.58,20.58,0,0,1-1.88,2.2c-.47.94-1.57,2.2-1.57,2.67s-.47.31-.47.47c-.31.94-.63,2.67-.79,3a6.32,6.32,0,0,1-.31,1.26,8.69,8.69,0,0,0-.94,5.65,2.26,2.26,0,0,0,2.51-.94c.16-.16.79.16.79,0,.31-.16.47-.94.78-1.26a8.27,8.27,0,0,1,1.88-.78c.79-.63,1.1-1.88,1.73-2.67.47-.47,1.26-.63,1.26-1.26s.94-1.25,1.25-1.57L339,354c.16-.47.95-.94,1.1-1.25.16-.16,0-.63,0-.79.16-.15.79-.31.94-.47s.32-1.41.32-1.41c0-.79.78-.79.94-1.41,0-.48.31-.16.31-.48.32-.47.16-.94.32-1.57.16-.15.94-.31,1.1-.47s-.16-.62,0-.78c0,0,.31.16.47,0,.16,0-.16-.63,0-.79,0-.15.31,0,.31,0,.16-.15.32-1.09.47-1.25,1.26-2.2,1.57-4.24,3-5.65,0-.47,0-1.1-.95-.95-.47,1.26-1.41,1.42-2,1.89C345,338.79,344.79,339.1,344.48,339.41Zm3.77-46.31a15.6,15.6,0,0,1-1.42,1.57c0,.32-.47.63-.78.94-.16.48-.16.79-.47.95-.16.31-.63.47-.79.78s-.15.63-.31.94c-.32.32-1.1,1-1.1,1.1,0,.63-.94,1.57-1.1,1.89-.16,0,0,.47,0,.62-.16.16-.94.79,0,.95.47-.79,1.41-.95,2.2-1.26.47-.31,1.41-.78,2-1.26a9.41,9.41,0,0,1,2.2-1.09,16.84,16.84,0,0,1,1.72-1.89,12.1,12.1,0,0,1,2-1.1,10.36,10.36,0,0,1,1.73-1.88c1.1-1.1,2.51-2,3.77-3.45a22.38,22.38,0,0,1,1.57-2.67c.47-.63,1.1-.63,1.25-1.1,0-.63.79-1.26.95-1.57a13.17,13.17,0,0,0,2.19-2c.63-.63.95-2,2.05-2.51-.16-.79,1.25-1.26-.32-1.1a43.11,43.11,0,0,0-14.13,9.26A22.93,22.93,0,0,0,348.25,293.1Zm8.79,41c-.32,1.09,0,2.51-.79,3.14-.16,0-.47,0-.31-.48.31-.94.47-2.19,1.1-2.82-1-.94-2.51.78-2,2.82-1.26.16-1.73,2.52-.79,3.46-1.41-1.41-.78.94-2.2.94.47-1.41.95-2.51,1.42-3.92-2,.31-1.42,3.14-2.36,4.39a2.47,2.47,0,0,1,1.89.47c0-.47,1.09-2,1.25-.94-1.57.79.63,1.26.32,2.2-.16.16-.16.47-.32.78-.16.16-.63-.31-.47-.47-.47.32-.78.63-1.26.94-.78.16-1.41-.15-1.88.32,0-.32,0-.79-.16-.79a3.78,3.78,0,0,0,.16,2c-.31,0-.31,1.26,0,1.26.16-.47.79-.94.94-.31-.78,0-.15,1.09-.94,1.09,0-.15-.16-.31-.63-.31.32,1.26-1.41.47-1.25,1.73,1.41,0-1.1,1.57.31,1.41,1.41-.94-.31-2.2,1.57-2.35-.31.62,0,2.19-.63,2.82,1.42.63.16-1.73,1.1-1.41.63,1.57-1.1,2.67,0,3.45-.16-.78.63-.78.94-1.1a12,12,0,0,1,.95-2s.78.16.78,0c.16-.15-.16-.78,0-.78.63-.47.47-1.1.79-1.73a2.41,2.41,0,0,0,.47-2c1.57-.47,1.09-2.2,1.57-3.45.15-.16.78-.63.94-.79a2.76,2.76,0,0,0,.47-.94c0-.47.16-.31.31-.47a21.26,21.26,0,0,0,.32-3.46s.47-.15.47-.31c.15-.31-.16-.94,0-1.41.15-.16.94-.32.94-.47.31-1.1,0-1.89.31-2.67a4.78,4.78,0,0,0,.79-1.57c.16-.79,1.88-2.2.63-3-.95.62-.47,1.72-.95,2.51-.15.15-.78.15-.78.47-.63,1.25-.31,2.82-.94,3.77,0,.15-.32,0-.47,0-.16.15.15.78,0,.94s-.47.15-.63.47c-.47.78.16,2.51-1.41,2.2.15-.47.47-.63.47-1.26,0-.94.94-1.26.94-1.88s.16-.16.31-.47c.32-.79-.15-2.2.32-2.83.15-.31.78-.31.94-.47.16-.63-.16-1.26,0-1.73.16-.15.94-.31.78-.78,0-.16-.47,0-.31-.47,0-.16.63-.63.78-.79a23.7,23.7,0,0,0,1.26-3c0-.16-.47.16-.31-.47.15,0,.78-.16.78-.47.47-.94.32-2.2.63-3,0-.15.63-.62.78-.94s-.15-.63,0-.94c.16-.94,1.42-1.88,1.26-3.14-.94-.16-.94.47-1.26.63a1,1,0,0,0-.78-1.1c.31,1.1-.94,1.1-.63,2.51-1.41,0-.47,2-1.73,2,.32,1.57-.78,1.73-.47,3.46-.94-.32-.31,1.25-.78,1.88-.16.16-.79-.16-.94,0s.31,1.1,0,1.57c0,.47-.63.47-.63.94s-.47.16-.47.32c-.47,1.41,0,1.88-.47,2.51-.79-.32-1.89,1.1-.79,1.41.79-1.26,0,.63.79,1.26-.16-.16.94-.79.94,0,.16.62-.47.94-.47,1.41C357.51,334.23,357,334.08,357,334.08Zm-5.5,10c1.1.63,1.26-1.41.47-1.25,0,.31,0,.63-.47.47Zm4.4-5.18v.79H355v-.79Zm0,4.71c-1.1-.47.31-2.2.31-3.45C357.35,341,356.09,342.87,355.94,343.65Zm.31-3.92c.32-.32,0-1.42,1.26-1.1C357.51,339.41,357.19,339.88,356.25,339.73Zm2-21c-.15.79-1.57,2.51-.31,3.14C357.35,320.26,359.86,319.79,358.29,318.69Zm0,5.81v-.94h-.78v.94Zm-.31,7.06c-1.1-.47.47-1.88.31-2.82C359.55,329.52,357.66,330.47,358,331.56Zm4.08-9.73c0,.16-.47.47-.31.79-1.42-.95.78-2.36.31-3.93C363.63,318.22,362.37,321.2,362.06,321.83Zm1.57,1.26a7.46,7.46,0,0,1-1.57,2.67C363.32,325.76,364.26,323.56,363.63,323.09Zm1.1-10.36c-.31-1,1.1-3,0-2a19.82,19.82,0,0,0-.79,2.82C364.42,313.51,364.26,312.88,364.73,312.73Zm.94,11.3a1.47,1.47,0,0,0-1.41.78C365,324.81,365.51,324.66,365.67,324Zm-.94-20.25c.16.47-.16,1.57.47,1.73C365.2,304.25,365.83,303.94,364.73,303.78ZM366.46,327c-.63-.63-1.57-.63-1.73.32C365.36,327.33,366.3,327.48,366.46,327Zm.78-18.05c-.16.16.16.78,0,.94s-.78.16-.78.31a8.56,8.56,0,0,0-.47,2.2c-.16.79-.16,1.73-.32,2.67,1.41.47.47-1.88,2-1.57,0-.63-.63-.78-.94-1.1a2.22,2.22,0,0,0,1.26-1.72c.15-.48.31-.63.47-1.26,0-.16.47-.63.47-.47,0-.63-.63-1.41-.47-1.73,0,0,.78.16.78,0,.32-.16,0-1.88-.31-1.72-.16,1.09-1.26,1.41-1.26,1.72C367.4,308.17,367.71,308.49,367.24,309Zm-.47-4.87c0,.47-1.1,2.36-.31,2.36C366.77,306,367.71,303,366.77,304.09Zm2.83-1.72c0,.62-.48.94-.32,1.72C370.54,304.72,370.54,302.21,369.6,302.37Zm1.88-3.62a.69.69,0,0,0,.31-.94c-.31,0-.31.79-.62.94C370.85,300.17,371.79,300.17,371.48,298.75Z"/><path class="cls-1" d="M422.18,298c-.31-.79-.47,0-1.25,0-.32,1.41-1.73,2.51-2.67,3.61a11.93,11.93,0,0,0-2.36,3.14c-.15.31-.47,0-.47.47,0,.79-2.51,2.83-3.29,3.77a7.22,7.22,0,0,1-1.57,2l-1.26,1.41c-.31.32-.16,1.1-.47,1.42-.31.78-1.41,1.57-2.2,2.51-1.57,1.72-3,3-4.55,4.71-6,7.69-16.95-1.89-16.48-9.58a17.51,17.51,0,0,0,.47-1.88c0-1.1-.47-2-.47-3,.47-5.33,2.82-12.08,5.49-18.36s6.28-13.5,10.36-13.19c1.73.16,2.36,1.26,3.3,2.51s3.29,3.14,3.77,5.65l-2.36,3.46L404.76,289c-.16.32-1.41,2.2-1.41,2.83a2.36,2.36,0,0,1-.48,1.1c-.78,1.72-1.57,3.61-2.35,5.49-8.16,21.66,0,16,10.2,2.36,2.67-3.3,8.48-14.13,11.46-15.39.32-.31.95-.16,1.26-.47a28.64,28.64,0,0,1,1.88-2.2,9.25,9.25,0,0,1,1.26-.78c.63-.63,1.88-2.2,3.77-2,.62,1.1,1.1.94.47,2.51.78-.94,1.25-.32,1.88.31.16.16-.16.79,0,1.1a3.15,3.15,0,0,1,1.57,2c0,.79-1.25,3.93-1.57,5.18-.16.94-.63,1.73-.94,3.14-.16.94-.79,1.57-.94,2.83l-.94,2.82a20.43,20.43,0,0,0-1.57,5.66h.15c-.15.94-1.57,6-1.57,6.75.79,0,1.73-.79,2.51-1.26.48,0,0-.31.63-.31.47,0,2.2-1.57,2.83-2.05s1.41-1.72,2.2-2.19c1.25-.94,2.51-1.57,4.08-2.83.94-.78,3-3.45,4.08-4.71l2.2-2.2c.62-.78,1.1-2.19,2.67-2.19,1.09-.16,1.09,1.09,1.57,1.41.31.63,1.09.94.94,1.88.47.94-.63.63-.63,1.57-.16.63-2.2,1.89-2.2,2.67,0,.47-.94.63-1.57,1.41-.16,0,.16.48,0,.48a10.09,10.09,0,0,0-2.51,1.72c-.31.47-.16.94-.47,1.1l-3,2.83a64.37,64.37,0,0,1-5.66,4.71c-.15.31-.15.31-.62.62-1.26.79-3.61,4.56-6.44,4.4-1.41,0-2.67-1.57-3.77-2.2-.15-.31.16-.78,0-.94s-.94-.16-1.41-.31c-.31-.32-1.1-2.83-1.73-2.83-.62-1.1-.31-3.45-.47-5.65A22.52,22.52,0,0,1,422.18,298Zm-9.1,4.71c.63.47-3.14,2.2-1.41,3,.94-1.25,1.72-2.82,3.29-3.45-.16-.94.63-1.26,0-1.41-.63.78-1.57.78-2.35,1.88ZM428,286.2c0-.16.63.15.79,0,.31-.16.31-1.1.47-1.26l.63-.63c.15-.31.15-.78.47-1.1-.79,0-.32-.47,0-.78-.79-.16-.79-.79-1.57-.47.15.78-.95.47-1.26.78-.16.16,0,.79,0,1.1-.31.63-1.73.94-2.2,1.1,0,1.57-1.41,1.57-1.41,3.3-1.1.15-.94.62-1.26,1.25l-.94.47c-.47.16,0,.79,0,1.1a5.61,5.61,0,0,0-1.25.47l-.47.79c0,1.41-2.05,1.1-1.26,2.67.78.47.63-.63.78-.79.63-.47,1.42-.31,2.2-.63.16-.15-.47-.94,0-1.25.16-.32,1.1-.47,1.73-.47.63-.47.63-1.89,1.88-1.89v-2.19c.94.78,1.73,0,2.2-.63C427.68,287,427.68,286.51,428,286.2Zm-1.88.47c1.1-.94,1.25-3.14,3.14-3.46C428.62,284.94,428,286.51,426.11,286.67Zm3.14,2c0,.15.31.47.63,0-1.57-.47,2.35-1.73.47-2.51-.16.94-2.36,2.51-1.57,2.82A.32.32,0,0,1,429.25,288.71Zm2.35,0c-1.57-.16-1.1,1.41-.47,1.25C431.29,290,431.45,289,431.6,288.71Z"/><path class="cls-1" d="M463.94,323.09c1.26-.16,13.5-8,14.76-8.64-.16,0,.31.47.63.16a.56.56,0,0,1-.16-.31,12.1,12.1,0,0,0,2-1.1c.47.78-.63,1.1-1.1,1.41-.16.31,0,.94-.31,1.1s-11.93,8.16-12.09,8.32l-1.26.94c-.15,0-.94-.16-1.1,0-.78.94-4.23.63-6.9.63-2.83-1.57-5.66-2.83-6.75-5.81a12.09,12.09,0,0,1-3.3-3c-.16-.32-.94-.79-1.1-.94,0-.16.16-.79,0-.95,0,0-.47.16-.47,0-.16-.15,0-.62-.16-.78,0,0-.31.16-.47,0,0-.16,0-.79-.16-.79-.62-.47-.15-1.25-.47-1.72-.62-.47-.62-.94-.94-2.67a15.86,15.86,0,0,1-.63-6.59,1.21,1.21,0,0,1,.47-.48c0-.31-.62-1.57-.15-1.72.47-.47.47-2.36.94-3.46,0-.15-.31-.62-.16-.78,0,0,.47.16.47,0s-.15-.79,0-.79.47,0,.47,0-.31-.78-.15-.94c.47-.31.94-3,1.25-3.92l.95-.63a23.68,23.68,0,0,1,.78-2.67c.31-.31.79-.63.79-.94s.15-.47.47-.79c.15-.47.78-.78,1.09-1.25.32-.32,0-1.1.32-1.41.63-.48,1.73-.79,2.35-1.57,1.26-1.42,1.42-2.52,2.67-3.3.32-.16.79-.94,1.42-1.26.15-.31.78-.15,1.09-.47.48-.31.48-.47.95-.78a10.83,10.83,0,0,1,9.41-2.36s0,.63.48.63a3.22,3.22,0,0,1,2,1.26,10.54,10.54,0,0,1,3.61,3.76,16.59,16.59,0,0,1,1.57,3.3c.15.16.15.79.15.79.63.47.48,1.09.63,1.88.32.47.79.94.63,1.57,0,.47-.94.47-.78,1.41-.16,1.26.78,2.51.94,3.77,0,.78-.32.78-.32,1.41,0,.47.32,1.26.16,1.57,0,.16-.31,0-.47.47a3.26,3.26,0,0,1-.47,2,7.45,7.45,0,0,1-2.36,3c-.31.15-.62.62-.94.78-.47.32-1.25,0-1.73.32-.31.15-.78.94-.94,1.09-1.57.48-3,.79-4.86,1.42-.16,0,0,.31-.32.31-.94.32-1.25.16-1.72.47a2.34,2.34,0,0,1-1.57.32c-.48.15-.16.31-.48.47-.47.31-.94.15-1.56.47-.32.16-.63.63-.95.94a2.55,2.55,0,0,0-1.1.63c-.78.63-1.72,2.2-3.61,2,0,1.88-1.1,3-.94,4.87,2.36,1.57,5,.31,6.6,0l3-.95c.78-.15,1.25-.15,1.88-.31.32-.16.63-.79.79-.94.62-.16,1.1,0,1.72-.32.32-.15.63-.62.79-.78.63-.47,1.1-.32,1.72-.63.32-.16.63-.78.95-.94.15,0,.78.16.94,0,.78-.63,2.51-1.57,3.92-2.51a80.92,80.92,0,0,0,8.79-6.28,33.57,33.57,0,0,0,4.24-3.46l2.36-1.57c.31-.62.31-1.72,1.41-1.72,1.41,0,2.2,1.41,2.51,2.19a2.85,2.85,0,0,1-.15,2.52,3.35,3.35,0,0,0-1.1,1.1c-.32.31-.16,1.09-.47,1.25a9.1,9.1,0,0,1-2.2,1.41,16.28,16.28,0,0,0-1.57,1.73c-.63.63-1.1,1.26-1.57,1.73a8.09,8.09,0,0,1-1.73,1.57c-.47.31-.94.15-1.41.47l-.63.94c-.31.16-.63.47-.94.63-.16.31-.94.31-1.41.47-.63.63-.95,1.41-1.57,1.88a11.35,11.35,0,0,0-2,1.26c-.48.16-.63.47-.95.78-.15.32-.94.16-1.1.48-.31.15-.62.62-.94.78s-.94.16-1.25.31c-.79.48-1.26,1.42-1.73,1.89l-1.57.15a11.2,11.2,0,0,1-2,1.57c-.79.32-1.73,1.57-3.3,1.73,1.57,1.73-2-.47-.31,1.26a3,3,0,0,0-1.57-.47c-.94.15.47.62.47.47-.16,1.1-2.2.94-3.45,1.57C462.21,323.72,463.31,323.24,463.94,323.09Zm7.85-41.6c0,.62-.79-.16-1.41,0a4.57,4.57,0,0,0-1.26.62c-.63.32-1.25.16-1.88.48a2.83,2.83,0,0,0-.32,1.09c-.31.16-.94.16-1.41.32-.47.47-.63,1.25-1.1,1.73s-1.57.78-1.25,1.72c-1.42,0-1.73,1.57-2.52,2.51a9.42,9.42,0,0,0-1.09,1.26c-.32.31,0,.94-.32,1.41-.16,0-.78-.15-.94,0-.16.32.31.94.16,1.26,0,.31-.63.47-.79.78-.16.63-1.25,1.57-.31,1.57.31-1.88,2.51-2,2.82-4.08.95-.31,2.2-3.14,3-2.2-1,.79-3,3-2.2,3.46.47-.47,1.57-2.51,2.51-1.26-.63,1.41-2,2-2.2,3.77a6.38,6.38,0,0,0,3.61-1.26,4,4,0,0,1,1.73-.78c.63,0,.31-.32.31-.47a9.65,9.65,0,0,0,1.89-1.26c-.16-.16.62,0,.78,0,.47-.31.63-1.1.94-1.41a4.76,4.76,0,0,0,1.57-2c.16-.16.47-.63.32-.94s.47-.32.47-.32c.16-1.25-.32-2.51-.32-3.77-2.66-.15-3.29,1.1-5,1.57.16-.94,1.41-1.41,2.51-2.19C470.85,282.59,473.05,282.59,471.79,281.49Zm-6,5.49c-1.09-.47.95-1.1.79-1.73C468.18,285.88,465.51,286,465.82,287Zm23.87,19.94c1.25-.32,1.72-1.26,2.82-2,.16-.16-.16-.47.63-.47,1.26,0,2.83-3.46,3.92-4.24.16-.47.48-.32.48,0-.16.15-.48.31-.32.63-1.73,1.25-2.35,3-3.61,4.08-1.57,1.25-3.3,1.88-4.24,3.45C488.12,308,489.84,307.55,489.69,306.92Z"/></g></g></svg>