<svg xmlns="http://www.w3.org/2000/svg" viewBox="0 0 940.165 305.882"><defs><style>.cls-1{fill:#fff;}.cls-2{fill:#f68c21;}</style></defs><g id="Layer_2" data-name="Layer 2"><g id="Layer_1-2" data-name="Layer 1"><path class="cls-1" d="M431.177,139.15a54.184,54.184,0,0,1,1.622,13.919V187.12a5.771,5.771,0,0,1-2.364,4.8,9.947,9.947,0,0,1-11.488,0,5.771,5.771,0,0,1-2.364-4.8V153.069q0-7.026-1.013-10a9.837,9.837,0,0,0-2.771-4.46q-3.918-3.515-11.891-3.514a54.022,54.022,0,0,0-7.973.607,44.885,44.885,0,0,0-7.973,1.961v48.918a5.9,5.9,0,0,1-2.364,4.931,9.955,9.955,0,0,1-11.487,0,5.9,5.9,0,0,1-2.364-4.931V99.827a5.772,5.772,0,0,1,2.364-4.8,9.964,9.964,0,0,1,11.487,0,5.772,5.772,0,0,1,2.364,4.8V123.88a53.235,53.235,0,0,1,8.244-2.3,43.2,43.2,0,0,1,8.243-.812q9.052,0,14.526,2.432a31.855,31.855,0,0,1,8.447,5.135A22.429,22.429,0,0,1,431.177,139.15Z"/><path class="cls-1" d="M468.331,186.717a26.531,26.531,0,0,1-6.149-7.162,24.157,24.157,0,0,1-3.04-9.053q-.408-2.975-.541-6.151t-.136-7.092q0-3.921.136-7.1t.541-6.147a24.143,24.143,0,0,1,3.04-9.055,26.467,26.467,0,0,1,6.149-7.161q8.376-7.029,22.7-7.028,14.187,0,22.567,7.028a26.537,26.537,0,0,1,6.149,7.161,24.2,24.2,0,0,1,3.04,9.055,46.025,46.025,0,0,1,.607,6.687q.069,3.446.068,6.556t-.068,6.553a46.079,46.079,0,0,1-.607,6.69,24.21,24.21,0,0,1-3.04,9.053,26.6,26.6,0,0,1-6.149,7.162q-8.379,7.027-22.567,7.027Q476.707,193.744,468.331,186.717Zm6.89-40.81a42.274,42.274,0,0,0-.472,5.608q-.069,3.041-.068,5.744t.068,5.742a42.274,42.274,0,0,0,.472,5.608q1.623,10.81,15.811,10.811,14.054,0,15.675-10.811.269-2.3.405-5.068t.135-6.282q0-3.513-.135-6.286t-.405-5.066Q505.085,135.1,491.032,135.1,476.845,135.1,475.221,145.907Z"/><path class="cls-1" d="M557.642,186.717a26.562,26.562,0,0,1-6.148-7.162,24.229,24.229,0,0,1-3.041-9.053q-.4-2.975-.54-6.151t-.136-7.092q0-3.921.136-7.1t.54-6.147a24.215,24.215,0,0,1,3.041-9.055,26.5,26.5,0,0,1,6.148-7.161q8.379-7.029,22.7-7.028,14.19,0,22.567,7.028a26.5,26.5,0,0,1,6.149,7.161,24.214,24.214,0,0,1,3.04,9.055,46.163,46.163,0,0,1,.609,6.687q.066,3.446.067,6.556t-.067,6.553a46.218,46.218,0,0,1-.609,6.69,24.228,24.228,0,0,1-3.04,9.053,26.566,26.566,0,0,1-6.149,7.162q-8.379,7.027-22.567,7.027Q566.02,193.744,557.642,186.717Zm6.893-40.81a42.084,42.084,0,0,0-.475,5.608q-.066,3.041-.066,5.744T564.06,163a42.084,42.084,0,0,0,.475,5.608q1.619,10.81,15.809,10.811,14.055,0,15.676-10.811.27-2.3.4-5.068t.136-6.282q0-3.513-.136-6.286t-.4-5.066Q594.4,135.1,580.344,135.1,566.156,135.1,564.535,145.907Z"/><path class="cls-1" d="M703.3,150.163q.135,3.177.136,7.1t-.136,7.092q-.135,3.178-.541,6.151a25.736,25.736,0,0,1-17.634,21.416,37.721,37.721,0,0,1-12.229,1.826,44.845,44.845,0,0,1-9.053-.946,69.9,69.9,0,0,1-9.189-2.569v20.54a5.715,5.715,0,0,1-2.365,4.864,10.261,10.261,0,0,1-11.487,0,5.717,5.717,0,0,1-2.364-4.864v-53.51q0-3.109.068-6.556a45.885,45.885,0,0,1,.608-6.687,24.144,24.144,0,0,1,3.041-9.055A26.494,26.494,0,0,1,648.3,127.8q8.379-7.029,22.7-7.028,14.187,0,22.565,7.028a26.467,26.467,0,0,1,6.149,7.161,24.143,24.143,0,0,1,3.04,9.055Q703.17,146.988,703.3,150.163ZM687.155,163q.069-3.041.068-5.742t-.068-5.744a42.274,42.274,0,0,0-.472-5.608Q685.06,135.1,671.008,135.1q-14.192,0-15.811,10.811-.269,2.3-.4,5.066t-.135,6.286v19.457a78.611,78.611,0,0,0,8.985,1.959,51.087,51.087,0,0,0,7.771.745q7.7,0,11.148-2.973a12.183,12.183,0,0,0,4.122-7.838A42.274,42.274,0,0,0,687.155,163Z"/><path class="cls-1" d="M782.751,173.744a7.109,7.109,0,0,1,3.717,1.013,6.668,6.668,0,0,1,2.633,3.174,8.981,8.981,0,0,1,.812,3.515q0,4.46-4.594,6.486-13.38,5.813-25,5.812-14.187,0-22.837-7.027a27.714,27.714,0,0,1-6.013-7.162,24.157,24.157,0,0,1-3.04-9.053,60.87,60.87,0,0,1-.541-6.081q-.134-3.244-.135-7.162t.135-7.162a60.763,60.763,0,0,1,.541-6.081,24.143,24.143,0,0,1,3.04-9.055,27.643,27.643,0,0,1,6.013-7.161q8.649-7.029,22.837-7.028,14.053,0,22.7,7.028a27.667,27.667,0,0,1,6.014,7.161,24.2,24.2,0,0,1,3.041,9.055c.09.718.157,1.4.2,2.027s.068,1.261.068,1.891q0,7.7-4.931,11.553t-13.852,3.853H744.1a34.673,34.673,0,0,0,.4,5.4q.81,5.677,4.662,8.176t11.148,2.5a32.584,32.584,0,0,0,8.379-1.15,63.3,63.3,0,0,0,9.459-3.445A12.047,12.047,0,0,1,782.751,173.744Zm-38.242-27.972q-.27,1.892-.4,4.054h30.539a1.421,1.421,0,0,0,1.216-.541,4.413,4.413,0,0,0,.271-.742,5.548,5.548,0,0,0,.135-1.419,3.184,3.184,0,0,0-.067-.608,3.746,3.746,0,0,1-.068-.744,11.665,11.665,0,0,0-4.8-8.108q-3.987-2.837-11.013-2.837Q746.132,134.827,744.509,145.772Z"/><path class="cls-1" d="M820.376,191.513a5.9,5.9,0,0,1-2.366-4.931V157.528q0-3.916.136-7.23t.54-6.282q1.623-10.947,9.73-17.095t21.62-6.149a55.075,55.075,0,0,1,7.635.541,33.228,33.228,0,0,1,7.365,1.891q4.595,1.76,4.6,6.352a8.834,8.834,0,0,1-.676,3.108q-1.892,4.866-6.486,4.864a8.785,8.785,0,0,1-3.649-.674l-4.122-1.081a21.911,21.911,0,0,0-5.472-.677q-6.758,0-10.2,2.568t-4.257,8.243a39.048,39.048,0,0,0-.473,5.473q-.066,3.041-.068,6.148v29.054a5.9,5.9,0,0,1-2.364,4.931,9.952,9.952,0,0,1-11.485,0Z"/><path class="cls-1" d="M900.772,192.662q-5.879-1.083-11.554-2.7a9.229,9.229,0,0,1-4.257-2.5,6.236,6.236,0,0,1-1.554-4.392v-.876a4.216,4.216,0,0,1,.136-1.016q1.351-5.811,7.026-5.809a15.448,15.448,0,0,1,3.108.4l8.379,2.432a33.422,33.422,0,0,0,9.73,1.352q12.3,0,12.3-6.757,0-2.433-2.771-4.257t-10.877-3.31a69.739,69.739,0,0,1-10.878-2.771A26.786,26.786,0,0,1,891.381,158a18.168,18.168,0,0,1-5.135-6.689,22.657,22.657,0,0,1-1.758-9.323,21.1,21.1,0,0,1,1.487-7.635,17.092,17.092,0,0,1,4.933-6.825,27.085,27.085,0,0,1,8.85-4.864,40.864,40.864,0,0,1,13.379-1.893,71.9,71.9,0,0,1,9.256.541q4.122.538,8.176,1.486a7.514,7.514,0,0,1,4.6,2.635,7.286,7.286,0,0,1,1.486,4.527,8.527,8.527,0,0,1-.068,1.081c-.044.362-.112.765-.2,1.216a7.224,7.224,0,0,1-2.5,4.053,6.865,6.865,0,0,1-4.122,1.217,12.349,12.349,0,0,1-2.974-.405q-4.053-.945-7.7-1.554a41.361,41.361,0,0,0-6.757-.608q-11.624,0-11.623,6.486a4.848,4.848,0,0,0,2.771,4.526,21.476,21.476,0,0,0,4.189,1.69,53.991,53.991,0,0,0,6.554,1.488,70.66,70.66,0,0,1,12.3,3.512,26.767,26.767,0,0,1,8.04,4.8,15.716,15.716,0,0,1,4.325,6.352,23.7,23.7,0,0,1,1.283,8.039,19.1,19.1,0,0,1-7.431,15.676q-7.434,6.216-20.946,6.217A61.066,61.066,0,0,1,900.772,192.662Z"/><path class="cls-2" d="M293.272,140.331H227.164a137.5,137.5,0,0,1,38.465-73.917,12.471,12.471,0,0,0-8.819-21.291h0a12.393,12.393,0,0,0-8.816,3.656,162.217,162.217,0,0,0-46.132,91.552H165.551V12.61a12.61,12.61,0,1,0-25.22,0V140.331h-35.1A162.246,162.246,0,0,0,59.1,48.779a12.4,12.4,0,0,0-8.818-3.656h0a12.472,12.472,0,0,0-8.818,21.291,137.5,137.5,0,0,1,38.466,73.917H12.61a12.61,12.61,0,1,0,0,25.22h69.4a137.043,137.043,0,0,1-29.573,84.408,12.472,12.472,0,1,0,19.6,15.427,161.763,161.763,0,0,0,34.916-99.835h33.38V293.272a12.61,12.61,0,1,0,25.22,0V165.551h34.585a161.765,161.765,0,0,0,34.914,99.835,12.473,12.473,0,1,0,19.6-15.427,137.055,137.055,0,0,1-29.573-84.408h68.192a12.61,12.61,0,1,0,0-25.22Z"/><path class="cls-2" d="M791.373,264.028a15.215,15.215,0,0,1-3.526-4.108,13.9,13.9,0,0,1-1.744-5.192q-.232-1.706-.31-3.527t-.078-4.069q0-2.247.078-4.068t.31-3.527a13.9,13.9,0,0,1,1.744-5.192,15.2,15.2,0,0,1,3.526-4.107q4.8-4.031,13.02-4.031a36.161,36.161,0,0,1,14.337,3.333,3.681,3.681,0,0,1,2.48,3.565,4.943,4.943,0,0,1-.465,2.093,4.039,4.039,0,0,1-1.549,1.937,3.806,3.806,0,0,1-1.938.543,6.515,6.515,0,0,1-2.636-.62,36.209,36.209,0,0,0-5.424-1.977,18.7,18.7,0,0,0-4.8-.658q-8.138,0-9.068,6.2-.155,1.318-.232,2.907t-.078,3.6q0,2.016.078,3.6t.232,2.906q.931,6.2,9.068,6.2a18.7,18.7,0,0,0,4.8-.658,36.209,36.209,0,0,0,5.424-1.977,6.918,6.918,0,0,1,2.636-.62,4.294,4.294,0,0,1,2.131.543,3.6,3.6,0,0,1,1.512,1.86,5.162,5.162,0,0,1,.465,2.015,3.88,3.88,0,0,1-2.636,3.72,36.143,36.143,0,0,1-14.337,3.333Q796.178,268.058,791.373,264.028Z"/><path class="cls-2" d="M839.653,266.972a15.6,15.6,0,0,1-5.541-5.579,16.038,16.038,0,0,1-1.666-7.673V214.2a3.31,3.31,0,0,1,1.356-2.752,5.708,5.708,0,0,1,6.587,0,3.31,3.31,0,0,1,1.356,2.752V253.72a8.983,8.983,0,0,0,.7,3.991,7.616,7.616,0,0,0,2.713,2.674,3.612,3.612,0,0,1,1.782,3.178,4,4,0,0,1-.93,2.557,3.843,3.843,0,0,1-1.589,1.279,5.048,5.048,0,0,1-2.053.426A4.693,4.693,0,0,1,839.653,266.972Z"/><path class="cls-2" d="M864.877,266.662a17.968,17.968,0,0,1-4.921-2.945,12.651,12.651,0,0,1-3.953-6.2,31.08,31.08,0,0,1-.929-7.983V230.316a3.28,3.28,0,0,1,1.356-2.79,5.885,5.885,0,0,1,6.587,0,3.28,3.28,0,0,1,1.356,2.79v19.219a31.408,31.408,0,0,0,.156,3.41,14.066,14.066,0,0,0,.425,2.325,5.516,5.516,0,0,0,.66,1.512,6.721,6.721,0,0,0,.852,1.045q2.4,2.016,6.9,2.015t6.9-2.015a6.843,6.843,0,0,0,.853-1.045,5.578,5.578,0,0,0,.658-1.512,14.15,14.15,0,0,0,.427-2.325,31.726,31.726,0,0,0,.154-3.41V230.316a3.28,3.28,0,0,1,1.356-2.79,5.886,5.886,0,0,1,6.588,0,3.281,3.281,0,0,1,1.357,2.79v19.219a31.075,31.075,0,0,1-.931,7.983,12.656,12.656,0,0,1-3.952,6.2,19.569,19.569,0,0,1-4.96,2.945,21.316,21.316,0,0,1-8.447,1.4A21.615,21.615,0,0,1,864.877,266.662Z"/><path class="cls-2" d="M940.087,243.064q.078,1.821.078,4.068t-.078,4.069q-.077,1.821-.309,3.527a13.881,13.881,0,0,1-1.745,5.192,15.212,15.212,0,0,1-3.525,4.108q-4.806,4.029-12.942,4.03-8.216,0-13.021-4.03a15.233,15.233,0,0,1-3.526-4.108,13.861,13.861,0,0,1-1.743-5.192,26.307,26.307,0,0,1-.349-3.837q-.039-1.975-.039-3.759V214.2a3.31,3.31,0,0,1,1.356-2.752,5.708,5.708,0,0,1,6.587,0,3.309,3.309,0,0,1,1.357,2.752v14.027a40.211,40.211,0,0,1,5.27-1.473,25.752,25.752,0,0,1,5.193-.543,21.662,21.662,0,0,1,7.013,1.047,14.769,14.769,0,0,1,10.114,12.283Q940.011,241.243,940.087,243.064Zm-9.261,7.362q.039-1.743.04-3.294t-.04-3.293a24.008,24.008,0,0,0-.271-3.217,6.987,6.987,0,0,0-2.363-4.5q-1.977-1.7-6.394-1.7a29.279,29.279,0,0,0-4.457.426,45.409,45.409,0,0,0-5.153,1.124v11.159q0,2.016.077,3.6t.233,2.906q.928,6.2,9.068,6.2,8.059,0,8.989-6.2A24.008,24.008,0,0,0,930.826,250.426Z"/></g></g></svg>