<svg xmlns="http://www.w3.org/2000/svg" viewBox="0 0 134.998 43.922"><defs><style>.cls-1{fill:#fff;}.cls-2{fill:#f78e22;}</style></defs><g id="Layer_2" data-name="Layer 2"><g id="Layer_1-2" data-name="Layer 1"><g id="Layer_2-2" data-name="Layer 2"><g id="Layer_1-2-2" data-name="Layer 1-2"><path class="cls-1" d="M61.911,19.98a7.733,7.733,0,0,1,.232,2v4.89a.829.829,0,0,1-.339.689,1.431,1.431,0,0,1-1.65,0,.833.833,0,0,1-.34-.689v-4.89a4.951,4.951,0,0,0-.145-1.434,1.4,1.4,0,0,0-.4-.637,2.494,2.494,0,0,0-1.707-.5,7.829,7.829,0,0,0-1.145.087,6.514,6.514,0,0,0-1.145.282V26.8a.846.846,0,0,1-.339.708,1.434,1.434,0,0,1-1.65,0,.846.846,0,0,1-.339-.708V14.333a.826.826,0,0,1,.339-.688,1.428,1.428,0,0,1,1.65,0,.829.829,0,0,1,.339.688v3.454a7.7,7.7,0,0,1,1.184-.329,6.11,6.11,0,0,1,1.184-.117,5.2,5.2,0,0,1,2.086.349,4.57,4.57,0,0,1,1.212.737A3.21,3.21,0,0,1,61.911,19.98Z"/><path class="cls-1" d="M67.246,26.81a3.827,3.827,0,0,1-.882-1.028,3.47,3.47,0,0,1-.437-1.3c-.038-.285-.065-.579-.08-.884s-.021-.644-.019-1.018.006-.715.019-1.019.04-.6.08-.883a3.47,3.47,0,0,1,.437-1.3,3.8,3.8,0,0,1,.882-1.028,5.738,5.738,0,0,1,6.5,0,3.8,3.8,0,0,1,.882,1.028,3.47,3.47,0,0,1,.437,1.3,6.59,6.59,0,0,1,.088.961c.006.33.009.643.009.941s0,.611-.009.941a6.59,6.59,0,0,1-.088.961,3.47,3.47,0,0,1-.437,1.3,3.827,3.827,0,0,1-.882,1.028A5.738,5.738,0,0,1,67.246,26.81Zm.99-5.857a6.214,6.214,0,0,0-.068.8q-.009.436-.009.825c0,.259,0,.533.009.825a6.214,6.214,0,0,0,.068.8q.233,1.553,2.27,1.552,2.017,0,2.251-1.552c.026-.22.046-.463.058-.728s.019-.566.019-.9-.006-.637-.019-.9-.032-.507-.058-.727Q72.525,19.4,70.506,19.4,68.469,19.4,68.236,20.953Z"/><path class="cls-1" d="M80.069,26.81a3.827,3.827,0,0,1-.882-1.028,3.47,3.47,0,0,1-.437-1.3c-.039-.285-.066-.579-.08-.884s-.02-.644-.019-1.018.007-.715.019-1.019.04-.6.08-.883a3.47,3.47,0,0,1,.437-1.3,3.8,3.8,0,0,1,.882-1.028,5.736,5.736,0,0,1,6.5,0,3.8,3.8,0,0,1,.884,1.028,3.487,3.487,0,0,1,.436,1.3,6.453,6.453,0,0,1,.087.961c.007.33.01.643.01.941s0,.611-.01.941a6.453,6.453,0,0,1-.087.961,3.493,3.493,0,0,1-.436,1.3,3.819,3.819,0,0,1-.884,1.028A5.74,5.74,0,0,1,80.069,26.81Zm.99-5.86a6.015,6.015,0,0,0-.068.8q-.009.436-.009.825t.009.824a6.044,6.044,0,0,0,.068.806q.233,1.553,2.27,1.552,2.018,0,2.251-1.552c.026-.22.045-.463.059-.728s.019-.567.019-.9-.007-.637-.019-.9-.033-.507-.059-.727Q85.348,19.4,83.329,19.4q-2.035,0-2.268,1.555Z"/><path class="cls-1" d="M100.987,21.561c.012.3.019.644.019,1.019s-.007.714-.019,1.018-.04.6-.08.884a3.7,3.7,0,0,1-2.532,3.075,5.43,5.43,0,0,1-1.753.262,6.455,6.455,0,0,1-1.3-.136A10,10,0,0,1,94,27.314v2.948a.821.821,0,0,1-.34.7,1.471,1.471,0,0,1-1.649,0,.817.817,0,0,1-.339-.7V22.58q0-.445.009-.941a6.59,6.59,0,0,1,.088-.961,3.469,3.469,0,0,1,.436-1.3,3.818,3.818,0,0,1,.883-1.028,5.736,5.736,0,0,1,6.5,0,3.8,3.8,0,0,1,.882,1.028,3.453,3.453,0,0,1,.437,1.3Q100.967,21.106,100.987,21.561ZM98.667,23.4c.008-.29.011-.565.011-.824s0-.534-.011-.825a6.014,6.014,0,0,0-.067-.8Q98.367,19.4,96.349,19.4q-2.039,0-2.27,1.552c-.026.22-.045.463-.058.727s-.02.567-.02.9v2.794a11.328,11.328,0,0,0,1.291.281,7.308,7.308,0,0,0,1.115.107,2.437,2.437,0,0,0,1.6-.427A1.749,1.749,0,0,0,98.6,24.21,6.043,6.043,0,0,0,98.667,23.4Z"/><path class="cls-1" d="M112.394,24.947a1.015,1.015,0,0,1,.534.146.951.951,0,0,1,.378.455,1.3,1.3,0,0,1,.117.505.972.972,0,0,1-.66.931,9.038,9.038,0,0,1-3.585.835,5.042,5.042,0,0,1-3.28-1.009,3.98,3.98,0,0,1-.863-1.028,3.47,3.47,0,0,1-.437-1.3c-.041-.291-.068-.584-.08-.877-.013-.311-.019-.653-.019-1.028s.006-.718.019-1.029c.012-.293.039-.586.08-.876a3.481,3.481,0,0,1,.437-1.3,3.942,3.942,0,0,1,.863-1.027,5.8,5.8,0,0,1,6.539,0,3.966,3.966,0,0,1,.864,1.027,3.5,3.5,0,0,1,.436,1.3c.013.106.023.2.029.291s.01.181.01.272a1.981,1.981,0,0,1-.708,1.659,3.171,3.171,0,0,1-1.992.553h-4.23a5.05,5.05,0,0,0,.059.776,1.581,1.581,0,0,0,.669,1.174,2.947,2.947,0,0,0,1.6.358,4.653,4.653,0,0,0,1.2-.164,9.189,9.189,0,0,0,1.355-.5A1.713,1.713,0,0,1,112.394,24.947ZM106.9,20.931c-.025.18-.045.375-.058.582h4.382a.2.2,0,0,0,.174-.08.52.52,0,0,0,.039-.106.776.776,0,0,0,.019-.2.428.428,0,0,0-.009-.087.546.546,0,0,1-.01-.107,1.668,1.668,0,0,0-.689-1.164,2.685,2.685,0,0,0-1.58-.408q-2.036,0-2.268,1.574Z"/><path class="cls-1" d="M117.8,27.5a.85.85,0,0,1-.34-.709V22.619c0-.375.007-.72.019-1.036s.04-.616.08-.9a3.606,3.606,0,0,1,1.4-2.454,5.016,5.016,0,0,1,3.107-.883,7.878,7.878,0,0,1,1.1.08,4.691,4.691,0,0,1,1.057.271.916.916,0,0,1,.66.912,1.276,1.276,0,0,1-.1.447.957.957,0,0,1-.931.7,1.274,1.274,0,0,1-.524-.1l-.592-.159a3.155,3.155,0,0,0-.785-.1,2.427,2.427,0,0,0-1.466.369,1.7,1.7,0,0,0-.611,1.183,5.449,5.449,0,0,0-.067.786q-.01.436-.011.883V26.79a.849.849,0,0,1-.339.709,1.436,1.436,0,0,1-1.649,0Z"/><path class="cls-1" d="M129.341,27.664q-.843-.156-1.659-.388a1.344,1.344,0,0,1-.612-.36.9.9,0,0,1-.223-.631V26.16a.6.6,0,0,1,.02-.146.957.957,0,0,1,1.009-.834,2.234,2.234,0,0,1,.446.058l1.2.349a4.828,4.828,0,0,0,1.4.2q1.764,0,1.765-.971a.742.742,0,0,0-.4-.612,4.759,4.759,0,0,0-1.563-.478,10.007,10.007,0,0,1-1.561-.4,3.853,3.853,0,0,1-1.175-.637,2.614,2.614,0,0,1-.737-.961A3.269,3.269,0,0,1,127,20.386a3.048,3.048,0,0,1,.213-1.1,2.468,2.468,0,0,1,.709-.98,3.9,3.9,0,0,1,1.27-.7,5.847,5.847,0,0,1,1.921-.272,10.367,10.367,0,0,1,1.33.079q.593.078,1.174.214a1.072,1.072,0,0,1,.659.378,1.045,1.045,0,0,1,.214.65,1.212,1.212,0,0,1-.01.159c-.006.052-.016.11-.029.175a1.035,1.035,0,0,1-.359.582.982.982,0,0,1-.592.174,1.716,1.716,0,0,1-.427-.058q-.582-.135-1.106-.223a5.84,5.84,0,0,0-.97-.087q-1.668,0-1.668.931a.693.693,0,0,0,.4.65,3.033,3.033,0,0,0,.6.239,7.763,7.763,0,0,0,.941.214,9.956,9.956,0,0,1,1.765.5,3.851,3.851,0,0,1,1.155.689,2.251,2.251,0,0,1,.621.911A3.412,3.412,0,0,1,135,24.676a2.741,2.741,0,0,1-1.069,2.252,4.557,4.557,0,0,1-3.008.893A8.723,8.723,0,0,1,129.341,27.664Z"/><path class="cls-1" d="M42.11,20.149H32.618A19.736,19.736,0,0,1,38.14,9.536a1.791,1.791,0,0,0-1.265-3.058h0A1.778,1.778,0,0,0,35.609,7a23.3,23.3,0,0,0-6.625,13.146H23.771V1.81a1.811,1.811,0,0,0-3.622,0V20.149h-5.04A23.306,23.306,0,0,0,8.485,7a1.782,1.782,0,0,0-1.267-.525h0A1.791,1.791,0,0,0,5.952,9.536a19.733,19.733,0,0,1,5.52,10.613H1.81a1.811,1.811,0,0,0,0,3.622h9.965a19.685,19.685,0,0,1-4.247,12.12,1.791,1.791,0,0,0,2.815,2.215h0a23.23,23.23,0,0,0,5.013-14.335h4.793V42.11a1.811,1.811,0,1,0,3.622,0V23.771h4.966A23.23,23.23,0,0,0,33.75,38.106a1.793,1.793,0,1,0,2.819-2.215,19.679,19.679,0,0,1-4.247-12.12h9.792a1.811,1.811,0,0,0,0-3.622H42.11Z"/></g></g><path class="cls-2" d="M116.162,36.314q.012.282.012.645t-.012.644c-.007.188-.023.368-.046.539A2.115,2.115,0,0,1,115.3,39.6a3.3,3.3,0,0,1-3.563,0,2.106,2.106,0,0,1-.814-1.459,4.1,4.1,0,0,1-.053-.592q-.006-.31-.006-.591v-5.11a.389.389,0,0,1,.158-.322.652.652,0,0,1,.762,0,.387.387,0,0,1,.158.322v2.285a6.649,6.649,0,0,1,.826-.246,3.693,3.693,0,0,1,.8-.094,2.762,2.762,0,0,1,1.741.522,2.134,2.134,0,0,1,.8,1.459C116.139,35.947,116.155,36.127,116.162,36.314ZM115.09,37.5c0-.188.006-.367.006-.539s0-.352-.006-.54a4.154,4.154,0,0,0-.041-.515q-.165-1.137-1.523-1.137a3.921,3.921,0,0,0-.739.088,7.478,7.478,0,0,0-.844.217v1.887c0,.211,0,.4.012.58s.02.334.035.474q.164,1.137,1.536,1.137t1.523-1.137A4.154,4.154,0,0,0,115.09,37.5Z"/><path class="cls-2" d="M122.257,38.646a.454.454,0,0,1,.446.282.65.65,0,0,1,.058.234.456.456,0,0,1-.082.27.512.512,0,0,1-.211.175,5.139,5.139,0,0,1-2.11.516,2.873,2.873,0,0,1-1.787-.522,2.11,2.11,0,0,1-.814-1.459c-.024-.171-.039-.351-.047-.539s-.012-.4-.012-.644,0-.457.012-.645.023-.367.047-.539a2.112,2.112,0,0,1,.814-1.459,3.3,3.3,0,0,1,3.563,0,2.108,2.108,0,0,1,.814,1.459,2.3,2.3,0,0,1,.035.387,1.156,1.156,0,0,1-.322.908,1.319,1.319,0,0,1-.908.287h-2.976c.007.11.013.221.017.334a2.9,2.9,0,0,0,.029.322q.165,1.137,1.535,1.137a2.744,2.744,0,0,0,.762-.111,6.557,6.557,0,0,0,.856-.322A.619.619,0,0,1,122.257,38.646Zm-3.469-2.262h2.871a.272.272,0,0,0,.176-.047c.039-.031.058-.1.058-.21v-.1a.734.734,0,0,0-.011-.123q-.164-1.137-1.524-1.137T118.823,35.9A2.99,2.99,0,0,0,118.788,36.384Z"/><path class="cls-2" d="M128.751,39.467a.441.441,0,0,1-.317.445,3.162,3.162,0,0,1-1.206.211,2.762,2.762,0,0,1-1.923-.645,1.873,1.873,0,0,1-.551-.914,5.119,5.119,0,0,1-.128-1.219V32.259a.388.388,0,0,1,.158-.322.652.652,0,0,1,.762,0,.391.391,0,0,1,.158.322v1.617h2.531a.459.459,0,0,1,.357.147.491.491,0,0,1,.136.346.472.472,0,0,1-.493.48H125.7v2.5a4.053,4.053,0,0,0,.082.932.98.98,0,0,0,.293.51,1.271,1.271,0,0,0,.5.281,2.2,2.2,0,0,0,.621.082,1.689,1.689,0,0,0,.386-.047q.2-.047.423-.105a.572.572,0,0,1,.234-.047.472.472,0,0,1,.293.088.54.54,0,0,1,.175.229A.613.613,0,0,1,128.751,39.467Z"/><path class="cls-2" d="M134.874,35.353A5.251,5.251,0,0,1,135,36.572v.773a5.245,5.245,0,0,1-.123,1.219,1.784,1.784,0,0,1-.556.914,2.718,2.718,0,0,1-1.91.645,3.575,3.575,0,0,1-1.19-.17,2.564,2.564,0,0,1-.761-.4,1.735,1.735,0,0,1-.428-.486,2.072,2.072,0,0,1-.188-.417,2.336,2.336,0,0,1,0-1.312q.433-1.478,2.544-1.477a6.767,6.767,0,0,1,.726.041c.25.027.511.064.785.111a1.884,1.884,0,0,0-.1-.545.8.8,0,0,0-.246-.333,1.551,1.551,0,0,0-1.137-.364c-.156,0-.3,0-.428.012a3.708,3.708,0,0,0-.375.041c-.121.02-.246.045-.375.076l-.416.106a.729.729,0,0,1-.164.023.594.594,0,0,1-.311-.088.419.419,0,0,1-.193-.263.975.975,0,0,1-.024-.165.444.444,0,0,1,.106-.3.54.54,0,0,1,.282-.17q.257-.07.486-.117c.152-.032.3-.057.45-.077s.3-.033.452-.041.322-.012.51-.012a2.718,2.718,0,0,1,1.91.645A1.788,1.788,0,0,1,134.874,35.353Zm-1.037,2.924a3.987,3.987,0,0,0,.083-.932v-.421q-.411-.06-.815-.088c-.27-.02-.5-.029-.7-.029a2.8,2.8,0,0,0-.78.087,1.4,1.4,0,0,0-.445.211.678.678,0,0,0-.217.258c-.039.09-.07.166-.094.229a1.393,1.393,0,0,0-.047.4,1.279,1.279,0,0,0,.047.387q.246.774,1.536.773a1.556,1.556,0,0,0,1.137-.363A.985.985,0,0,0,133.837,38.277Z"/></g></g></svg>