<svg xmlns="http://www.w3.org/2000/svg" width="31.826" height="17.451" viewBox="0 0 31.826 17.451">
  <path id="Path_104" data-name="Path 104" d="M3.731,16.016,17.093,2.69a1.528,1.528,0,0,0,.458-1.058A1.391,1.391,0,0,0,17.093.574a1.511,1.511,0,0,0-2.151,0L.523,14.958a1.574,1.574,0,0,0-.423.917v.247a1.481,1.481,0,0,0,.423.917l.212.212L14.977,31.493a1.528,1.528,0,0,0,1.058.458,1.391,1.391,0,0,0,1.058-.458,1.511,1.511,0,0,0,0-2.151Z" transform="translate(-0.125 17.551) rotate(-90)" fill="#d48832"/>
</svg>
