<svg id="Botão_Seta_2" data-name="Botão Seta 2" xmlns="http://www.w3.org/2000/svg" width="35.727" height="65.156" viewBox="0 0 35.727 65.156">
  <path id="Path_59" data-name="Path 59" d="M7.534,32.658,34.888,5.376a3.129,3.129,0,0,0,.938-2.165,2.848,2.848,0,0,0-.938-2.165,3.093,3.093,0,0,0-4.4,0L.966,30.493A3.223,3.223,0,0,0,.1,32.369v.505a3.033,3.033,0,0,0,.866,1.877l.433.433L30.558,64.343a3.129,3.129,0,0,0,2.165.938,2.848,2.848,0,0,0,2.165-.938,3.093,3.093,0,0,0,0-4.4Z" transform="translate(-0.1 -0.125)" fill="#fff"/>
</svg>
